<?xml version="1.0" standalone="no"?>
<!DOCTYPE svg PUBLIC "-//W3C//DTD SVG 1.1//EN" "http://www.w3.org/Graphics/SVG/1.1/DTD/svg11.dtd" >
<svg>
<metadata>
Created by FontForge 20110222 at Tue Feb  3 10:09:53 2015
 By deploy user
Copyright (c) 2007 by Betatype. All rights reserved. Modified by Delve Fonts for Bose Corp. with permission from Betatype.
</metadata>
<defs>
<font id="BoseGothicScreen-Reg" horiz-adv-x="265" >
  <font-face 
    font-family="Bose Gothic Screen"
    font-weight="400"
    font-stretch="normal"
    units-per-em="1000"
    panose-1="2 0 5 3 3 0 0 2 0 4"
    ascent="750"
    descent="-250"
    x-height="510"
    cap-height="680"
    bbox="-47 -251 1031 918"
    underline-thickness="50"
    underline-position="-50"
    unicode-range="U+0020-FB04"
  />
<missing-glyph horiz-adv-x="218" 
 />
    <glyph glyph-name="germandbls" unicode="ss" horiz-adv-x="624" 
d="M161 0h-80v544q0 88 57.5 138t157.5 50q45 0 86.5 -11t74 -34t51.5 -58t19 -83q-26 -24 -44.5 -43t-30 -37t-16.5 -35.5t-5 -38.5q0 -39 21.5 -61.5t49.5 -43.5q16 -13 31 -26.5t27 -30t19 -38t7 -49.5q0 -37 -14.5 -65.5t-40.5 -47.5t-62 -29t-79 -10q-26 0 -51 4.5
t-47.5 13t-41 21t-30.5 29.5l34 50q16 -20 48.5 -35t83.5 -15q23 0 44.5 5.5t38.5 16.5t27.5 27t10.5 37q0 24 -7 40.5t-19 29.5t-27 23.5t-31 22.5q-15 11 -28 23t-22.5 27t-15 34t-5.5 44q0 44 19 86t72 86q0 27 -12.5 46t-33 31t-46.5 17.5t-52 5.5q-62 0 -100 -33.5
t-38 -86.5v-541z" />
    <glyph glyph-name="fi" unicode="fi" horiz-adv-x="581" 
d="M94 573q0 37 16 65t43 46.5t64 27.5t79 9q48 0 99.5 -8t93.5 -20l-14 -59q-44 8 -82 13t-86 5q-64 0 -99 -22t-35 -68v-52h123v-59h-123v-451h-79v451h-67v59h67v63zM411 510h80v-510h-80v510z" />
    <glyph glyph-name="fl" unicode="fl" horiz-adv-x="584" 
d="M411 643q-26 4 -51 6.5t-56 2.5q-64 0 -97.5 -22t-33.5 -68v-52h123v-59h-123v-451h-79v451h-67v59h67v63q0 37 16 65t43 46.5t64 27.5t79 9q48 0 97.5 -8.5t97.5 -22.5v-690h-80v643z" />
    <glyph glyph-name="arrowleft" unicode="&#x3c;&#x2d;" horiz-adv-x="446" 
d="M257 416l-111 -135h245v-59h-245l107 -125l-39 -30l-160 185l164 196z" />
    <glyph glyph-name="arrowright" unicode="&#x2d;&#x3e;" horiz-adv-x="446" 
d="M223 452l168 -200l-158 -196l-40 32l106 135h-245v58h245l-114 139z" />
    <glyph glyph-name="T_h" unicode="Th" horiz-adv-x="1104" 
d="M852 519q88 0 133.5 -46t45.5 -131v-342h-79v339q0 53 -32.5 81t-86.5 28q-30 0 -59.5 -10t-52.5 -27t-37.5 -40t-14.5 -49v-322h-80v608h-264v-608h-80v608h-226v72h650v-263q27 47 75 74.5t108 27.5z" />
    <glyph glyph-name="f_j" unicode="fj" horiz-adv-x="581" 
d="M94 573q0 37 16 65t43 46.5t64 27.5t79 9q48 0 99.5 -8t93.5 -20l-14 -59q-44 8 -82 13t-86 5q-64 0 -99 -22t-35 -68v-52h123v-59h-123v-451h-79v451h-67v59h67v63zM411 510h80v-467q0 -55 -12.5 -96t-39 -70.5t-67.5 -49t-98 -31.5l-21 66q43 11 73.5 25t49 35.5t27 52
t8.5 75.5v460z" />
    <glyph glyph-name=".notdef" horiz-adv-x="218" 
 />
    <glyph glyph-name=".null" horiz-adv-x="0" 
 />
    <glyph glyph-name="nonmarkingreturn" horiz-adv-x="218" 
 />
    <glyph glyph-name="space" unicode=" " horiz-adv-x="218" 
 />
    <glyph glyph-name="lslash" unicode="&#x142;" horiz-adv-x="385" 
d="M47 238l-22 50l131 73v329h79v-295l114 64l22 -50l-136 -75v-334h-79v299z" />
    <glyph glyph-name="Scaron" unicode="&#x160;" horiz-adv-x="583" 
d="M324 373q51 -15 88.5 -33t63 -41.5t38 -54t12.5 -70.5q0 -44 -16.5 -77.5t-46 -57t-71 -35.5t-90.5 -12q-75 0 -141.5 28t-106.5 83l46 50q35 -47 88 -69t113 -22q66 0 106.5 28t40.5 82q0 28 -8.5 48t-28 35.5t-50 28.5t-75.5 26q-49 15 -88 32.5t-66.5 41.5t-42 54.5
t-14.5 70.5q0 45 17 79t47 56.5t71 33.5t88 11q72 0 128 -23.5t98 -67.5l-43 -53q-35 35 -79.5 54t-102.5 19q-63 0 -104.5 -27t-41.5 -80q0 -28 11 -48t32.5 -36t53.5 -28.5t74 -25.5zM295 732l-113 104l34 32l78 -70l77 70l34 -32z" />
    <glyph glyph-name="scaron" unicode="&#x161;" horiz-adv-x="482" 
d="M265 286q48 -10 80.5 -24t52.5 -32t29.5 -41.5t9.5 -51.5q0 -38 -15 -65.5t-41 -45.5t-60.5 -27t-73.5 -9q-25 0 -52 4t-54 12t-52.5 20.5t-46.5 29.5l33 56q32 -26 79 -40.5t88 -14.5q55 0 87 18t32 60q0 34 -29 53t-100 36q-94 20 -132.5 56t-38.5 94q0 39 15.5 66.5
t41 45t59.5 25.5t70 8q50 0 97.5 -12.5t84.5 -35.5l-30 -57q-31 17 -65.5 27.5t-78.5 10.5q-24 0 -45.5 -4t-37.5 -13t-25 -24.5t-9 -37.5q0 -35 28 -54t99 -33zM239 579l-113 104l34 32l78 -70l77 70l34 -32z" />
    <glyph glyph-name="Yacute" unicode="&#xdd;" horiz-adv-x="591" 
d="M253 266l-217 414h92l166 -333l167 333h93l-221 -414v-266h-80v266zM358 895l55 -36l-110 -132l-46 25z" />
    <glyph glyph-name="yacute" unicode="&#xfd;" horiz-adv-x="505" 
d="M209 -17l-186 527h85l142 -427l142 427h85l-201 -566q-28 -78 -77.5 -118t-127.5 -40l-7 64q45 0 80.5 25t52.5 76zM309 742l55 -36l-110 -132l-46 25z" />
    <glyph glyph-name="Thorn" unicode="&#xde;" horiz-adv-x="570" 
d="M335 546q42 0 77 -13.5t59.5 -37.5t38 -56.5t13.5 -70.5v-19q0 -75 -50 -120t-138 -45h-166v-184h-80v680h80v-134h166zM444 368q0 20 -7.5 39.5t-22.5 34.5t-36 24.5t-48 9.5h-161v-221h162q53 0 83 26.5t30 67.5v19z" />
    <glyph glyph-name="thorn" unicode="&#xfe;" horiz-adv-x="586" 
d="M325 521q44 0 81 -13t64 -36.5t42 -56t15 -71.5v-175q0 -39 -15 -71.5t-42 -56.5t-64 -37.5t-81 -13.5q-55 0 -98 19.5t-71 55.5v-297h-77v921h80v-246q29 36 71 57t95 21zM448 339q0 26 -11 47.5t-29.5 36.5t-44 23t-53.5 8q-29 0 -55 -9t-46 -24.5t-32 -36.5t-12 -45
v-168q0 -24 12 -45t32 -36t46 -24t55 -9q28 0 53 8.5t44 23.5t30 36t11 47v167z" />
    <glyph glyph-name="eth" unicode="&#xf0;" horiz-adv-x="555" 
d="M470 715l22 -42l-112 -51q55 -57 85.5 -130.5t30.5 -165.5v-159q0 -38 -17.5 -70.5t-48 -56t-71.5 -37t-87 -13.5q-45 0 -84 13t-68 36.5t-46 56t-17 71.5v142q0 37 14.5 69.5t41 56.5t63 37.5t80.5 13.5q42 0 83 -13t70 -45q-12 48 -39.5 90t-64.5 77l-143 -64l-20 43
l120 53q-30 25 -62 40.5t-70 23.5l29 61q107 -29 184 -94zM416 301q0 25 -12 45.5t-31.5 35.5t-46 23.5t-54.5 8.5t-52.5 -8.5t-43 -23.5t-29 -35.5t-10.5 -44.5v-128q0 -25 10.5 -45.5t29 -35.5t43 -23.5t52.5 -8.5t54.5 8.5t46 23.5t31.5 35.5t12 44.5v128z" />
    <glyph glyph-name="Zcaron" unicode="&#x17d;" horiz-adv-x="577" 
d="M516 680v-50l-361 -559h369v-71h-472v49l363 559h-351v72h452zM291 723l-113 104l34 32l78 -70l77 70l34 -32z" />
    <glyph glyph-name="zcaron" unicode="&#x17e;" horiz-adv-x="490" 
d="M423 510v-43l-279 -400h297v-67h-393v49l280 397h-274v64h369zM245 570l-113 104l34 32l78 -70l77 70l34 -32z" />
    <glyph glyph-name="onehalf" unicode="&#xbd;" horiz-adv-x="685" 
d="M152 620h-65v60h130v-343h-65v283zM57 0l423 680h75l-421 -680h-77zM514 354q68 0 100 -27t32 -73q0 -21 -9 -37.5t-23 -30t-32.5 -24t-37.5 -19.5q-20 -9 -38 -18t-32.5 -19.5t-24 -23.5t-10.5 -30h213v-55h-282v41q0 27 9.5 48t25.5 37t37.5 28.5t46.5 23.5
q16 6 32.5 13.5t30 16t22.5 19.5t9 25q0 23 -18 36.5t-60 13.5q-35 0 -61 -12t-48 -33l-29 41q23 26 61 42.5t86 16.5z" />
    <glyph glyph-name="onequarter" unicode="&#xbc;" horiz-adv-x="666" 
d="M152 620h-65v60h130v-343h-65v283zM57 0l423 680h75l-421 -680h-77zM564 134h64v-49h-64v-83h-63v83h-200v41l177 232h86v-224zM501 295h-6l-126 -161h132v161z" />
    <glyph glyph-name="onesuperior" unicode="&#xb9;" horiz-adv-x="232" 
d="M101 620h-65v60h130v-343h-65v283z" />
    <glyph glyph-name="threequarters" unicode="&#xbe;" horiz-adv-x="738" 
d="M328 585q0 -18 -6.5 -31.5t-17 -23t-22.5 -15.5t-24 -9q12 -3 25 -9t24 -15t18 -22t7 -31v-16q0 -27 -12 -45.5t-31.5 -30t-44.5 -16.5t-52 -5t-52.5 6t-45.5 17.5t-34 27t-18 35.5l43 20q5 -25 34.5 -38.5t66.5 -13.5q34 0 58.5 10t24.5 35v14q0 13 -7.5 22.5
t-19.5 16.5t-27.5 10.5t-30.5 3.5h-67v49h62q15 0 30 2t27.5 7.5t20 15.5t7.5 26v8q0 14 -7 23t-18.5 14t-26 7t-29.5 2q-36 0 -64 -13.5t-33 -38.5l-39 23q4 18 17.5 33.5t32.5 26.5t43 17t49 6q27 0 52 -5t44.5 -16t31 -29.5t11.5 -46.5v-8zM146 0l423 680h75l-421 -680
h-77zM642 133h64v-49h-64v-83h-63v83h-200v41l177 232h86v-224zM579 294h-6l-126 -161h132v161z" />
    <glyph glyph-name="threesuperior" unicode="&#xb3;" horiz-adv-x="369" 
d="M335 585q0 -18 -6.5 -31.5t-17 -23t-22.5 -15.5t-24 -9q12 -3 25 -9t24 -15t18 -22t7 -31v-16q0 -27 -12 -45.5t-31.5 -30t-44.5 -16.5t-52 -5t-52.5 6t-45.5 17.5t-34 27t-18 35.5l43 20q5 -25 34.5 -38.5t66.5 -13.5q34 0 58.5 10t24.5 35v14q0 13 -7.5 22.5
t-19.5 16.5t-27.5 10.5t-30.5 3.5h-67v49h62q15 0 30 2t27.5 7.5t20 15.5t7.5 26v8q0 14 -7 23t-18.5 14t-26 7t-29.5 2q-36 0 -64 -13.5t-33 -38.5l-39 23q4 18 17.5 33.5t32.5 26.5t43 17t49 6q27 0 52 -5t44.5 -16t31 -29.5t11.5 -46.5v-8z" />
    <glyph glyph-name="twosuperior" unicode="&#xb2;" horiz-adv-x="393" 
d="M206 689q68 0 100 -27t32 -73q0 -21 -9 -37.5t-23 -30t-32.5 -24t-37.5 -19.5q-20 -9 -38 -18t-32.5 -19.5t-24 -23.5t-10.5 -30h213v-55h-282v41q0 27 9.5 48t25.5 37t37.5 28.5t46.5 23.5q16 6 32.5 13.5t30 16t22.5 19.5t9 25q0 23 -18 36.5t-60 13.5q-35 0 -61 -12
t-48 -33l-29 41q23 26 61 42.5t86 16.5z" />
    <glyph glyph-name="brokenbar" unicode="&#xa6;" horiz-adv-x="166" 
d="M54 216h58v-327h-58v327zM54 691h58v-328h-58v328z" />
    <glyph glyph-name="minus" unicode="&#x2212;" horiz-adv-x="536" 
d="M482 366v-61h-428v61h428z" />
    <glyph glyph-name="multiply" unicode="&#xd7;" horiz-adv-x="574" 
d="M509 490l-186 -238l197 -252h-76l-159 204l-158 -204h-74l196 252l-185 238h71l150 -190l153 190h71z" />
    <glyph glyph-name="Lslash" unicode="&#x141;" horiz-adv-x="587" 
d="M229 680v-277l125 70l21 -50l-146 -81v-271h345v-71h-425v307l-112 -62l-21 50l133 74v311h80z" />
    <glyph glyph-name="exclam" unicode="!" horiz-adv-x="261" 
d="M177 236h-74l-5 444h84zM88 101h106v-101h-106v101z" />
    <glyph glyph-name="quotedbl" unicode="&#x22;" horiz-adv-x="307" 
d="M63 683h59l-2 -221h-54zM185 683h58l-2 -221h-53z" />
    <glyph glyph-name="numbersign" unicode="#" horiz-adv-x="704" 
d="M457 460l32 171h62l-30 -171h128l-1 -55h-139l-35 -196h144l-1 -55h-154l-26 -154h-64l26 154h-136l-28 -154h-62l26 154h-144v55h155l36 196h-162l1 55h173l30 171h64l-31 -171h136zM411 209l35 196h-136l-36 -196h137z" />
    <glyph glyph-name="dollar" unicode="$" horiz-adv-x="582" 
d="M213 -116l18 115q-54 10 -100.5 36t-76.5 68l46 50q35 -47 88 -69t113 -22q66 0 106.5 28t40.5 82q0 28 -8.5 48t-28 35.5t-50 28.5t-75.5 26q-49 15 -88 32.5t-66.5 41.5t-42 54.5t-14.5 70.5q0 45 17.5 79t47.5 56.5t70.5 33.5t87.5 11q11 0 20.5 -0.5t19.5 -1.5l15 96
l60 -9l-16 -99q74 -22 127 -77l-43 -53q-35 35 -79.5 54t-102.5 19q-63 0 -104.5 -27t-41.5 -80q0 -28 11 -48t32.5 -36t53.5 -28.5t74 -25.5q51 -15 88.5 -33t63 -41.5t38 -54t12.5 -70.5q0 -44 -16.5 -77.5t-46.5 -57t-71 -35.5t-90 -12h-13l-18 -116z" />
    <glyph glyph-name="percent" unicode="%" horiz-adv-x="736" 
d="M330 488q0 -24 -10.5 -43.5t-28 -33.5t-41.5 -22t-51 -8q-28 0 -52 7.5t-42 21.5t-28.5 34t-10.5 44v96q0 23 10.5 42.5t29 33.5t42.5 22t51 8t50.5 -8t41.5 -22t28.5 -33.5t10.5 -42.5v-96zM670 96q0 -48 -37.5 -76.5t-92.5 -28.5q-26 0 -49.5 7.5t-41.5 21t-28.5 32
t-10.5 41.5v103q0 23 10 42.5t28 33.5t41.5 21.5t50.5 7.5q26 0 49.5 -7.5t41.5 -21t28.5 -32.5t10.5 -42v-102zM129 493q0 -24 20.5 -38.5t49.5 -14.5q28 0 48.5 15.5t20.5 37.5v86q0 23 -20.5 37t-48.5 14t-49 -14.5t-21 -37.5v-85zM471 102q0 -23 20.5 -38t48.5 -15
t49 15t21 38v86q0 24 -20.5 38.5t-49.5 14.5q-28 0 -49 -15t-21 -38zM118 0l423 680h75l-421 -680h-77z" />
    <glyph glyph-name="ampersand" unicode="&#x26;" horiz-adv-x="720" 
d="M134 569q0 27 12.5 49.5t34.5 38.5t51.5 25t62.5 9q82 0 127.5 -35.5t45.5 -101.5q0 -29 -10.5 -53.5t-28 -46t-40.5 -42t-48 -39.5l166 -168l107 108l54 -48l-110 -111l122 -122l-55 -48l-117 119q-46 -48 -106 -80.5t-136 -32.5q-98 0 -156 42t-58 128q0 32 14.5 60
t39.5 54t56.5 50.5t66.5 50.5l7 5l-102 104v85zM263 60q57 0 103.5 26.5t90.5 68.5l-172 175l-9 -7l-54 -40.5t-45.5 -39t-31.5 -39.5t-12 -43q0 -20 6 -38t21 -32t40 -22.5t63 -8.5zM207 508l87 -88q19 15 37.5 30t32 31t22 33.5t8.5 37.5q0 72 -99 72q-42 0 -65 -18.5
t-23 -44.5v-53z" />
    <glyph glyph-name="quotesingle" unicode="'" horiz-adv-x="228" 
d="M81 710h66l-6 -229h-55z" />
    <glyph glyph-name="parenleft" unicode="(" horiz-adv-x="341" 
d="M89 439q0 109 40 193t109 125l37 -40q-51 -32 -83 -103t-32 -175v-342q0 -107 32 -174.5t83 -99.5l-37 -42q-69 41 -109 124.5t-40 191.5v342z" />
    <glyph glyph-name="parenright" unicode=")" horiz-adv-x="348" 
d="M248 105q0 -53 -10.5 -102.5t-30 -91.5t-47 -75t-61.5 -53l-36 38q51 33 82.5 105.5t31.5 178.5v328q0 103 -30 176t-81 105l33 43q34 -20 61.5 -53t47 -75t30 -92t10.5 -104v-328z" />
    <glyph glyph-name="asterisk" unicode="*" horiz-adv-x="394" 
d="M325 627l14 -45l-102 -33l64 -86l-40 -29l-64 87l-65 -87l-39 29l64 86l-103 33l14 45l104 -32v106h50v-107z" />
    <glyph glyph-name="plus" unicode="+" horiz-adv-x="578" 
d="M321 415h220v-61h-220v-224h-66v224h-219v61h219v205h66v-205z" />
    <glyph glyph-name="comma" unicode="," horiz-adv-x="197" 
d="M133 79v-26q0 -38 -5 -65.5t-14 -48t-20 -35.5t-23 -28l-44 25q16 23 25.5 49t9.5 72v57h71z" />
    <glyph glyph-name="hyphen" unicode="-" horiz-adv-x="349" 
d="M50 318h248v-68h-248v68z" />
    <glyph glyph-name="period" unicode="." horiz-adv-x="245" 
d="M71 100h102v-100h-102v100z" />
    <glyph glyph-name="slash" unicode="/" horiz-adv-x="391" 
d="M25 -85l270 765h75l-272 -765h-73z" />
    <glyph glyph-name="zero" unicode="0" horiz-adv-x="635" 
d="M317 690q51 0 96 -14.5t78.5 -41.5t53 -67t19.5 -91v-275q0 -51 -19.5 -90.5t-53 -66.5t-78.5 -40.5t-96 -13.5t-96 14t-78.5 40.5t-53 66t-19.5 90.5v275q0 51 19.5 91t53.5 67t78.5 41.5t95.5 14.5zM485 474q0 36 -13.5 63t-36 45t-53.5 27t-65 9q-35 0 -65.5 -9
t-53 -27t-35.5 -45t-13 -63v-271q0 -36 13.5 -62.5t36 -44.5t53 -26.5t64.5 -8.5t65 8.5t53.5 26t36 44.5t13.5 63v271z" />
    <glyph glyph-name="one" unicode="1" horiz-adv-x="294" 
d="M107 608h-76v72h155v-680h-79v608z" />
    <glyph glyph-name="two" unicode="2" horiz-adv-x="552" 
d="M309 293q-44 -23 -75 -46.5t-51 -50t-30 -57.5t-11 -69h361v-70h-443v37q0 54 11 97.5t35 80.5t62 69t93 62q33 18 60.5 35t48 36t31.5 40.5t11 49.5q0 52 -37 77.5t-96 25.5q-54 0 -102 -23t-79 -52l-40 55q43 41 101.5 66t127.5 25q41 0 78 -10t65.5 -31t45 -53
t16.5 -75q0 -40 -14.5 -71t-39.5 -57t-58.5 -48t-70.5 -43z" />
    <glyph glyph-name="three" unicode="3" horiz-adv-x="585" 
d="M511 487q0 -26 -9.5 -47.5t-25.5 -39t-37 -30.5t-44 -20q24 -7 46 -18.5t39 -28.5t27.5 -40t10.5 -51v-56q0 -42 -20 -72.5t-52 -51t-73.5 -30.5t-83.5 -10q-47 0 -88 10t-73 29.5t-52 46.5t-24 62l70 19q3 -24 18 -42t37.5 -30.5t50.5 -18.5t57 -6q27 0 54.5 5.5
t49 17.5t35.5 31t14 45v54q0 26 -12.5 45.5t-33 32.5t-46 19.5t-52.5 6.5h-94v66h92q24 0 49 6t45 18t32.5 30t12.5 42v37q0 27 -11.5 46.5t-31.5 31.5t-46.5 17.5t-56.5 5.5q-24 0 -49.5 -6t-47 -18t-36 -30t-17.5 -42l-68 19q4 34 24.5 61t51 46.5t69 30t78.5 10.5
q46 0 86 -10t70 -30.5t47.5 -51.5t17.5 -74v-37z" />
    <glyph glyph-name="four" unicode="4" horiz-adv-x="581" 
d="M443 229h115v-71h-115v-158h-79v158h-337v65l321 457h95v-451zM364 570h-9l-241 -341h250v341z" />
    <glyph glyph-name="five" unicode="5" horiz-adv-x="582" 
d="M315 413q45 0 82.5 -11.5t64.5 -34t42.5 -55t15.5 -74.5v-70q0 -42 -19 -75t-49.5 -56t-70 -35t-81.5 -12q-47 0 -88 11t-72 33t-50 54t-22 73l75 14q1 -26 13.5 -47t33 -36t48.5 -23t60 -8q27 0 52.5 7t45.5 21t32.5 34t12.5 47v67q0 52 -37 80t-98 28h-205l33 335h350
v-72h-281l-19 -195h131z" />
    <glyph glyph-name="six" unicode="6" horiz-adv-x="580" 
d="M310 433q42 0 80.5 -10.5t67.5 -32.5t46.5 -54.5t17.5 -75.5v-87q0 -46 -19.5 -80t-52 -57t-74 -34.5t-84.5 -11.5q-44 0 -85 11.5t-72.5 35t-51 58t-19.5 81.5v329q0 42 17.5 76t48.5 58.5t73.5 37.5t92.5 13q59 0 107 -16.5t84 -46.5l-36 -58q-30 24 -70 37t-82 13
q-34 0 -62.5 -8t-49.5 -22.5t-32.5 -35.5t-11.5 -48v-144q29 35 73.5 53.5t93.5 18.5zM443 255q0 30 -13 51.5t-34 35.5t-48 20.5t-55 6.5q-29 0 -56 -7.5t-48 -22.5t-33.5 -36t-12.5 -48v-76q0 -32 13 -54.5t34 -36.5t48 -21t54 -7t54 7t48.5 21t35 36.5t13.5 54.5v76z" />
    <glyph glyph-name="seven" unicode="7" horiz-adv-x="470" 
d="M10 680h437v-50l-219 -630h-88l217 605h-347v75z" />
    <glyph glyph-name="eight" unicode="8" horiz-adv-x="609" 
d="M523 490q0 -23 -9 -44t-23.5 -39t-34 -32t-40.5 -22q22 -9 44 -22t39 -30.5t27.5 -40t10.5 -50.5v-50q0 -44 -20 -76t-52.5 -53t-74 -31t-85.5 -10q-45 0 -87 10t-74.5 31t-52 53t-19.5 76v50q0 27 10 49t26.5 40t38.5 31.5t46 22.5q-47 17 -77 54.5t-30 85.5v32
q0 41 18.5 72t49 51.5t70 31t81.5 10.5t81 -10.5t69.5 -31t49 -51.5t18.5 -72v-35zM457 217q0 24 -13 43.5t-33.5 32.5t-46 20t-50.5 7h-18q-26 -1 -51.5 -8t-46 -19.5t-33.5 -31.5t-13 -44v-53q0 -29 13.5 -48.5t35 -31.5t49 -17.5t55.5 -5.5q27 0 54 5t48.5 17t35.5 31.5
t14 48.5v54zM165 484q0 -23 11.5 -41t30 -31t42 -20t47.5 -8h18q24 1 47.5 8t42 19.5t29.5 30.5t11 42v34q0 27 -12 46t-32 31t-45 18t-50 6q-26 0 -51 -6t-45 -18.5t-32 -31.5t-12 -45v-34z" />
    <glyph glyph-name="nine" unicode="9" horiz-adv-x="586" 
d="M293 690q43 0 84 -12t73.5 -35t52 -56t19.5 -74v-346q0 -44 -19.5 -77.5t-52 -55.5t-73.5 -33t-84 -11q-54 0 -110 17t-93 49l31 56q30 -20 71.5 -35.5t100.5 -15.5q30 0 58 6.5t49.5 20.5t35 36t13.5 52v124q-31 -35 -75 -51.5t-90 -16.5q-44 0 -84 11t-70 33t-48 55.5
t-18 77.5v104q0 41 19.5 73.5t51.5 55.5t73 35.5t85 12.5zM442 508q0 26 -13 46.5t-34 34.5t-48 21.5t-54 7.5q-28 0 -55 -7t-48 -21t-34 -34.5t-13 -47.5v-97q0 -29 13 -50t34.5 -34.5t48.5 -20t55 -6.5q27 0 53.5 7t47.5 21.5t34 35t13 47.5v97z" />
    <glyph glyph-name="colon" unicode=":" horiz-adv-x="282" 
d="M95 111h54h45v-111h-99v111zM95 410v110h99v-110h-99z" />
    <glyph glyph-name="semicolon" unicode=";" horiz-adv-x="306" 
d="M217 406h-95v114h95v-114zM208 79v-26q0 -38 -5 -65.5t-14 -48t-20 -35.5t-23 -28l-44 25q16 23 25.5 49t9.5 72v57h71z" />
    <glyph glyph-name="less" unicode="&#x3c;" horiz-adv-x="618" 
d="M532 -8l-471 252l454 267l28 -52l-363 -213l381 -202z" />
    <glyph glyph-name="equal" unicode="=" horiz-adv-x="631" 
d="M55 475h520v-61h-520v61zM55 260h187h333v-62h-520v62z" />
    <glyph glyph-name="greater" unicode="&#x3e;" horiz-adv-x="599" 
d="M543 250l-449 -261l-32 53l359 206l-348 209l34 52z" />
    <glyph glyph-name="question" unicode="?" horiz-adv-x="449" 
d="M213 690q89 0 139 -35.5t50 -109.5v-42q0 -22 -9 -40t-22.5 -33.5t-31 -29t-33.5 -26.5q-35 -25 -56 -49.5t-21 -64.5v-58h-79v71q0 42 24 72t61 55q15 12 30.5 23.5t27.5 23.5t20 25t8 28v37q0 23 -9.5 38.5t-25.5 25t-37 13.5t-43 4q-42 0 -80.5 -15.5t-64.5 -36.5
l-31 57q34 27 81 47t102 20zM136 101h112v-101h-112v101z" />
    <glyph glyph-name="at" unicode="@" horiz-adv-x="816" 
d="M417 696q74 0 136.5 -21t108 -58.5t71 -89.5t25.5 -113q0 -115 -37 -181t-126 -66q-32 0 -61 14t-41 44q-24 -31 -63.5 -51.5t-85.5 -20.5q-33 0 -56.5 8.5t-38 22.5t-21.5 32.5t-7 39.5q0 7 2 23t5.5 36t8 42t9.5 41q8 31 26 58t43.5 46.5t56 31t63.5 11.5
q60 0 94 -26.5t34 -72.5q0 -15 -4 -36.5t-9 -45.5t-9 -47t-4 -39q0 -25 16 -43.5t42 -18.5q56 0 83 48t27 152q0 51 -21 93.5t-59.5 73.5t-91.5 48t-116 17q-62 0 -114 -20t-90.5 -55t-63 -82t-30.5 -100q-5 -35 -8.5 -70t-3.5 -61q0 -47 22.5 -87.5t63.5 -70t97.5 -46.5
t124.5 -17q83 0 160 41l25 -43q-43 -24 -90 -35t-95 -11q-80 0 -146 20t-113.5 56t-74 85t-26.5 106q0 26 3 62.5t8 73.5q9 62 37.5 117t74 96t106.5 65t133 24zM353 205q24 0 46 7.5t39.5 21t29 32.5t15.5 41q7 30 14.5 64.5t7.5 63.5q0 32 -19 45.5t-56 13.5
q-24 0 -46.5 -10t-40 -26.5t-29.5 -38t-16 -44.5q-3 -14 -6 -31t-5.5 -32t-4 -26.5t-1.5 -12.5q0 -34 18.5 -51t53.5 -17z" />
    <glyph glyph-name="A" unicode="A" horiz-adv-x="634" 
d="M362 688l241 -688h-86l-69 205h-260l-71 -205h-87l247 688h85zM429 273l-110 315l-112 -315h222z" />
    <glyph glyph-name="B" unicode="B" horiz-adv-x="621" 
d="M533 484q0 -45 -28 -80.5t-72 -49.5q55 -18 89.5 -56t34.5 -96v-38q0 -41 -15 -72t-41.5 -51.5t-63.5 -30.5t-81 -10h-267v680h244q43 0 80 -11t63.5 -32.5t41.5 -53t15 -73.5v-26zM478 207q0 27 -11 48t-30 34.5t-44.5 20.5t-55.5 7h-168v-250h178q27 0 50.5 5.5
t41.5 18t28.5 32t10.5 47.5v37zM169 381h164q53 0 87.5 25.5t34.5 74.5v26q0 58 -37 81.5t-96 23.5h-153v-231z" />
    <glyph glyph-name="C" unicode="C" horiz-adv-x="577" 
d="M322 618q-37 0 -69 -10.5t-56 -30t-37.5 -48t-13.5 -63.5v-252q0 -77 50 -115t128 -38q53 0 97.5 12t79.5 38l35 -57q-43 -35 -95.5 -49.5t-121.5 -14.5q-55 0 -101.5 14t-80 42t-52.5 69t-19 95v259q0 51 20 91.5t54 69.5t80 44.5t98 15.5q141 0 220 -76l-39 -58
q-31 29 -75.5 45.5t-101.5 16.5z" />
    <glyph glyph-name="D" unicode="D" horiz-adv-x="655" 
d="M316 680q54 0 102 -14.5t84 -43t56.5 -71.5t20.5 -99v-227q0 -57 -21.5 -99.5t-58 -70.5t-85 -41.5t-102.5 -13.5h-223v680h227zM500 448q0 39 -15.5 69t-41 50.5t-58.5 30.5t-69 10h-148v-537h144q38 0 72 9t60 28.5t41 49.5t15 72v218z" />
    <glyph glyph-name="E" unicode="E" horiz-adv-x="554" 
d="M168 312v-241h332v-71h-411v680h387v-72h-308v-226h256v-70h-256z" />
    <glyph glyph-name="F" unicode="F" horiz-adv-x="505" 
d="M474 608h-306v-220h255v-70h-254v-318h-80v680h385v-72z" />
    <glyph glyph-name="G" unicode="G" horiz-adv-x="643" 
d="M328 358h244v-292q-21 -15 -45.5 -29t-54.5 -24.5t-66 -16.5t-80 -6q-55 0 -102.5 16t-82.5 44.5t-55 69t-20 89.5v262q0 52 20.5 92.5t56 68.5t83 43t101.5 15q75 0 131.5 -20.5t93.5 -49.5l-33 -60q-34 25 -80 41.5t-110 16.5q-37 0 -70 -10t-58 -29.5t-40 -47.5
t-15 -64v-254q0 -34 14 -62t38.5 -48t57 -31t70.5 -11q60 0 98.5 12t68.5 31v186h-165v68z" />
    <glyph glyph-name="H" unicode="H" horiz-adv-x="707" 
d="M537 680h79v-680h-79v294h-369v-294h-79v680h79v-315h369v315z" />
    <glyph glyph-name="I" unicode="I" horiz-adv-x="293" 
d="M106 680h79v-680h-79v680z" />
    <glyph glyph-name="J" unicode="J" horiz-adv-x="549" 
d="M380 680h80v-507q0 -44 -15.5 -78t-44 -57t-68 -35t-88.5 -12q-45 0 -84 11.5t-68.5 32.5t-47 51t-19.5 68l78 14q0 -23 11.5 -42.5t30.5 -34t44 -22.5t53 -8q60 0 99 28.5t39 85.5v505z" />
    <glyph glyph-name="K" unicode="K" horiz-adv-x="628" 
d="M576 680l-298 -320l333 -360h-105l-281 305l-57 -59v-246h-79v680h79v-340l307 340h101z" />
    <glyph glyph-name="L" unicode="L" horiz-adv-x="532" 
d="M168 680v-609h351v-71h-430v680h79z" />
    <glyph glyph-name="M" unicode="M" horiz-adv-x="831" 
d="M177 680l238 -408l238 408h88v-680h-80v558l-223 -386h-47l-223 384v-556h-79v680h88z" />
    <glyph glyph-name="N" unicode="N" horiz-adv-x="704" 
d="M539 680h75v-680h-81l-369 560v-560h-75v680h83l367 -559v559z" />
    <glyph glyph-name="O" unicode="O" horiz-adv-x="662" 
d="M338 690q56 0 103 -15.5t81.5 -44t54 -69t19.5 -91.5v-261q0 -53 -19 -93.5t-53 -68.5t-81.5 -42.5t-104.5 -14.5h-16q-56 0 -102.5 14.5t-80 42t-52 68.5t-18.5 94v261q0 51 19 91.5t52.5 69t80 44t100.5 15.5h17zM517 466q0 36 -13.5 64t-37 47.5t-56.5 30t-72 10.5
h-17q-38 0 -69.5 -10.5t-54 -30t-35.5 -47.5t-13 -64v-253q0 -75 47.5 -113.5t125.5 -38.5h16q81 0 130 38.5t49 113.5v253z" />
    <glyph glyph-name="P" unicode="P" horiz-adv-x="608" 
d="M340 680q104 0 162.5 -50.5t58.5 -138.5v-55q0 -44 -15.5 -76.5t-44 -54.5t-69 -33t-90.5 -11h-174v-261h-79v680h251zM481 485q0 56 -37.5 89.5t-106.5 33.5h-169v-279h169q69 0 106.5 27t37.5 87v42z" />
    <glyph glyph-name="Q" unicode="Q" horiz-adv-x="662" 
d="M338 690q56 0 103 -15.5t81.5 -44t54 -69t19.5 -91.5v-261q0 -51 -17.5 -90.5t-49.5 -67.5l70 -79l-46 -36l-73 83q-61 -29 -142 -29h-16q-56 0 -102.5 14.5t-80 42t-52 68.5t-18.5 94v261q0 51 19 91.5t52.5 69t80 44t100.5 15.5h17zM517 466q0 36 -13.5 64t-37 47.5
t-56.5 30t-72 10.5h-17q-38 0 -69.5 -10.5t-54 -30t-35.5 -47.5t-13 -64v-253q0 -75 47.5 -113.5t125.5 -38.5h16q53 0 91 16l-68 77l45 36l72 -81q39 39 39 104v253z" />
    <glyph glyph-name="R" unicode="R" horiz-adv-x="606" 
d="M557 465q0 -67 -37.5 -107t-101.5 -54l158 -304h-87l-146 287h-174v-287h-79v680h264q95 0 149 -46.5t54 -130.5v-38zM169 354h187q25 1 47 8t38.5 20t26 32.5t9.5 45.5v41q0 48 -34.5 77.5t-94.5 29.5h-179v-254z" />
    <glyph glyph-name="S" unicode="S" horiz-adv-x="583" 
d="M324 373q51 -15 88.5 -33t63 -41.5t38 -54t12.5 -70.5q0 -44 -16.5 -77.5t-46 -57t-71 -35.5t-90.5 -12q-75 0 -141.5 28t-106.5 83l46 50q35 -47 88 -69t113 -22q66 0 106.5 28t40.5 82q0 28 -8.5 48t-28 35.5t-50 28.5t-75.5 26q-49 15 -88 32.5t-66.5 41.5t-42 54.5
t-14.5 70.5q0 45 17 79t47 56.5t71 33.5t88 11q72 0 128 -23.5t98 -67.5l-43 -53q-35 35 -79.5 54t-102.5 19q-63 0 -104.5 -27t-41.5 -80q0 -28 11 -48t32.5 -36t53.5 -28.5t74 -25.5z" />
    <glyph glyph-name="T" unicode="T" horiz-adv-x="575" 
d="M19 608v72h537v-72h-231v-608h-80v608h-226z" />
    <glyph glyph-name="U" unicode="U" horiz-adv-x="694" 
d="M527 680h80v-469q0 -55 -20 -96.5t-55.5 -69t-83 -41.5t-101.5 -14t-102 13.5t-83 41t-55.5 69t-20.5 97.5v469h79v-466q0 -39 15 -68t40 -48t58 -28t69 -9t68.5 10t57 29.5t39.5 48t15 65.5v466z" />
    <glyph glyph-name="V" unicode="V" horiz-adv-x="592" 
d="M113 680l180 -574l186 574h86l-231 -680h-82l-226 680h87z" />
    <glyph glyph-name="W" unicode="W" horiz-adv-x="892" 
d="M482 680l162 -576l121 576h83l-154 -680h-92l-157 560l-159 -560h-92l-151 680h83l121 -575l162 575h73z" />
    <glyph glyph-name="X" unicode="X" horiz-adv-x="579" 
d="M138 680l155 -276l160 276h92l-204 -339l204 -341h-93l-159 278l-166 -278h-94l210 341l-196 339h91z" />
    <glyph glyph-name="Y" unicode="Y" horiz-adv-x="591" 
d="M253 266l-217 414h92l166 -333l167 333h93l-221 -414v-266h-80v266z" />
    <glyph glyph-name="Z" unicode="Z" horiz-adv-x="577" 
d="M516 680v-50l-361 -559h369v-71h-472v49l363 559h-351v72h452z" />
    <glyph glyph-name="bracketleft" unicode="[" horiz-adv-x="281" 
d="M236 680v-60h-76v-725h72v-59h-145v844h149z" />
    <glyph glyph-name="backslash" unicode="\" horiz-adv-x="419" 
d="M36 680h74l282 -680h-74z" />
    <glyph glyph-name="bracketright" unicode="]" horiz-adv-x="279" 
d="M201 680v-838h-146v60h73v715h-74v63h147z" />
    <glyph glyph-name="asciicircum" unicode="^" horiz-adv-x="415" 
d="M110 425l-56 13l156 253l150 -253l-54 -13l-97 163z" />
    <glyph glyph-name="underscore" unicode="_" horiz-adv-x="546" 
d="M54 -27h437v-57h-437v57z" />
    <glyph glyph-name="grave" unicode="`" horiz-adv-x="256" 
d="M107 712l97 -147l-44 -29l-112 137z" />
    <glyph glyph-name="a" unicode="a" horiz-adv-x="522" 
d="M274 520q95 0 138.5 -43.5t43.5 -117.5v-359h-66l-7 76q-9 -14 -24 -28.5t-37.5 -26.5t-52 -20t-65.5 -8q-75 0 -116 35t-41 99v19q0 33 16 57t42.5 40.5t60.5 27.5t70.5 17t73 8.5t67.5 3.5v56q0 47 -24.5 71t-87.5 24q-20 0 -43.5 -3.5t-46.5 -9t-42.5 -12.5t-30.5 -13
l-22 59q15 10 38 18.5t49.5 15t54 10.5t52.5 4zM377 245q-42 -2 -86.5 -6t-80.5 -14.5t-59.5 -29.5t-23.5 -49v-11q0 -77 97 -77q32 0 60 8t48.5 21.5t32.5 31t12 35.5v91z" />
    <glyph glyph-name="b" unicode="b" horiz-adv-x="574" 
d="M154 446q27 38 71.5 56t92.5 18q91 0 144.5 -49t53.5 -135v-161q0 -88 -53 -136t-145 -48q-48 0 -93 17.5t-72 58.5l-9 -67h-69v690h79v-244zM153 166q0 -27 12.5 -47.5t33 -34t47 -20t54.5 -6.5q61 0 99 29.5t38 87.5v161q0 54 -38.5 85t-96.5 31q-29 0 -56 -6.5
t-47.5 -20t-33 -34t-12.5 -48.5v-177z" />
    <glyph glyph-name="c" unicode="c" horiz-adv-x="475" 
d="M275 448q-29 0 -54.5 -7.5t-44.5 -22.5t-29.5 -36.5t-10.5 -49.5v-157q0 -29 12 -50.5t31.5 -36t45 -21.5t52.5 -7q39 -1 71 9.5t59 30.5l32 -57q-35 -29 -76 -40.5t-92 -11.5q-44 0 -83.5 11t-68.5 33.5t-46 55.5t-17 78v170q0 42 16 76t44.5 57t67.5 35.5t85 12.5
q56 0 96.5 -16.5t72.5 -46.5l-35 -55q-26 23 -57 34.5t-71 11.5z" />
    <glyph glyph-name="d" unicode="d" horiz-adv-x="574" 
d="M420 690h79v-690h-70l-9 67q-26 -41 -71.5 -58.5t-92.5 -17.5q-92 0 -145 48t-53 136v161q0 86 53.5 135t144.5 49q48 0 92.5 -18t71.5 -56v244zM420 343q0 28 -12 48.5t-32.5 34t-47.5 20t-56 6.5q-58 0 -96.5 -31t-38.5 -85v-161q0 -58 38 -87.5t99 -29.5
q28 0 54.5 6.5t46.5 20t32.5 34t12.5 47.5v177z" />
    <glyph glyph-name="e" unicode="e" horiz-adv-x="524" 
d="M288 62q52 0 92 11t65 28l28 -55q-38 -29 -86.5 -40.5t-102.5 -11.5q-44 0 -85 11t-72.5 33t-51 55t-19.5 77v179q0 37 18 68.5t48.5 54t69.5 35t81 12.5q43 0 81 -12.5t66.5 -35t45.5 -54t17 -68.5v-107h-348v-69q0 -28 12.5 -49t34 -34.5t49 -20.5t57.5 -7zM273 452
q-27 0 -51.5 -8t-43.5 -21.5t-31 -33t-12 -41.5v-46h272v46q0 23 -11 42t-29 33t-42.5 21.5t-51.5 7.5z" />
    <glyph glyph-name="f" unicode="f" horiz-adv-x="315" 
d="M94 572q0 35 13 61.5t35.5 44.5t52 27t63.5 9q27 0 58 -5t54 -14l-14 -61q-20 5 -40.5 8t-45.5 3q-43 0 -70 -19.5t-27 -59.5v-56h123v-59h-123v-451h-79v451h-67v59h67v62z" />
    <glyph glyph-name="g" unicode="g" horiz-adv-x="566" 
d="M289 151q-25 0 -47.5 2.5t-42.5 8.5q-15 -7 -26 -20t-11 -30q0 -25 21.5 -38t46.5 -18l283 -44v-99q0 -36 -17.5 -62t-46 -42.5t-65.5 -24.5t-75 -8h-55q-41 0 -77.5 7t-65 23t-45 40.5t-16.5 60.5q0 45 26.5 73t68.5 40q-26 13 -42 31.5t-16 49.5q0 24 16.5 48t42.5 35
q-35 21 -54 54.5t-19 78.5v33q0 42 16.5 73.5t45 53t67 32t81.5 10.5q68 0 116 -24l127 39l20 -56l-90 -25q17 -20 27 -45.5t10 -55.5v-38q0 -42 -16 -72.5t-44 -51t-65 -30t-79 -9.5zM153 310q0 -47 36.5 -72t97.5 -25q25 0 48 5t40 16.5t27.5 30t10.5 45.5v40
q-2 25 -13 44t-29 31t-41 18t-47 6t-47.5 -6t-42 -18.5t-29.5 -31t-11 -43.5v-40zM310 -159q47 0 82.5 16t40.5 59v47l-210 31q-18 -2 -35 -6.5t-30.5 -14t-22 -24t-8.5 -35.5t11.5 -35t29.5 -22.5t41 -12t47 -3.5h54z" />
    <glyph glyph-name="h" unicode="h" horiz-adv-x="594" 
d="M342 519q88 0 133.5 -46t45.5 -131v-342h-79v339q0 53 -32.5 81t-86.5 28q-30 0 -59.5 -10t-52.5 -27t-37.5 -40t-14.5 -49v-322h-80v690h80v-273q27 47 75 74.5t108 27.5z" />
    <glyph glyph-name="i" unicode="i" 
d="M93 510h80v-510h-80v510zM89 690h86v-74h-86v74z" />
    <glyph glyph-name="j" unicode="j" horiz-adv-x="281" 
d="M111 510h80v-467q0 -55 -12.5 -96t-39 -70.5t-67.5 -49t-98 -31.5l-21 66q43 11 73.5 25t49 35.5t27 52t8.5 75.5v460zM108 690h82v-74h-82v74z" />
    <glyph glyph-name="k" unicode="k" horiz-adv-x="501" 
d="M266 278l233 -278h-95l-200 238h-45v-238h-80v690h80v-380h38l189 200h94z" />
    <glyph glyph-name="l" unicode="l" 
d="M92 690h80v-690h-80v690z" />
    <glyph glyph-name="m" unicode="m" horiz-adv-x="895" 
d="M655 520q81 0 124 -42t43 -119v-359h-79v344q0 48 -27.5 77t-78.5 29q-31 0 -57.5 -8.5t-46.5 -24t-31.5 -37.5t-11.5 -50v-330h-80v351q0 47 -28 73t-79 26q-27 0 -52.5 -10.5t-46 -28t-33 -40t-12.5 -46.5v-325h-80v510h66l4 -86q26 42 70.5 69t98.5 27q57 0 98.5 -22
t56.5 -72q28 45 73.5 69.5t108.5 24.5z" />
    <glyph glyph-name="n" unicode="n" horiz-adv-x="595" 
d="M338 519q89 0 136.5 -45.5t47.5 -130.5v-343h-80v336q0 55 -32 84t-90 29q-28 0 -56.5 -10t-52 -27.5t-38 -40.5t-14.5 -49v-322h-80v510h68l5 -95q32 49 78.5 76.5t107.5 27.5z" />
    <glyph glyph-name="o" unicode="o" horiz-adv-x="555" 
d="M278 519q46 0 86 -12.5t70 -35.5t47 -56t17 -74v-170q0 -42 -18 -75t-48.5 -56t-70.5 -35.5t-83 -12.5q-44 0 -84 12.5t-71 35.5t-49 56t-18 75v170q0 41 18 74t48 56t70.5 35.5t85.5 12.5zM418 337q0 26 -12 46.5t-31.5 35t-44.5 22t-52 7.5t-52.5 -7.5t-46 -22
t-32.5 -35t-12 -46.5v-162q0 -27 12 -48t32 -35.5t45.5 -22t53.5 -7.5q27 0 52 7.5t44.5 22t31.5 35.5t12 48v162z" />
    <glyph glyph-name="p" unicode="p" horiz-adv-x="571" 
d="M150 -206h-79v716h70l9 -69q26 41 71.5 59.5t92.5 18.5q92 0 145 -48.5t53 -136.5v-162q0 -86 -53.5 -134t-144.5 -48q-48 0 -92.5 17t-71.5 55v-268zM150 166q0 -28 12 -48.5t32.5 -34t47.5 -20t56 -6.5q58 0 96.5 31t38.5 86v158q0 59 -38 89t-99 30q-28 0 -54.5 -7
t-46.5 -20.5t-32.5 -34t-12.5 -47.5v-176z" />
    <glyph glyph-name="q" unicode="q" horiz-adv-x="571" 
d="M420 62q-27 -38 -71.5 -55t-92.5 -17q-91 0 -144.5 48t-53.5 134v162q0 88 53 136.5t145 48.5q47 0 92.5 -18t71.5 -58l9 67h70v-716h-79v268zM420 342q0 27 -12.5 47.5t-32.5 34t-46.5 20.5t-54.5 7q-61 0 -99 -29.5t-38 -88.5v-160q0 -55 38.5 -85.5t96.5 -30.5
q29 0 56 6.5t47.5 20t32.5 34t12 48.5v176z" />
    <glyph glyph-name="r" unicode="r" horiz-adv-x="365" 
d="M293 520q32 0 59 -7l-11 -79q-11 2 -27 3.5t-30 1.5q-27 0 -49.5 -12.5t-38.5 -33t-24.5 -46.5t-8.5 -53v-294h-81v510h68l8 -93q7 20 20 38.5t30 33t38.5 23t46.5 8.5z" />
    <glyph glyph-name="s" unicode="s" horiz-adv-x="482" 
d="M265 286q48 -10 80.5 -24t52.5 -32t29.5 -41.5t9.5 -51.5q0 -38 -15 -65.5t-41 -45.5t-60.5 -27t-73.5 -9q-25 0 -52 4t-54 12t-52.5 20.5t-46.5 29.5l33 56q32 -26 79 -40.5t88 -14.5q55 0 87 18t32 60q0 34 -29 53t-100 36q-94 20 -132.5 56t-38.5 94q0 39 15.5 66.5
t41 45t59.5 25.5t70 8q50 0 97.5 -12.5t84.5 -35.5l-30 -57q-31 17 -65.5 27.5t-78.5 10.5q-24 0 -45.5 -4t-37.5 -13t-25 -24.5t-9 -37.5q0 -35 28 -54t99 -33z" />
    <glyph glyph-name="t" unicode="t" horiz-adv-x="392" 
d="M260 67q37 0 61.5 6t37.5 11l18 -63q-19 -8 -50 -16.5t-84 -8.5q-66 0 -103 31.5t-37 100.5v322h-76v60h76v131h79v-131h150v-60h-150v-312q0 -37 20.5 -54t57.5 -17z" />
    <glyph glyph-name="u" unicode="u" horiz-adv-x="588" 
d="M436 510h79v-341q0 -43 -17 -76t-46 -56t-69.5 -35t-86.5 -12q-47 0 -87 12t-69 35t-45.5 56t-16.5 76v341h79v-337q0 -55 39.5 -83.5t99.5 -28.5t100 29t40 83v337z" />
    <glyph glyph-name="v" unicode="v" horiz-adv-x="527" 
d="M263 95l154 415h85l-202 -510h-75l-201 510h85z" />
    <glyph glyph-name="w" unicode="w" horiz-adv-x="740" 
d="M533 96l97 414h79l-137 -510h-76l-125 401l-125 -401h-78l-138 510h80l100 -415l126 415h66z" />
    <glyph glyph-name="x" unicode="x" horiz-adv-x="499" 
d="M121 510l129 -198l127 198h96l-176 -255l182 -255h-94l-136 197l-136 -197h-93l182 255l-172 255h91z" />
    <glyph glyph-name="y" unicode="y" horiz-adv-x="505" 
d="M209 -17l-186 527h85l142 -427l142 427h85l-201 -566q-28 -78 -77.5 -118t-127.5 -40l-7 64q45 0 80.5 25t52.5 76z" />
    <glyph glyph-name="z" unicode="z" horiz-adv-x="490" 
d="M423 510v-43l-279 -400h297v-67h-393v49l280 397h-274v64h369z" />
    <glyph glyph-name="braceleft" unicode="{" horiz-adv-x="309" 
d="M265 698q-55 -32 -81.5 -76.5t-18.5 -101.5l23 -178l-38 -46l39 -40l-24 -205q-7 -58 21 -103.5t82 -76.5l-32 -46q-160 83 -141 229l24 192l-45 47l46 56l-25 169q-11 77 28 133t112 91z" />
    <glyph glyph-name="bar" unicode="|" horiz-adv-x="235" 
d="M83 680h68v-827h-68v827z" />
    <glyph glyph-name="braceright" unicode="}" horiz-adv-x="316" 
d="M103 741q76 -38 115.5 -94.5t28.5 -128.5l-26 -169l47 -56l-47 -47l26 -192q9 -66 -26 -125t-120 -102l-30 44q59 37 87.5 81.5t21.5 98.5l-25 205l38 40l-37 45l24 179q7 48 -18.5 93t-86.5 85z" />
    <glyph glyph-name="asciitilde" unicode="~" horiz-adv-x="402" 
d="M138 628q-19 0 -30.5 -12t-18.5 -23l-38 30q18 30 38.5 46.5t49.5 16.5q18 0 34.5 -7t33 -15.5t32.5 -16t32 -7.5q17 2 26 11t16 22l41 -27q-5 -9 -12.5 -20.5t-17.5 -21t-23 -16t-28 -6.5q-21 0 -38.5 7t-33 16t-31 16t-32.5 7z" />
    <glyph glyph-name="Adieresis" unicode="&#xc4;" horiz-adv-x="634" 
d="M362 688l241 -688h-86l-69 205h-260l-71 -205h-87l247 688h85zM429 273l-110 315l-112 -315h222zM266 751h-74v78h74v-78zM441 751h-74v78h74v-78z" />
    <glyph glyph-name="Aring" unicode="&#xc5;" horiz-adv-x="634" 
d="M362 688l241 -688h-86l-69 205h-260l-71 -205h-87l247 688h85zM429 273l-110 315l-112 -315h222zM315 733q-16 0 -30 6t-24.5 16.5t-17 25t-6.5 30.5q0 33 23 55t55 22t56 -22t24 -55q0 -32 -24 -55t-56 -23zM275 809q0 -17 12 -28.5t29 -11.5t29 11.5t12 28.5t-12 29.5
t-29 12.5t-29 -12.5t-12 -29.5z" />
    <glyph glyph-name="Ccedilla" unicode="&#xc7;" horiz-adv-x="577" 
d="M322 618q-37 0 -69 -10.5t-56 -30t-37.5 -48t-13.5 -63.5v-252q0 -77 50 -115t128 -38q53 0 97.5 12t79.5 38l35 -57q-42 -35 -92.5 -49t-116.5 -15l-12 -42q3 -1 14.5 -6.5t24 -16t22.5 -28t10 -42.5q0 -39 -30.5 -65.5t-78.5 -40.5l-20 39q8 3 20 8.5t23.5 13t19.5 18
t8 22.5q0 19 -9 31t-21 19.5t-24.5 11t-18.5 5.5l18 76q-46 5 -84 21.5t-65.5 44t-42.5 65.5t-15 86v259q0 51 20 91.5t54 69.5t80 44.5t98 15.5q141 0 220 -76l-39 -58q-31 29 -75.5 45.5t-101.5 16.5z" />
    <glyph glyph-name="Eacute" unicode="&#xc9;" horiz-adv-x="556" 
d="M168 312v-241h332v-71h-411v680h387v-72h-308v-226h256v-70h-256zM350 895l55 -36l-110 -132l-46 25z" />
    <glyph glyph-name="Ntilde" unicode="&#xd1;" horiz-adv-x="704" 
d="M534 680h75v-680h-81l-369 560v-560h-75v680h83l367 -559v559zM287 769q-19 0 -30.5 -12t-18.5 -23l-38 30q18 30 38.5 46.5t49.5 16.5q18 0 34.5 -7t33 -15.5t32.5 -16t32 -7.5q17 2 26 11t16 22l41 -27q-5 -9 -12.5 -20.5t-17.5 -21t-23 -16t-28 -6.5q-21 0 -38.5 7
t-33 16t-31 16t-32.5 7z" />
    <glyph glyph-name="Odieresis" unicode="&#xd6;" horiz-adv-x="662" 
d="M338 690q56 0 103 -15.5t81.5 -44t54 -69t19.5 -91.5v-261q0 -53 -19 -93.5t-53 -68.5t-81.5 -42.5t-104.5 -14.5h-16q-56 0 -102.5 14.5t-80 42t-52 68.5t-18.5 94v261q0 51 19 91.5t52.5 69t80 44t100.5 15.5h17zM517 466q0 36 -13.5 64t-37 47.5t-56.5 30t-72 10.5
h-17q-38 0 -69.5 -10.5t-54 -30t-35.5 -47.5t-13 -64v-253q0 -75 47.5 -113.5t125.5 -38.5h16q81 0 130 38.5t49 113.5v253zM277 753h-74v78h74v-78zM452 753h-74v78h74v-78z" />
    <glyph glyph-name="Udieresis" unicode="&#xdc;" horiz-adv-x="694" 
d="M527 680h80v-469q0 -55 -20 -96.5t-55.5 -69t-83 -41.5t-101.5 -14t-102 13.5t-83 41t-55.5 69t-20.5 97.5v469h79v-466q0 -39 15 -68t40 -48t58 -28t69 -9t68.5 10t57 29.5t39.5 48t15 65.5v466zM296 743h-74v78h74v-78zM471 743h-74v78h74v-78z" />
    <glyph glyph-name="aacute" unicode="&#xe1;" horiz-adv-x="522" 
d="M274 520q95 0 138.5 -43.5t43.5 -117.5v-359h-66l-7 76q-9 -14 -24 -28.5t-37.5 -26.5t-52 -20t-65.5 -8q-75 0 -116 35t-41 99v19q0 33 16 57t42.5 40.5t60.5 27.5t70.5 17t73 8.5t67.5 3.5v56q0 47 -24.5 71t-87.5 24q-20 0 -43.5 -3.5t-46.5 -9t-42.5 -12.5t-30.5 -13
l-22 59q15 10 38 18.5t49.5 15t54 10.5t52.5 4zM377 245q-42 -2 -86.5 -6t-80.5 -14.5t-59.5 -29.5t-23.5 -49v-11q0 -77 97 -77q32 0 60 8t48.5 21.5t32.5 31t12 35.5v91zM319 748l55 -36l-110 -132l-46 25z" />
    <glyph glyph-name="agrave" unicode="&#xe0;" horiz-adv-x="522" 
d="M274 520q95 0 138.5 -43.5t43.5 -117.5v-359h-66l-7 76q-9 -14 -24 -28.5t-37.5 -26.5t-52 -20t-65.5 -8q-75 0 -116 35t-41 99v19q0 33 16 57t42.5 40.5t60.5 27.5t70.5 17t73 8.5t67.5 3.5v56q0 47 -24.5 71t-87.5 24q-20 0 -43.5 -3.5t-46.5 -9t-42.5 -12.5t-30.5 -13
l-22 59q15 10 38 18.5t49.5 15t54 10.5t52.5 4zM377 245q-42 -2 -86.5 -6t-80.5 -14.5t-59.5 -29.5t-23.5 -49v-11q0 -77 97 -77q32 0 60 8t48.5 21.5t32.5 31t12 35.5v91zM202 758l97 -147l-44 -29l-112 137z" />
    <glyph glyph-name="acircumflex" unicode="&#xe2;" horiz-adv-x="522" 
d="M274 520q95 0 138.5 -43.5t43.5 -117.5v-359h-66l-7 76q-9 -14 -24 -28.5t-37.5 -26.5t-52 -20t-65.5 -8q-75 0 -116 35t-41 99v19q0 33 16 57t42.5 40.5t60.5 27.5t70.5 17t73 8.5t67.5 3.5v56q0 47 -24.5 71t-87.5 24q-20 0 -43.5 -3.5t-46.5 -9t-42.5 -12.5t-30.5 -13
l-22 59q15 10 38 18.5t49.5 15t54 10.5t52.5 4zM377 245q-42 -2 -86.5 -6t-80.5 -14.5t-59.5 -29.5t-23.5 -49v-11q0 -77 97 -77q32 0 60 8t48.5 21.5t32.5 31t12 35.5v91zM256 701l127 -87l-30 -37l-97 61l-98 -60l-28 37z" />
    <glyph glyph-name="adieresis" unicode="&#xe4;" horiz-adv-x="522" 
d="M274 520q95 0 138.5 -43.5t43.5 -117.5v-359h-66l-7 76q-9 -14 -24 -28.5t-37.5 -26.5t-52 -20t-65.5 -8q-75 0 -116 35t-41 99v19q0 33 16 57t42.5 40.5t60.5 27.5t70.5 17t73 8.5t67.5 3.5v56q0 47 -24.5 71t-87.5 24q-20 0 -43.5 -3.5t-46.5 -9t-42.5 -12.5t-30.5 -13
l-22 59q15 10 38 18.5t49.5 15t54 10.5t52.5 4zM377 245q-42 -2 -86.5 -6t-80.5 -14.5t-59.5 -29.5t-23.5 -49v-11q0 -77 97 -77q32 0 60 8t48.5 21.5t32.5 31t12 35.5v91zM207 596h-74v78h74v-78zM382 596h-74v78h74v-78z" />
    <glyph glyph-name="atilde" unicode="&#xe3;" horiz-adv-x="522" 
d="M274 520q95 0 138.5 -43.5t43.5 -117.5v-359h-66l-7 76q-9 -14 -24 -28.5t-37.5 -26.5t-52 -20t-65.5 -8q-75 0 -116 35t-41 99v19q0 33 16 57t42.5 40.5t60.5 27.5t70.5 17t73 8.5t67.5 3.5v56q0 47 -24.5 71t-87.5 24q-20 0 -43.5 -3.5t-46.5 -9t-42.5 -12.5t-30.5 -13
l-22 59q15 10 38 18.5t49.5 15t54 10.5t52.5 4zM377 245q-42 -2 -86.5 -6t-80.5 -14.5t-59.5 -29.5t-23.5 -49v-11q0 -77 97 -77q32 0 60 8t48.5 21.5t32.5 31t12 35.5v91zM192 623q-19 0 -30.5 -12t-18.5 -23l-38 30q18 30 38.5 46.5t49.5 16.5q18 0 34.5 -7t33 -15.5
t32.5 -16t32 -7.5q17 2 26 11t16 22l41 -27q-5 -9 -12.5 -20.5t-17.5 -21t-23 -16t-28 -6.5q-21 0 -38.5 7t-33 16t-31 16t-32.5 7z" />
    <glyph glyph-name="aring" unicode="&#xe5;" horiz-adv-x="522" 
d="M274 520q95 0 138.5 -43.5t43.5 -117.5v-359h-66l-7 76q-9 -14 -24 -28.5t-37.5 -26.5t-52 -20t-65.5 -8q-75 0 -116 35t-41 99v19q0 33 16 57t42.5 40.5t60.5 27.5t70.5 17t73 8.5t67.5 3.5v56q0 47 -24.5 71t-87.5 24q-20 0 -43.5 -3.5t-46.5 -9t-42.5 -12.5t-30.5 -13
l-22 59q15 10 38 18.5t49.5 15t54 10.5t52.5 4zM377 245q-42 -2 -86.5 -6t-80.5 -14.5t-59.5 -29.5t-23.5 -49v-11q0 -77 97 -77q32 0 60 8t48.5 21.5t32.5 31t12 35.5v91zM256 578q-16 0 -30 6t-24.5 16.5t-17 25t-6.5 30.5q0 33 23 55t55 22t56 -22t24 -55q0 -32 -24 -55
t-56 -23zM216 654q0 -17 12 -28.5t29 -11.5t29 11.5t12 28.5t-12 29.5t-29 12.5t-29 -12.5t-12 -29.5z" />
    <glyph glyph-name="ccedilla" unicode="&#xe7;" horiz-adv-x="475" 
d="M275 448q-29 0 -54.5 -7.5t-44.5 -22.5t-29.5 -36.5t-10.5 -49.5v-157q0 -29 12 -50.5t31.5 -36t45 -21.5t52.5 -7q39 -1 71 9.5t59 30.5l32 -57q-34 -29 -74 -40t-91 -12l-12 -43q3 -1 14.5 -6.5t24 -16t22.5 -28t10 -42.5q0 -39 -30.5 -65.5t-78.5 -40.5l-20 39
q8 3 20 8.5t23.5 13t19.5 18t8 22.5q0 19 -9 31t-21 19.5t-24.5 11t-18.5 5.5l19 78q-35 5 -65.5 18.5t-52.5 35.5t-34.5 52t-12.5 68v170q0 42 16 76t44.5 57t67.5 35.5t85 12.5q56 0 96.5 -16.5t72.5 -46.5l-35 -55q-26 23 -57 34.5t-71 11.5z" />
    <glyph glyph-name="eacute" unicode="&#xe9;" horiz-adv-x="534" 
d="M288 62q52 0 92 11t65 28l28 -55q-38 -29 -86.5 -40.5t-102.5 -11.5q-44 0 -85 11t-72.5 33t-51 55t-19.5 77v179q0 37 18 68.5t48.5 54t69.5 35t81 12.5q43 0 81 -12.5t66.5 -35t45.5 -54t17 -68.5v-107h-348v-69q0 -28 12.5 -49t34 -34.5t49 -20.5t57.5 -7zM273 452
q-27 0 -51.5 -8t-43.5 -21.5t-31 -33t-12 -41.5v-46h272v46q0 23 -11 42t-29 33t-42.5 21.5t-51.5 7.5zM328 749l55 -36l-110 -132l-46 25z" />
    <glyph glyph-name="egrave" unicode="&#xe8;" horiz-adv-x="534" 
d="M288 62q52 0 92 11t65 28l28 -55q-38 -29 -86.5 -40.5t-102.5 -11.5q-44 0 -85 11t-72.5 33t-51 55t-19.5 77v179q0 37 18 68.5t48.5 54t69.5 35t81 12.5q43 0 81 -12.5t66.5 -35t45.5 -54t17 -68.5v-107h-348v-69q0 -28 12.5 -49t34 -34.5t49 -20.5t57.5 -7zM273 452
q-27 0 -51.5 -8t-43.5 -21.5t-31 -33t-12 -41.5v-46h272v46q0 23 -11 42t-29 33t-42.5 21.5t-51.5 7.5zM211 758l97 -147l-44 -29l-112 137z" />
    <glyph glyph-name="ecircumflex" unicode="&#xea;" horiz-adv-x="534" 
d="M288 62q52 0 92 11t65 28l28 -55q-38 -29 -86.5 -40.5t-102.5 -11.5q-44 0 -85 11t-72.5 33t-51 55t-19.5 77v179q0 37 18 68.5t48.5 54t69.5 35t81 12.5q43 0 81 -12.5t66.5 -35t45.5 -54t17 -68.5v-107h-348v-69q0 -28 12.5 -49t34 -34.5t49 -20.5t57.5 -7zM273 452
q-27 0 -51.5 -8t-43.5 -21.5t-31 -33t-12 -41.5v-46h272v46q0 23 -11 42t-29 33t-42.5 21.5t-51.5 7.5zM265 702l127 -87l-30 -37l-97 61l-98 -60l-28 37z" />
    <glyph glyph-name="edieresis" unicode="&#xeb;" horiz-adv-x="534" 
d="M288 62q52 0 92 11t65 28l28 -55q-38 -29 -86.5 -40.5t-102.5 -11.5q-44 0 -85 11t-72.5 33t-51 55t-19.5 77v179q0 37 18 68.5t48.5 54t69.5 35t81 12.5q43 0 81 -12.5t66.5 -35t45.5 -54t17 -68.5v-107h-348v-69q0 -28 12.5 -49t34 -34.5t49 -20.5t57.5 -7zM273 452
q-27 0 -51.5 -8t-43.5 -21.5t-31 -33t-12 -41.5v-46h272v46q0 23 -11 42t-29 33t-42.5 21.5t-51.5 7.5zM215 597h-74v78h74v-78zM390 597h-74v78h74v-78z" />
    <glyph glyph-name="iacute" unicode="&#xed;" 
d="M193 742l55 -36l-110 -132l-46 25zM92 513h80v-513h-80v513z" />
    <glyph glyph-name="igrave" unicode="&#xec;" 
d="M78 751l97 -147l-44 -29l-112 137zM92 513h80v-513h-80v513z" />
    <glyph glyph-name="icircumflex" unicode="&#xee;" 
d="M92 513h80v-513h-80v513zM132 695l127 -87l-30 -37l-97 61l-98 -60l-28 37z" />
    <glyph glyph-name="idieresis" unicode="&#xef;" 
d="M82 590h-74v78h74v-78zM257 590h-74v78h74v-78zM92 513h80v-513h-80v513z" />
    <glyph glyph-name="ntilde" unicode="&#xf1;" horiz-adv-x="595" 
d="M338 519q89 0 136.5 -45.5t47.5 -130.5v-343h-80v336q0 55 -32 84t-90 29q-28 0 -56.5 -10t-52 -27.5t-38 -40.5t-14.5 -49v-322h-80v510h68l5 -95q32 49 78.5 76.5t107.5 27.5zM232 624q-19 0 -30.5 -12t-18.5 -23l-38 30q18 30 38.5 46.5t49.5 16.5q18 0 34.5 -7
t33 -15.5t32.5 -16t32 -7.5q17 2 26 11t16 22l41 -27q-5 -9 -12.5 -20.5t-17.5 -21t-23 -16t-28 -6.5q-21 0 -38.5 7t-33 16t-31 16t-32.5 7z" />
    <glyph glyph-name="oacute" unicode="&#xf3;" horiz-adv-x="555" 
d="M278 519q46 0 86 -12.5t70 -35.5t47 -56t17 -74v-170q0 -42 -18 -75t-48.5 -56t-70.5 -35.5t-83 -12.5q-44 0 -84 12.5t-71 35.5t-49 56t-18 75v170q0 41 18 74t48 56t70.5 35.5t85.5 12.5zM418 337q0 26 -12 46.5t-31.5 35t-44.5 22t-52 7.5t-52.5 -7.5t-46 -22
t-32.5 -35t-12 -46.5v-162q0 -27 12 -48t32 -35.5t45.5 -22t53.5 -7.5q27 0 52 7.5t44.5 22t31.5 35.5t12 48v162zM335 749l55 -36l-110 -132l-46 25z" />
    <glyph glyph-name="ograve" unicode="&#xf2;" horiz-adv-x="555" 
d="M278 519q46 0 86 -12.5t70 -35.5t47 -56t17 -74v-170q0 -42 -18 -75t-48.5 -56t-70.5 -35.5t-83 -12.5q-44 0 -84 12.5t-71 35.5t-49 56t-18 75v170q0 41 18 74t48 56t70.5 35.5t85.5 12.5zM418 337q0 26 -12 46.5t-31.5 35t-44.5 22t-52 7.5t-52.5 -7.5t-46 -22
t-32.5 -35t-12 -46.5v-162q0 -27 12 -48t32 -35.5t45.5 -22t53.5 -7.5q27 0 52 7.5t44.5 22t31.5 35.5t12 48v162zM218 758l97 -147l-44 -29l-112 137z" />
    <glyph glyph-name="ocircumflex" unicode="&#xf4;" horiz-adv-x="555" 
d="M278 519q46 0 86 -12.5t70 -35.5t47 -56t17 -74v-170q0 -42 -18 -75t-48.5 -56t-70.5 -35.5t-83 -12.5q-44 0 -84 12.5t-71 35.5t-49 56t-18 75v170q0 41 18 74t48 56t70.5 35.5t85.5 12.5zM418 337q0 26 -12 46.5t-31.5 35t-44.5 22t-52 7.5t-52.5 -7.5t-46 -22
t-32.5 -35t-12 -46.5v-162q0 -27 12 -48t32 -35.5t45.5 -22t53.5 -7.5q27 0 52 7.5t44.5 22t31.5 35.5t12 48v162zM272 702l127 -87l-30 -37l-97 61l-98 -60l-28 37z" />
    <glyph glyph-name="odieresis" unicode="&#xf6;" horiz-adv-x="555" 
d="M278 519q46 0 86 -12.5t70 -35.5t47 -56t17 -74v-170q0 -42 -18 -75t-48.5 -56t-70.5 -35.5t-83 -12.5q-44 0 -84 12.5t-71 35.5t-49 56t-18 75v170q0 41 18 74t48 56t70.5 35.5t85.5 12.5zM418 337q0 26 -12 46.5t-31.5 35t-44.5 22t-52 7.5t-52.5 -7.5t-46 -22
t-32.5 -35t-12 -46.5v-162q0 -27 12 -48t32 -35.5t45.5 -22t53.5 -7.5q27 0 52 7.5t44.5 22t31.5 35.5t12 48v162zM223 597h-74v78h74v-78zM398 597h-74v78h74v-78z" />
    <glyph glyph-name="otilde" unicode="&#xf5;" horiz-adv-x="555" 
d="M278 519q46 0 86 -12.5t70 -35.5t47 -56t17 -74v-170q0 -42 -18 -75t-48.5 -56t-70.5 -35.5t-83 -12.5q-44 0 -84 12.5t-71 35.5t-49 56t-18 75v170q0 41 18 74t48 56t70.5 35.5t85.5 12.5zM418 337q0 26 -12 46.5t-31.5 35t-44.5 22t-52 7.5t-52.5 -7.5t-46 -22
t-32.5 -35t-12 -46.5v-162q0 -27 12 -48t32 -35.5t45.5 -22t53.5 -7.5q27 0 52 7.5t44.5 22t31.5 35.5t12 48v162zM208 624q-19 0 -30.5 -12t-18.5 -23l-38 30q18 30 38.5 46.5t49.5 16.5q18 0 34.5 -7t33 -15.5t32.5 -16t32 -7.5q17 2 26 11t16 22l41 -27
q-5 -9 -12.5 -20.5t-17.5 -21t-23 -16t-28 -6.5q-21 0 -38.5 7t-33 16t-31 16t-32.5 7z" />
    <glyph glyph-name="uacute" unicode="&#xfa;" horiz-adv-x="588" 
d="M436 510h79v-341q0 -43 -17 -76t-46 -56t-69.5 -35t-86.5 -12q-47 0 -87 12t-69 35t-45.5 56t-16.5 76v341h79v-337q0 -55 39.5 -83.5t99.5 -28.5t100 29t40 83v337zM355 739l55 -36l-110 -132l-46 25z" />
    <glyph glyph-name="ugrave" unicode="&#xf9;" horiz-adv-x="588" 
d="M436 510h79v-341q0 -43 -17 -76t-46 -56t-69.5 -35t-86.5 -12q-47 0 -87 12t-69 35t-45.5 56t-16.5 76v341h79v-337q0 -55 39.5 -83.5t99.5 -28.5t100 29t40 83v337zM238 748l97 -147l-44 -29l-112 137z" />
    <glyph glyph-name="ucircumflex" unicode="&#xfb;" horiz-adv-x="588" 
d="M436 510h79v-341q0 -43 -17 -76t-46 -56t-69.5 -35t-86.5 -12q-47 0 -87 12t-69 35t-45.5 56t-16.5 76v341h79v-337q0 -55 39.5 -83.5t99.5 -28.5t100 29t40 83v337zM292 693l127 -87l-30 -37l-97 61l-98 -60l-28 37z" />
    <glyph glyph-name="udieresis" unicode="&#xfc;" horiz-adv-x="588" 
d="M436 510h79v-341q0 -43 -17 -76t-46 -56t-69.5 -35t-86.5 -12q-47 0 -87 12t-69 35t-45.5 56t-16.5 76v341h79v-337q0 -55 39.5 -83.5t99.5 -28.5t100 29t40 83v337zM242 587h-74v78h74v-78zM417 587h-74v78h74v-78z" />
    <glyph glyph-name="dagger" unicode="&#x2020;" horiz-adv-x="522" 
d="M297 490h168v-58h-168v-431h-67v431h-170v58h170v190h67v-190z" />
    <glyph glyph-name="degree" unicode="&#xb0;" horiz-adv-x="380" 
d="M189 690q27 -1 52 -9t43.5 -22.5t29.5 -35t11 -44.5v-27q0 -24 -11 -44.5t-29.5 -34.5t-43 -22t-52.5 -8t-52.5 8t-43 22t-29 34.5t-10.5 44.5v27q0 24 10.5 44.5t29 35t43 22.5t52.5 9zM268 583q0 24 -23.5 40t-55.5 16t-55.5 -16t-23.5 -40v-35q1 -25 24 -40t55 -15
t55.5 15.5t23.5 39.5v35z" />
    <glyph glyph-name="cent" unicode="&#xa2;" horiz-adv-x="471" 
d="M277 448q-29 0 -54.5 -7.5t-44.5 -22.5t-29.5 -36.5t-10.5 -49.5v-157q0 -29 12 -50.5t31.5 -36t45 -21.5t52.5 -7q39 -1 71 9.5t59 30.5l32 -57q-35 -29 -76 -40.5t-92 -11.5q-6 0 -12 0.5t-11 0.5l-21 -125l-58 9l21 125q-59 17 -96.5 58t-37.5 110v170q0 42 16 76
t44.5 57t67.5 35.5t85 12.5l20 129l59 -9l-21 -126q34 -7 61 -21.5t50 -35.5l-35 -55q-26 23 -57 34.5t-71 11.5z" />
    <glyph glyph-name="sterling" unicode="&#xa3;" horiz-adv-x="572" 
d="M287 214q1 -43 -6.5 -79t-44.5 -64h285v-71h-454v52q45 1 72.5 13t43 32t20.5 48t4 61l-9 89h-134v61h128l-10 114q-3 54 18 94.5t60 67.5t93.5 41t118.5 14v-71q-48 0 -88 -8.5t-68 -26.5t-42.5 -45t-11.5 -64l11 -116h199v-61h-192q2 -33 4.5 -55.5t2.5 -25.5z" />
    <glyph glyph-name="section" unicode="&#xa7;" horiz-adv-x="565" 
d="M348 363q33 -15 64 -32t54.5 -38.5t37.5 -49t14 -63.5q0 -18 -4 -38t-13.5 -38t-26 -33t-41.5 -25q34 -42 34 -99q0 -41 -15 -72.5t-41.5 -53.5t-61.5 -33.5t-75 -11.5q-65 0 -117.5 27.5t-77.5 74.5l46 34q8 -17 23 -31t35 -24.5t43 -16.5t46 -6q26 0 49.5 6.5t41 20
t28 34t10.5 48.5q0 33 -19 59t-48.5 47.5t-65 38t-68.5 30.5q-29 12 -55.5 26.5t-47 35t-33 48t-12.5 66.5q0 21 7.5 41.5t19.5 37t27.5 28t31.5 15.5q-17 23 -24 50.5t-7 53.5q0 41 14.5 72.5t40.5 53t61.5 32.5t76.5 11q65 0 112.5 -24.5t73.5 -68.5l-42 -36
q-20 32 -57.5 51.5t-85.5 19.5q-26 0 -49.5 -8t-41 -22.5t-27.5 -35t-10 -45.5q0 -33 17 -57t42.5 -42t56.5 -32t59 -26zM455 170q0 25 -9 43.5t-27 34t-44.5 29.5t-61.5 29t-66 30.5t-60 37.5q-15 -2 -27.5 -9t-21.5 -18t-14.5 -24.5t-5.5 -27.5q0 -26 9.5 -44.5t27 -33.5
t42.5 -27t56 -25q34 -14 69 -31.5t64 -39.5q14 1 26.5 8.5t22 18.5t15 24t5.5 25z" />
    <glyph glyph-name="bullet" unicode="&#x2022;" horiz-adv-x="343" 
d="M81 352h181v-178h-181v178z" />
    <glyph glyph-name="paragraph" unicode="&#xb6;" horiz-adv-x="524" 
d="M433 680v-680h-52v635h-85v-635h-53v374h-35q-68 0 -111 35t-43 99v31q0 59 40.5 99t113.5 42h225z" />
    <glyph glyph-name="registered" unicode="&#xae;" horiz-adv-x="809" 
d="M54 348q0 74 27 138t74 111.5t111.5 74.5t138.5 27q73 0 137 -27t111.5 -74.5t74.5 -111.5t27 -138t-27 -137.5t-74.5 -110t-111.5 -73.5t-137 -27q-74 0 -138.5 26.5t-111.5 73.5t-74 110.5t-27 137.5zM103 348q0 -63 23.5 -118t64.5 -95.5t96 -64t119 -23.5
q63 0 118 23.5t95.5 64t63.5 95.5t23 118t-23.5 118.5t-64 96t-95.5 64t-118 23.5q-64 0 -119 -23.5t-95.5 -64t-64 -96t-23.5 -118.5zM552 414q0 -38 -24 -64t-63 -34l99 -160h-65l-96 155h-72v-155h-55v383h162q24 0 45 -8.5t36 -23.5t24 -35t9 -42v-16zM331 357h100
q25 0 46.5 14.5t21.5 40.5v16q-1 26 -20.5 44t-47.5 18h-100v-133z" />
    <glyph glyph-name="copyright" unicode="&#xa9;" horiz-adv-x="809" 
d="M54 348q0 73 27.5 137t74.5 111.5t111 75t138 27.5q73 0 136.5 -27.5t111 -75t75 -111.5t27.5 -137t-27.5 -136.5t-75 -110.5t-111 -74t-136.5 -27q-74 0 -138 27t-111 74t-74.5 110.5t-27.5 136.5zM103 348q0 -63 23.5 -117.5t65 -95.5t96.5 -64.5t118 -23.5t117.5 23.5
t95 64.5t64 95.5t23.5 117.5t-23.5 118t-64 96t-95.5 64.5t-118 23.5t-118 -23.5t-96 -64.5t-64.5 -96t-23.5 -118zM410 472q-26 0 -48.5 -8.5t-39.5 -23.5t-27 -34.5t-10 -41.5v-47q0 -24 10.5 -43.5t28 -34t40.5 -22.5t49 -8q32 0 65 11.5t55 32.5l30 -44
q-27 -28 -68.5 -42t-82.5 -14q-40 0 -74 12.5t-59.5 34t-40 51.5t-14.5 66v47q0 34 15 63.5t40.5 52t59 35.5t71.5 13q48 0 85 -15.5t66 -50.5l-33 -41q-20 23 -53 37t-65 14z" />
    <glyph glyph-name="trademark" unicode="&#x2122;" horiz-adv-x="558" 
d="M315 700l59 -100l61 100h45v-210h-44v138l-52 -85h-21l-49 87v-140h-44v210h45zM43 700h185v-42h-70v-170h-44v170h-71v42z" />
    <glyph glyph-name="acute" unicode="&#xb4;" horiz-adv-x="256" 
d="M152 707l55 -36l-110 -132l-46 25z" />
    <glyph glyph-name="dieresis" unicode="&#xa8;" horiz-adv-x="360" 
d="M129 581h-74v78h74v-78zM304 581h-74v78h74v-78z" />
    <glyph glyph-name="notequal" unicode="&#x2260;" horiz-adv-x="687" 
d="M467 442h165v-56h-197l-88 -143h285v-55h-317l-82 -136l-44 24l69 112h-204v55h236l88 143h-324v56h357l72 119l42 -24z" />
    <glyph glyph-name="AE" unicode="&#xc6;" horiz-adv-x="876" 
d="M545 317v-246h288v-71h-368v186h-243l-115 -186h-93l420 680h375v-72h-264v-223h219v-68h-219zM465 254v345l-208 -345h208z" />
    <glyph glyph-name="Oslash" unicode="&#xd8;" horiz-adv-x="662" 
d="M338 690q31 0 58.5 -5t53.5 -14l40 90h55l-50 -111q47 -29 74 -74.5t27 -105.5v-261q0 -53 -19 -93.5t-53 -68.5t-81.5 -42.5t-104.5 -14.5h-16q-62 0 -113 17l-36 -81h-58l47 104q-45 27 -69 72t-24 107v261q0 51 19 91.5t52.5 69t80 44t100.5 15.5h17zM517 466
q0 36 -14 64.5t-39 48.5l-225 -504q37 -14 83 -14h16q81 0 130 38.5t49 113.5v253zM149 213q0 -72 45 -112l225 503q-37 14 -81 14h-17q-38 0 -69.5 -10.5t-54 -30t-35.5 -47.5t-13 -64v-253z" />
    <glyph glyph-name="plusminus" unicode="&#xb1;" horiz-adv-x="551" 
d="M301 364h183v-58h-183v-181h-63v181h-178v58h178v169h63v-169zM54 55h442v-55h-442v55z" />
    <glyph glyph-name="lessequal" unicode="&#x2264;" horiz-adv-x="624" 
d="M551 106l-497 204l497 206v-58l-352 -148l352 -146v-58zM67 52h484v-52h-484v52z" />
    <glyph glyph-name="greaterequal" unicode="&#x2265;" horiz-adv-x="617" 
d="M551 0h-497v52h497v-52zM556 311l-502 -207v58l364 149l-364 151v61z" />
    <glyph glyph-name="yen" unicode="&#xa5;" horiz-adv-x="581" 
d="M253 201v65l-8 14h-193v47h169l-185 353h92l166 -333l167 333h93l-189 -353h160v-47h-185l-7 -14v-65h191v-46h-191v-155h-80v155h-201v46h201z" />
    <glyph glyph-name="ordfeminine" unicode="&#xaa;" horiz-adv-x="350" 
d="M250 384l-5 38q-21 -26 -49 -34t-50 -8q-45 0 -68.5 21t-23.5 57v12q0 36 42 62.5t140 30.5v28q0 26 -12.5 37t-41.5 11q-25 0 -51.5 -7.5t-42.5 -16.5l-17 45q19 11 50.5 20t65.5 9q52 0 78.5 -24.5t26.5 -69.5v-211h-42zM233 520q-60 -3 -92 -16.5t-32 -33.5v-8
q0 -17 14 -24t35 -7q29 0 52 14t23 31v44z" />
    <glyph glyph-name="ordmasculine" unicode="&#xba;" horiz-adv-x="373" 
d="M186 689q26 0 50 -8t42 -22.5t29 -34.5t11 -44v-88q0 -24 -10.5 -43.5t-28.5 -34t-42 -22.5t-51 -8t-51 8t-42 22.5t-28.5 34.5t-10.5 44v87q0 24 10.5 44t28.5 34.5t42 22.5t51 8zM260 583q-2 25 -24 39.5t-50 14.5q-29 0 -51.5 -14.5t-22.5 -40.5v-86q2 -29 22 -45
t52 -16q29 0 51.5 15t22.5 40v93z" />
    <glyph glyph-name="ae" unicode="&#xe6;" horiz-adv-x="859" 
d="M623 63q28 0 52.5 4.5t45 11.5t35.5 14.5t24 13.5l32 -52q-38 -32 -89.5 -47t-102.5 -15q-70 0 -125.5 22t-83.5 70q-15 -26 -35.5 -44t-45 -28.5t-51 -15t-51.5 -4.5q-39 0 -72 10.5t-57 30t-38 47.5t-14 63v102l332 40v67q0 51 -30.5 77t-87.5 26q-22 0 -46.5 -4.5
t-47.5 -11.5t-42 -14t-31 -13l-21 58q15 10 37 19.5t47.5 17t53.5 12.5t55 5q60 0 99 -21t58 -57q26 35 73 57t108 22q44 0 81 -11.5t64 -33t42.5 -53.5t15.5 -73v-81l-343 -35v-68q0 -27 12.5 -47.5t34 -34t50.5 -20t62 -6.5zM603 459q-29 0 -54 -8t-44 -22.5t-30 -33.5
t-11 -40v-61l269 26v40q0 25 -10 43.5t-27.5 31t-41 18.5t-51.5 6zM380 232l-256 -30v-57q0 -21 9.5 -37t25.5 -27.5t38 -17t46 -5.5q25 0 49.5 5.5t44 16.5t31.5 28.5t12 41.5v82z" />
    <glyph glyph-name="oslash" unicode="&#xf8;" horiz-adv-x="555" 
d="M278 519q60 0 108 -21l41 69h51l-53 -90q33 -23 53 -57.5t20 -78.5v-170q0 -42 -18 -75t-48.5 -56t-70.5 -35.5t-83 -12.5q-70 0 -123 28l-46 -78h-53l61 102q-29 23 -45 55t-16 72v170q0 41 18 74t48 56t70.5 35.5t85.5 12.5zM418 337q0 23 -9 41t-24 32l-193 -327
q19 -10 41 -15.5t45 -5.5q27 0 52 7.5t44.5 22t31.5 35.5t12 48v162zM135 175q0 -36 22 -63l191 322q-33 14 -70 14q-27 0 -52.5 -7.5t-46 -22t-32.5 -35t-12 -46.5v-162z" />
    <glyph glyph-name="questiondown" unicode="&#xbf;" horiz-adv-x="406" 
d="M211 -189q-169 0 -169 145v55q0 20 6.5 36.5t17.5 30.5t25 26.5t28 25.5q30 25 50 49.5t20 63.5v66h79v-78q0 -38 -23.5 -67t-55.5 -56q-24 -22 -45 -44.5t-21 -47.5v-52q0 -26 9.5 -42t24 -24.5t31 -11.5t31.5 -3q18 0 35.5 5t33.5 12.5t30.5 17.5t25.5 19l32 -56
q-14 -12 -31.5 -24.5t-39 -22.5t-45.5 -16.5t-49 -6.5zM281 412h-112v102h112v-102z" />
    <glyph glyph-name="exclamdown" unicode="&#xa1;" horiz-adv-x="255" 
d="M93 -171l12 464h74l12 -464h-98zM190 431h-95v83h95v-83z" />
    <glyph glyph-name="logicalnot" unicode="&#xac;" horiz-adv-x="453" 
d="M54 337h345v-152h-55v96h-290v56z" />
    <glyph glyph-name="florin" unicode="&#x192;" horiz-adv-x="568" 
d="M427 759q37 0 73 -8.5t56 -25.5l-26 -56q-22 12 -49.5 17.5t-53.5 5.5q-21 0 -40 -7t-34 -19.5t-25.5 -29t-13.5 -35.5l-13 -90h115l-3 -63h-120l-58 -426q-5 -33 -25.5 -59.5t-51 -44.5t-68 -27.5t-77.5 -9.5l-6 68q28 0 53.5 6.5t45.5 19.5t33.5 30.5t16.5 40.5l55 402
h-98l3 63h104l13 101q4 31 20.5 58t43 46.5t60 31t70.5 11.5z" />
    <glyph glyph-name="guillemotleft" unicode="&#xab;" horiz-adv-x="468" 
d="M383 0l-158 174l158 180l30 -35l-113 -143l113 -140zM212 0l-158 174l158 180l31 -35l-114 -143l113 -140z" />
    <glyph glyph-name="guillemotright" unicode="&#xbb;" horiz-adv-x="462" 
d="M155 176l-112 143l30 35l158 -180l-158 -174l-30 36zM327 176l-113 143l30 35l158 -180l-158 -174l-29 36z" />
    <glyph glyph-name="ellipsis" unicode="&#x2026;" horiz-adv-x="744" 
d="M323 102h98v-102h-98v102zM564 102h99v-102h-99v102zM81 102h98v-102h-98v102z" />
    <glyph glyph-name="uni00A0" unicode="&#xa0;" horiz-adv-x="218" 
 />
    <glyph glyph-name="Agrave" unicode="&#xc0;" horiz-adv-x="634" 
d="M362 688l241 -688h-86l-69 205h-260l-71 -205h-87l247 688h85zM429 273l-110 315l-112 -315h222zM262 913l97 -147l-44 -29l-112 137z" />
    <glyph glyph-name="Atilde" unicode="&#xc3;" horiz-adv-x="634" 
d="M362 688l241 -688h-86l-69 205h-260l-71 -205h-87l247 688h85zM429 273l-110 315l-112 -315h222zM252 778q-19 0 -30.5 -12t-18.5 -23l-38 30q18 30 38.5 46.5t49.5 16.5q18 0 34.5 -7t33 -15.5t32.5 -16t32 -7.5q17 2 26 11t16 22l41 -27q-5 -9 -12.5 -20.5t-17.5 -21
t-23 -16t-28 -6.5q-21 0 -38.5 7t-33 16t-31 16t-32.5 7z" />
    <glyph glyph-name="Otilde" unicode="&#xd5;" horiz-adv-x="662" 
d="M338 690q56 0 103 -15.5t81.5 -44t54 -69t19.5 -91.5v-261q0 -53 -19 -93.5t-53 -68.5t-81.5 -42.5t-104.5 -14.5h-16q-56 0 -102.5 14.5t-80 42t-52 68.5t-18.5 94v261q0 51 19 91.5t52.5 69t80 44t100.5 15.5h17zM517 466q0 36 -13.5 64t-37 47.5t-56.5 30t-72 10.5
h-17q-38 0 -69.5 -10.5t-54 -30t-35.5 -47.5t-13 -64v-253q0 -75 47.5 -113.5t125.5 -38.5h16q81 0 130 38.5t49 113.5v253zM263 779q-19 0 -30.5 -12t-18.5 -23l-38 30q18 30 38.5 46.5t49.5 16.5q18 0 34.5 -7t33 -15.5t32.5 -16t32 -7.5q17 2 26 11t16 22l41 -27
q-5 -9 -12.5 -20.5t-17.5 -21t-23 -16t-28 -6.5q-21 0 -38.5 7t-33 16t-31 16t-32.5 7z" />
    <glyph glyph-name="OE" unicode="&#x152;" horiz-adv-x="910" 
d="M552 318v-247h314v-71h-536q-58 0 -108 17t-87.5 46.5t-59 69.5t-21.5 85v242q0 43 22.5 82.5t60 70t87.5 48.5t105 18h512v-71h-290v-220h246v-70h-245zM134 225q1 -34 16.5 -62.5t42 -48.5t62 -31.5t75.5 -11.5h142v537h-143q-36 0 -70.5 -12.5t-62.5 -34t-45 -49.5
t-17 -58v-229z" />
    <glyph glyph-name="oe" unicode="&#x153;" horiz-adv-x="886" 
d="M497 242v-69q0 -28 12.5 -49t34 -34.5t49 -20.5t57.5 -7q52 0 92 11t65 28l28 -55q-38 -29 -86.5 -40.5t-102.5 -11.5q-56 0 -107.5 18t-81.5 59q-29 -40 -77 -59.5t-102 -19.5q-44 0 -84 12.5t-71 35.5t-49 56t-18 75v170q0 41 18 74t48 56t70.5 35.5t85.5 12.5
q56 0 104 -20t76 -58q28 38 76 58t101 20q43 0 81 -12.5t66.5 -35t45.5 -54t17 -68.5v-107h-348zM278 62q26 0 51 7.5t45 21.5t32 35.5t12 48.5v162q0 27 -12 47.5t-31.5 35t-45 21.5t-51.5 7q-27 0 -52.5 -7.5t-46 -22t-32.5 -35t-12 -46.5v-162q0 -27 12 -48t32 -35.5
t45.5 -22t53.5 -7.5zM769 348q0 23 -11 42t-29 33t-42.5 21.5t-51.5 7.5t-51.5 -8t-43.5 -21.5t-31 -33t-12 -41.5v-46h272v46z" />
    <glyph glyph-name="endash" unicode="&#x2013;" horiz-adv-x="574" 
d="M7 320h555v-57h-555v57z" />
    <glyph glyph-name="emdash" unicode="&#x2014;" horiz-adv-x="787" 
d="M8 320h770v-57h-770v57z" />
    <glyph glyph-name="quotedblleft" unicode="&#x201c;" horiz-adv-x="259" 
d="M158 504v28q0 69 14 110.5t40 67.5l37 -24q-14 -24 -19 -54.5t-5 -69.5v-58h-67zM29 504v28q0 69 14 110.5t40 67.5l37 -24q-14 -24 -19 -54.5t-5 -69.5v-58h-67z" />
    <glyph glyph-name="quotedblright" unicode="&#x201d;" horiz-adv-x="271" 
d="M110 686v-26q0 -38 -5 -65.5t-14 -48t-20 -35.5t-23 -28l-44 25q16 23 25.5 49t9.5 72v57h71zM244 686v-26q0 -38 -5 -65.5t-14 -48t-20 -35.5t-23 -28l-44 25q16 23 25.5 49t9.5 72v57h71z" />
    <glyph glyph-name="quoteleft" unicode="&#x2018;" horiz-adv-x="132" 
d="M29 504v28q0 69 14 110.5t40 67.5l37 -24q-14 -24 -19 -54.5t-5 -69.5v-58h-67z" />
    <glyph glyph-name="quoteright" unicode="&#x2019;" horiz-adv-x="135" 
d="M110 709v-26q0 -38 -5 -65.5t-14 -48t-20 -35.5t-23 -28l-44 25q16 23 25.5 49t9.5 72v57h71z" />
    <glyph glyph-name="divide" unicode="&#xf7;" horiz-adv-x="686" 
d="M54 310h578v-55h-578v55zM291 173h100v-97h-100v97zM391 389h-100v97h100v-97z" />
    <glyph glyph-name="ydieresis" unicode="&#xff;" horiz-adv-x="505" 
d="M209 -17l-186 527h85l142 -427l142 427h85l-201 -566q-28 -78 -77.5 -118t-127.5 -40l-7 64q45 0 80.5 25t52.5 76zM200 587h-74v78h74v-78zM375 587h-74v78h74v-78z" />
    <glyph glyph-name="Ydieresis" unicode="&#x178;" horiz-adv-x="591" 
d="M253 266l-217 414h92l166 -333l167 333h93l-221 -414v-266h-80v266zM245 743h-74v78h74v-78zM420 743h-74v78h74v-78z" />
    <glyph glyph-name="fraction" unicode="&#x2044;" horiz-adv-x="524" 
d="M14 0l423 680h75l-421 -680h-77z" />
    <glyph glyph-name="Euro" unicode="&#x20ac;" horiz-adv-x="661" 
d="M126 306v77h-87v48h87v38q0 51 20 91.5t54 69.5t80 44.5t98 15.5q141 0 220 -76l-39 -58q-31 29 -75.5 45.5t-101.5 16.5q-37 0 -69 -10.5t-56 -30t-37.5 -48t-13.5 -63.5v-35h290v-48h-290v-77h290v-48h-290v-44q0 -77 50 -115t128 -38q53 0 97.5 12t79.5 38l35 -57
q-43 -35 -95.5 -49.5t-121.5 -14.5q-55 0 -101.5 14t-80 42t-52.5 69t-19 95v48h-87v48h87z" />
    <glyph glyph-name="guilsinglleft" unicode="&#x2039;" horiz-adv-x="297" 
d="M206 0l-156 174l156 180l39 -35l-113 -143l113 -140z" />
    <glyph glyph-name="guilsinglright" unicode="&#x203a;" horiz-adv-x="297" 
d="M164 176l-113 143l39 35l156 -180l-156 -174l-39 36z" />
    <glyph glyph-name="daggerdbl" unicode="&#x2021;" horiz-adv-x="535" 
d="M303 490h187v-58h-187v-375h187v-57h-187v-186h-67v186h-191v57h191v375h-191v58h191v190h67v-190z" />
    <glyph glyph-name="periodcentered" unicode="&#xb7;" horiz-adv-x="197" 
d="M71 299h102v-100h-102v100z" />
    <glyph glyph-name="quotesinglbase" unicode="&#x201a;" horiz-adv-x="228" 
d="M196 79v-26q0 -38 -5 -65.5t-14 -48t-20 -35.5t-23 -28l-44 25q16 23 25.5 49t9.5 72v57h71z" />
    <glyph glyph-name="quotedblbase" unicode="&#x201e;" horiz-adv-x="400" 
d="M196 80v-26q0 -38 -5 -65.5t-14 -48t-20 -35.5t-23 -28l-44 25q16 23 25.5 49t9.5 72v57h71zM358 81v-26q0 -38 -5 -65.5t-14 -48t-20 -35.5t-23 -28l-44 25q16 23 25.5 49t9.5 72v57h71z" />
    <glyph glyph-name="perthousand" unicode="&#x2030;" horiz-adv-x="1036" 
d="M546 697l54 -12l-418 -688l-57 11zM329 508q0 -23 -10 -43t-27.5 -34t-41 -22t-49.5 -8t-49.5 8t-41 22t-28 33.5t-10.5 43.5v96q0 23 10.5 42.5t28 33.5t41 22t49.5 8t49.5 -8t41 -22t27.5 -33.5t10 -42.5v-96zM523 303q26 0 49.5 -7.5t41 -21.5t28 -33t10.5 -41v-98
q0 -49 -37 -77.5t-92 -28.5q-26 0 -49.5 7.5t-41 21.5t-28 33t-10.5 42v98q0 23 10.5 42t28 33t41 22t49.5 8zM130 511q0 -26 20.5 -40.5t50.5 -14.5t50.5 15t20.5 39v91q0 25 -20.5 40t-50.5 15q-29 0 -50 -15.5t-21 -40.5v-89zM594 195q0 24 -20 39t-51 15
q-30 0 -50.5 -15.5t-20.5 -39.5v-90q0 -23 21 -38.5t50 -15.5t50 15t21 38v92zM834 303q26 0 49.5 -7.5t41 -21.5t28 -33t10.5 -41v-99q0 -24 -10 -43t-27.5 -33t-41 -21.5t-50.5 -7.5q-26 0 -49.5 7.5t-41 21t-28 32.5t-10.5 42v99q0 23 10.5 42t28 33t41 22t49.5 8z
M906 194q0 25 -20.5 40t-51.5 15q-29 0 -50 -14.5t-21 -37.5v-94q0 -23 21 -38t50 -15t50.5 15t21.5 38v91z" />
    <glyph glyph-name="Acircumflex" unicode="&#xc2;" horiz-adv-x="634" 
d="M362 688l241 -688h-86l-69 205h-260l-71 -205h-87l247 688h85zM429 273l-110 315l-112 -315h222zM316 856l127 -87l-30 -37l-97 61l-98 -60l-28 37z" />
    <glyph glyph-name="Ecircumflex" unicode="&#xca;" horiz-adv-x="554" 
d="M168 312v-241h332v-71h-411v680h387v-72h-308v-226h256v-70h-256zM287 848l127 -87l-30 -37l-97 61l-98 -60l-28 37z" />
    <glyph glyph-name="Aacute" unicode="&#xc1;" horiz-adv-x="634" 
d="M362 688l241 -688h-86l-69 205h-260l-71 -205h-87l247 688h85zM429 273l-110 315l-112 -315h222zM378 903l55 -36l-110 -132l-46 25z" />
    <glyph glyph-name="Edieresis" unicode="&#xcb;" horiz-adv-x="554" 
d="M168 312v-241h332v-71h-411v680h387v-72h-308v-226h256v-70h-256zM238 743h-74v78h74v-78zM413 743h-74v78h74v-78z" />
    <glyph glyph-name="Egrave" unicode="&#xc8;" horiz-adv-x="554" 
d="M168 312v-241h332v-71h-411v680h387v-72h-308v-226h256v-70h-256zM233 904l97 -147l-44 -29l-112 137z" />
    <glyph glyph-name="Iacute" unicode="&#xcd;" horiz-adv-x="293" 
d="M106 680h79v-680h-79v680zM207 895l55 -36l-110 -132l-46 25z" />
    <glyph glyph-name="Icircumflex" unicode="&#xce;" horiz-adv-x="293" 
d="M106 680h79v-680h-79v680zM146 848l127 -87l-30 -37l-97 61l-98 -60l-28 37z" />
    <glyph glyph-name="Idieresis" unicode="&#xcf;" horiz-adv-x="293" 
d="M106 680h79v-680h-79v680zM96 743h-74v78h74v-78zM271 743h-74v78h74v-78z" />
    <glyph glyph-name="Igrave" unicode="&#xcc;" horiz-adv-x="293" 
d="M106 680h79v-680h-79v680zM92 904l97 -147l-44 -29l-112 137z" />
    <glyph glyph-name="Oacute" unicode="&#xd3;" horiz-adv-x="662" 
d="M338 690q56 0 103 -15.5t81.5 -44t54 -69t19.5 -91.5v-261q0 -53 -19 -93.5t-53 -68.5t-81.5 -42.5t-104.5 -14.5h-16q-56 0 -102.5 14.5t-80 42t-52 68.5t-18.5 94v261q0 51 19 91.5t52.5 69t80 44t100.5 15.5h17zM517 466q0 36 -13.5 64t-37 47.5t-56.5 30t-72 10.5
h-17q-38 0 -69.5 -10.5t-54 -30t-35.5 -47.5t-13 -64v-253q0 -75 47.5 -113.5t125.5 -38.5h16q81 0 130 38.5t49 113.5v253zM389 905l55 -36l-110 -132l-46 25z" />
    <glyph glyph-name="Ocircumflex" unicode="&#xd4;" horiz-adv-x="662" 
d="M338 690q56 0 103 -15.5t81.5 -44t54 -69t19.5 -91.5v-261q0 -53 -19 -93.5t-53 -68.5t-81.5 -42.5t-104.5 -14.5h-16q-56 0 -102.5 14.5t-80 42t-52 68.5t-18.5 94v261q0 51 19 91.5t52.5 69t80 44t100.5 15.5h17zM517 466q0 36 -13.5 64t-37 47.5t-56.5 30t-72 10.5
h-17q-38 0 -69.5 -10.5t-54 -30t-35.5 -47.5t-13 -64v-253q0 -75 47.5 -113.5t125.5 -38.5h16q81 0 130 38.5t49 113.5v253zM327 858l127 -87l-30 -37l-97 61l-98 -60l-28 37z" />
    <glyph glyph-name="Ograve" unicode="&#xd2;" horiz-adv-x="662" 
d="M338 690q56 0 103 -15.5t81.5 -44t54 -69t19.5 -91.5v-261q0 -53 -19 -93.5t-53 -68.5t-81.5 -42.5t-104.5 -14.5h-16q-56 0 -102.5 14.5t-80 42t-52 68.5t-18.5 94v261q0 51 19 91.5t52.5 69t80 44t100.5 15.5h17zM517 466q0 36 -13.5 64t-37 47.5t-56.5 30t-72 10.5
h-17q-38 0 -69.5 -10.5t-54 -30t-35.5 -47.5t-13 -64v-253q0 -75 47.5 -113.5t125.5 -38.5h16q81 0 130 38.5t49 113.5v253zM273 914l97 -147l-44 -29l-112 137z" />
    <glyph glyph-name="Uacute" unicode="&#xda;" horiz-adv-x="694" 
d="M527 680h80v-469q0 -55 -20 -96.5t-55.5 -69t-83 -41.5t-101.5 -14t-102 13.5t-83 41t-55.5 69t-20.5 97.5v469h79v-466q0 -39 15 -68t40 -48t58 -28t69 -9t68.5 10t57 29.5t39.5 48t15 65.5v466zM408 895l55 -36l-110 -132l-46 25z" />
    <glyph glyph-name="Ucircumflex" unicode="&#xdb;" horiz-adv-x="694" 
d="M527 680h80v-469q0 -55 -20 -96.5t-55.5 -69t-83 -41.5t-101.5 -14t-102 13.5t-83 41t-55.5 69t-20.5 97.5v469h79v-466q0 -39 15 -68t40 -48t58 -28t69 -9t68.5 10t57 29.5t39.5 48t15 65.5v466zM345 848l127 -87l-30 -37l-97 61l-98 -60l-28 37z" />
    <glyph glyph-name="Ugrave" unicode="&#xd9;" horiz-adv-x="694" 
d="M527 680h80v-469q0 -55 -20 -96.5t-55.5 -69t-83 -41.5t-101.5 -14t-102 13.5t-83 41t-55.5 69t-20.5 97.5v469h79v-466q0 -39 15 -68t40 -48t58 -28t69 -9t68.5 10t57 29.5t39.5 48t15 65.5v466zM291 904l97 -147l-44 -29l-112 137z" />
    <glyph glyph-name="dotlessi" unicode="&#x131;" 
d="M92 513h80v-513h-80v513z" />
    <glyph glyph-name="circumflex" unicode="&#x2c6;" horiz-adv-x="357" 
d="M178 695l127 -87l-30 -37l-97 61l-98 -60l-28 37z" />
    <glyph glyph-name="tilde" unicode="&#x2dc;" horiz-adv-x="412" 
d="M141 628q-19 0 -30.5 -12t-18.5 -23l-38 30q18 30 38.5 46.5t49.5 16.5q18 0 34.5 -7t33 -15.5t32.5 -16t32 -7.5q17 2 26 11t16 22l41 -27q-5 -9 -12.5 -20.5t-17.5 -21t-23 -16t-28 -6.5q-21 0 -38.5 7t-33 16t-31 16t-32.5 7z" />
    <glyph glyph-name="macron" unicode="&#xaf;" horiz-adv-x="469" 
d="M414 636h-359v45h359v-45z" />
    <glyph glyph-name="breve" unicode="&#x2d8;" horiz-adv-x="357" 
d="M178 597q-45 0 -77 21.5t-46 59.5l46 14q19 -51 77 -51q28 0 48.5 14t28.5 37l47 -14q-14 -38 -47 -59.5t-77 -21.5z" />
    <glyph glyph-name="dotaccent" unicode="&#x2d9;" horiz-adv-x="168" 
d="M41 713h85v-79h-85v79z" />
    <glyph glyph-name="ring" unicode="&#x2da;" horiz-adv-x="241" 
d="M120 557q-16 0 -30 6t-24.5 16.5t-17 25t-6.5 30.5q0 33 23 55t55 22t56 -22t24 -55q0 -32 -24 -55t-56 -23zM80 633q0 -17 12 -28.5t29 -11.5t29 11.5t12 28.5t-12 29.5t-29 12.5t-29 -12.5t-12 -29.5z" />
    <glyph glyph-name="cedilla" unicode="&#xb8;" horiz-adv-x="241" 
d="M130 0l-15 -52q3 -1 14.5 -6.5t24 -16t22.5 -28t10 -42.5q0 -39 -30.5 -65.5t-78.5 -40.5l-20 39q8 3 20 8.5t23.5 13t19.5 18t8 22.5q0 19 -9 31t-21 19.5t-24.5 11t-18.5 5.5l20 83h55z" />
    <glyph glyph-name="hungarumlaut" unicode="&#x2dd;" horiz-adv-x="508" 
d="M278 688l-184 -140l-39 33l180 145zM441 685l-184 -140l-39 32l180 145z" />
    <glyph glyph-name="ogonek" unicode="&#x2db;" horiz-adv-x="292" 
d="M135 -205q-40 0 -69 23t-29 65q0 22 8.5 41t22 34t30 25.5t31.5 16.5h73q-17 -6 -34 -16t-30.5 -23.5t-22 -30.5t-8.5 -36q0 -21 11.5 -33.5t29.5 -12.5q14 0 27 6t29 21l30 -41q-20 -20 -44 -29.5t-55 -9.5z" />
    <glyph glyph-name="caron" unicode="&#x2c7;" horiz-adv-x="322" 
d="M165 506l-113 104l34 32l78 -70l77 70l34 -32z" />
    <glyph glyph-name="Amacron" unicode="&#x100;" horiz-adv-x="634" 
d="M362 688l241 -688h-86l-69 205h-260l-71 -205h-87l247 688h85zM429 273l-110 315l-112 -315h222zM499 768h-359v45h359v-45z" />
    <glyph glyph-name="amacron" unicode="&#x101;" horiz-adv-x="522" 
d="M274 520q95 0 138.5 -43.5t43.5 -117.5v-359h-66l-7 76q-9 -14 -24 -28.5t-37.5 -26.5t-52 -20t-65.5 -8q-75 0 -116 35t-41 99v19q0 33 16 57t42.5 40.5t60.5 27.5t70.5 17t73 8.5t67.5 3.5v56q0 47 -24.5 71t-87.5 24q-20 0 -43.5 -3.5t-46.5 -9t-42.5 -12.5t-30.5 -13
l-22 59q15 10 38 18.5t49.5 15t54 10.5t52.5 4zM377 245q-42 -2 -86.5 -6t-80.5 -14.5t-59.5 -29.5t-23.5 -49v-11q0 -77 97 -77q32 0 60 8t48.5 21.5t32.5 31t12 35.5v91zM440 612h-359v45h359v-45z" />
    <glyph glyph-name="Abreve" unicode="&#x102;" horiz-adv-x="634" 
d="M362 688l241 -688h-86l-69 205h-260l-71 -205h-87l247 688h85zM429 273l-110 315l-112 -315h222zM316 732q-45 0 -77 21.5t-46 59.5l46 14q19 -51 77 -51q28 0 48.5 14t28.5 37l47 -14q-14 -38 -47 -59.5t-77 -21.5z" />
    <glyph glyph-name="abreve" unicode="&#x103;" horiz-adv-x="522" 
d="M274 520q95 0 138.5 -43.5t43.5 -117.5v-359h-66l-7 76q-9 -14 -24 -28.5t-37.5 -26.5t-52 -20t-65.5 -8q-75 0 -116 35t-41 99v19q0 33 16 57t42.5 40.5t60.5 27.5t70.5 17t73 8.5t67.5 3.5v56q0 47 -24.5 71t-87.5 24q-20 0 -43.5 -3.5t-46.5 -9t-42.5 -12.5t-30.5 -13
l-22 59q15 10 38 18.5t49.5 15t54 10.5t52.5 4zM377 245q-42 -2 -86.5 -6t-80.5 -14.5t-59.5 -29.5t-23.5 -49v-11q0 -77 97 -77q32 0 60 8t48.5 21.5t32.5 31t12 35.5v91zM272 575q-45 0 -77 21.5t-46 59.5l46 14q19 -51 77 -51q28 0 48.5 14t28.5 37l47 -14
q-14 -38 -47 -59.5t-77 -21.5z" />
    <glyph glyph-name="Aogonek" unicode="&#x104;" horiz-adv-x="634" 
d="M532 -205q-40 0 -69 23t-29 65q0 22 8.5 41t21.5 34t27 25.5t26 16.5l-69 205h-260l-71 -205h-87l247 688h85l241 -688q-19 -5 -36.5 -15t-31.5 -24t-22.5 -31t-8.5 -36q0 -21 11.5 -33.5t29.5 -12.5q14 0 27 6t29 21l30 -41q-20 -20 -44 -29.5t-55 -9.5zM429 273
l-110 315l-112 -315h222z" />
    <glyph glyph-name="aogonek" unicode="&#x105;" horiz-adv-x="522" 
d="M392 -205q-40 0 -69 23t-29 65q0 22 8 40.5t21.5 33.5t31 26t35.5 17l-7 77q-8 -14 -23.5 -29t-37.5 -27t-51.5 -20t-65.5 -8q-75 0 -116.5 34.5t-41.5 99.5v19q0 33 16 57t42.5 40.5t60.5 27.5t70.5 17t73 8.5t67.5 3.5v56q0 48 -25.5 71.5t-85.5 23.5q-20 0 -44 -3.5
t-47 -9t-42.5 -12.5t-30.5 -13l-22 59q15 10 38 18.5t49.5 15t54 10.5t52.5 4q95 0 138.5 -43.5t43.5 -116.5v-360q-17 -6 -33.5 -16t-29.5 -23.5t-21.5 -30.5t-8.5 -36q0 -21 12 -33.5t30 -12.5q14 0 27 6t29 21l30 -41q-41 -39 -99 -39zM377 245q-42 -2 -86.5 -6
t-80.5 -14.5t-59.5 -29.5t-23.5 -49v-11q0 -77 97 -77q32 0 60 8t48.5 21.5t32.5 31t12 35.5v91z" />
    <glyph glyph-name="Cacute" unicode="&#x106;" horiz-adv-x="577" 
d="M322 618q-37 0 -69 -10.5t-56 -30t-37.5 -48t-13.5 -63.5v-252q0 -77 50 -115t128 -38q53 0 97.5 12t79.5 38l35 -57q-43 -35 -95.5 -49.5t-121.5 -14.5q-55 0 -101.5 14t-80 42t-52.5 69t-19 95v259q0 51 20 91.5t54 69.5t80 44.5t98 15.5q141 0 220 -76l-39 -58
q-31 29 -75.5 45.5t-101.5 16.5zM365 905l55 -36l-110 -132l-46 25z" />
    <glyph glyph-name="cacute" unicode="&#x107;" horiz-adv-x="475" 
d="M275 448q-29 0 -54.5 -7.5t-44.5 -22.5t-29.5 -36.5t-10.5 -49.5v-157q0 -29 12 -50.5t31.5 -36t45 -21.5t52.5 -7q39 -1 71 9.5t59 30.5l32 -57q-35 -29 -76 -40.5t-92 -11.5q-44 0 -83.5 11t-68.5 33.5t-46 55.5t-17 78v170q0 42 16 76t44.5 57t67.5 35.5t85 12.5
q56 0 96.5 -16.5t72.5 -46.5l-35 -55q-26 23 -57 34.5t-71 11.5zM309 745l55 -36l-110 -132l-46 25z" />
    <glyph glyph-name="Ccircumflex" unicode="&#x108;" horiz-adv-x="577" 
d="M322 618q-37 0 -69 -10.5t-56 -30t-37.5 -48t-13.5 -63.5v-252q0 -77 50 -115t128 -38q53 0 97.5 12t79.5 38l35 -57q-43 -35 -95.5 -49.5t-121.5 -14.5q-55 0 -101.5 14t-80 42t-52.5 69t-19 95v259q0 51 20 91.5t54 69.5t80 44.5t98 15.5q141 0 220 -76l-39 -58
q-31 29 -75.5 45.5t-101.5 16.5zM323 855l127 -87l-30 -37l-97 61l-98 -60l-28 37z" />
    <glyph glyph-name="ccircumflex" unicode="&#x109;" horiz-adv-x="475" 
d="M275 448q-29 0 -54.5 -7.5t-44.5 -22.5t-29.5 -36.5t-10.5 -49.5v-157q0 -29 12 -50.5t31.5 -36t45 -21.5t52.5 -7q39 -1 71 9.5t59 30.5l32 -57q-35 -29 -76 -40.5t-92 -11.5q-44 0 -83.5 11t-68.5 33.5t-46 55.5t-17 78v170q0 42 16 76t44.5 57t67.5 35.5t85 12.5
q56 0 96.5 -16.5t72.5 -46.5l-35 -55q-26 23 -57 34.5t-71 11.5zM267 695l127 -87l-30 -37l-97 61l-98 -60l-28 37z" />
    <glyph glyph-name="Cdotaccent" unicode="&#x10a;" horiz-adv-x="577" 
d="M322 618q-37 0 -69 -10.5t-56 -30t-37.5 -48t-13.5 -63.5v-252q0 -77 50 -115t128 -38q53 0 97.5 12t79.5 38l35 -57q-43 -35 -95.5 -49.5t-121.5 -14.5q-55 0 -101.5 14t-80 42t-52.5 69t-19 95v259q0 51 20 91.5t54 69.5t80 44.5t98 15.5q141 0 220 -76l-39 -58
q-31 29 -75.5 45.5t-101.5 16.5zM278 829h85v-79h-85v79z" />
    <glyph glyph-name="cdotaccent" unicode="&#x10b;" horiz-adv-x="475" 
d="M275 448q-29 0 -54.5 -7.5t-44.5 -22.5t-29.5 -36.5t-10.5 -49.5v-157q0 -29 12 -50.5t31.5 -36t45 -21.5t52.5 -7q39 -1 71 9.5t59 30.5l32 -57q-35 -29 -76 -40.5t-92 -11.5q-44 0 -83.5 11t-68.5 33.5t-46 55.5t-17 78v170q0 42 16 76t44.5 57t67.5 35.5t85 12.5
q56 0 96.5 -16.5t72.5 -46.5l-35 -55q-26 23 -57 34.5t-71 11.5zM223 675h85v-79h-85v79z" />
    <glyph glyph-name="Ccaron" unicode="&#x10c;" horiz-adv-x="577" 
d="M322 618q-37 0 -69 -10.5t-56 -30t-37.5 -48t-13.5 -63.5v-252q0 -77 50 -115t128 -38q53 0 97.5 12t79.5 38l35 -57q-43 -35 -95.5 -49.5t-121.5 -14.5q-55 0 -101.5 14t-80 42t-52.5 69t-19 95v259q0 51 20 91.5t54 69.5t80 44.5t98 15.5q141 0 220 -76l-39 -58
q-31 29 -75.5 45.5t-101.5 16.5zM319 724l-113 104l34 32l78 -70l77 70l34 -32z" />
    <glyph glyph-name="ccaron" unicode="&#x10d;" horiz-adv-x="475" 
d="M275 448q-29 0 -54.5 -7.5t-44.5 -22.5t-29.5 -36.5t-10.5 -49.5v-157q0 -29 12 -50.5t31.5 -36t45 -21.5t52.5 -7q39 -1 71 9.5t59 30.5l32 -57q-35 -29 -76 -40.5t-92 -11.5q-44 0 -83.5 11t-68.5 33.5t-46 55.5t-17 78v170q0 42 16 76t44.5 57t67.5 35.5t85 12.5
q56 0 96.5 -16.5t72.5 -46.5l-35 -55q-26 23 -57 34.5t-71 11.5zM265 569l-113 104l34 32l78 -70l77 70l34 -32z" />
    <glyph glyph-name="Dcaron" unicode="&#x10e;" horiz-adv-x="655" 
d="M316 680q54 0 102 -14.5t84 -43t56.5 -71.5t20.5 -99v-227q0 -57 -21.5 -99.5t-58 -70.5t-85 -41.5t-102.5 -13.5h-223v680h227zM500 448q0 39 -15.5 69t-41 50.5t-58.5 30.5t-69 10h-148v-537h144q38 0 72 9t60 28.5t41 49.5t15 72v218zM310 722l-113 104l34 32l78 -70
l77 70l34 -32z" />
    <glyph glyph-name="dcaron" unicode="&#x10f;" horiz-adv-x="710" 
d="M419 690h79v-690h-70l-9 67q-26 -41 -71.5 -58.5t-92.5 -17.5q-92 0 -145 48t-53 136v161q0 86 53.5 135t144.5 49q48 0 92.5 -18t71.5 -56v244zM419 343q0 28 -12 48.5t-32.5 34t-47.5 20t-56 6.5q-58 0 -96.5 -31t-38.5 -85v-161q0 -58 38 -87.5t99 -29.5
q28 0 54.5 6.5t46.5 20t32.5 34t12.5 47.5v177zM684 709v-26q0 -38 -5 -65.5t-14 -48t-20 -35.5t-23 -28l-44 25q16 23 25.5 49t9.5 72v57h71z" />
    <glyph glyph-name="Dcroat" unicode="&#x110;" horiz-adv-x="655" 
d="M316 680q54 0 102 -14.5t84 -43t56.5 -71.5t20.5 -99v-227q0 -57 -21.5 -99.5t-58 -70.5t-85 -41.5t-102.5 -13.5h-223v311h-69v65h69v304h227zM168 311v-240h144q38 0 72 9t60 28.5t41 49.5t15 72v218q0 39 -15.5 69t-41 50.5t-58.5 30.5t-69 10h-148v-232h157v-65h-157
z" />
    <glyph glyph-name="dcroat" unicode="&#x111;" horiz-adv-x="574" 
d="M260 632h160v58h79v-58h65v-57h-65v-575h-70l-9 67q-26 -41 -71.5 -58.5t-92.5 -17.5q-92 0 -145 48t-53 136v161q0 86 53.5 135t144.5 49q48 0 92.5 -18t71.5 -56v129h-160v57zM420 343q0 28 -12 48.5t-32.5 34t-47.5 20t-56 6.5q-58 0 -96.5 -31t-38.5 -85v-161
q0 -58 38 -87.5t99 -29.5q28 0 54.5 6.5t46.5 20t32.5 34t12.5 47.5v177z" />
    <glyph glyph-name="Emacron" unicode="&#x112;" horiz-adv-x="554" 
d="M168 312v-241h332v-71h-411v680h387v-72h-308v-226h256v-70h-256zM462 767h-359v45h359v-45z" />
    <glyph glyph-name="emacron" unicode="&#x113;" horiz-adv-x="524" 
d="M288 62q52 0 92 11t65 28l28 -55q-38 -29 -86.5 -40.5t-102.5 -11.5q-44 0 -85 11t-72.5 33t-51 55t-19.5 77v179q0 37 18 68.5t48.5 54t69.5 35t81 12.5q43 0 81 -12.5t66.5 -35t45.5 -54t17 -68.5v-107h-348v-69q0 -28 12.5 -49t34 -34.5t49 -20.5t57.5 -7zM273 452
q-27 0 -51.5 -8t-43.5 -21.5t-31 -33t-12 -41.5v-46h272v46q0 23 -11 42t-29 33t-42.5 21.5t-51.5 7.5zM452 613h-359v45h359v-45z" />
    <glyph glyph-name="Ebreve" unicode="&#x114;" horiz-adv-x="554" 
d="M168 312v-241h332v-71h-411v680h387v-72h-308v-226h256v-70h-256zM283 742q-45 0 -77 21.5t-46 59.5l46 14q19 -51 77 -51q28 0 48.5 14t28.5 37l47 -14q-14 -38 -47 -59.5t-77 -21.5z" />
    <glyph glyph-name="ebreve" unicode="&#x115;" horiz-adv-x="524" 
d="M288 62q52 0 92 11t65 28l28 -55q-38 -29 -86.5 -40.5t-102.5 -11.5q-44 0 -85 11t-72.5 33t-51 55t-19.5 77v179q0 37 18 68.5t48.5 54t69.5 35t81 12.5q43 0 81 -12.5t66.5 -35t45.5 -54t17 -68.5v-107h-348v-69q0 -28 12.5 -49t34 -34.5t49 -20.5t57.5 -7zM273 452
q-27 0 -51.5 -8t-43.5 -21.5t-31 -33t-12 -41.5v-46h272v46q0 23 -11 42t-29 33t-42.5 21.5t-51.5 7.5zM271 587q-45 0 -77 21.5t-46 59.5l46 14q19 -51 77 -51q28 0 48.5 14t28.5 37l47 -14q-14 -38 -47 -59.5t-77 -21.5z" />
    <glyph glyph-name="Edotaccent" unicode="&#x116;" horiz-adv-x="554" 
d="M168 312v-241h332v-71h-411v680h387v-72h-308v-226h256v-70h-256zM241 830h85v-79h-85v79z" />
    <glyph glyph-name="edotaccent" unicode="&#x117;" horiz-adv-x="524" 
d="M288 62q52 0 92 11t65 28l28 -55q-38 -29 -86.5 -40.5t-102.5 -11.5q-44 0 -85 11t-72.5 33t-51 55t-19.5 77v179q0 37 18 68.5t48.5 54t69.5 35t81 12.5q43 0 81 -12.5t66.5 -35t45.5 -54t17 -68.5v-107h-348v-69q0 -28 12.5 -49t34 -34.5t49 -20.5t57.5 -7zM273 452
q-27 0 -51.5 -8t-43.5 -21.5t-31 -33t-12 -41.5v-46h272v46q0 23 -11 42t-29 33t-42.5 21.5t-51.5 7.5zM229 673h85v-79h-85v79z" />
    <glyph glyph-name="Eogonek" unicode="&#x118;" horiz-adv-x="554" 
d="M382 -205q-40 0 -69 23t-29 65q0 22 8.5 41t22 34t30 25.5t31.5 16.5h-287v680h387v-72h-308v-226h256v-70h-256v-241h332v-71h-17q-27 0 -50.5 -9.5t-41.5 -24.5t-28 -34t-10 -38q0 -21 12 -33.5t30 -12.5q14 0 27 6t29 21l30 -41q-41 -39 -99 -39z" />
    <glyph glyph-name="eogonek" unicode="&#x119;" horiz-adv-x="539" 
d="M278 -205q-40 0 -69 23t-29 65q0 20 7.5 37.5t19 32t26 25t28.5 16.5q-40 3 -77 15t-65.5 34t-45.5 54t-17 73v179q0 37 18 68.5t48.5 54t69.5 35t81 12.5q43 0 81 -12.5t66.5 -35t45.5 -54t17 -68.5v-107h-348v-69q0 -28 12.5 -49t34 -34.5t49 -20.5t57.5 -7q52 0 92 11
t65 28l28 -55q-28 -21 -61.5 -32.5t-64.5 -17.5q-20 -4 -37.5 -14t-30.5 -23.5t-21 -30t-8 -34.5q0 -21 11.5 -33.5t29.5 -12.5q14 0 27 6t29 21l30 -41q-20 -20 -44 -29.5t-55 -9.5zM273 452q-27 0 -51.5 -8t-44 -21.5t-31 -33t-11.5 -41.5v-46h272v46q0 23 -11 42t-29 33
t-42.5 21.5t-51.5 7.5z" />
    <glyph glyph-name="Ecaron" unicode="&#x11a;" horiz-adv-x="554" 
d="M168 312v-241h332v-71h-411v680h387v-72h-308v-226h256v-70h-256zM284 722l-113 104l34 32l78 -70l77 70l34 -32z" />
    <glyph glyph-name="ecaron" unicode="&#x11b;" horiz-adv-x="534" 
d="M288 62q52 0 92 11t65 28l28 -55q-38 -29 -86.5 -40.5t-102.5 -11.5q-44 0 -85 11t-72.5 33t-51 55t-19.5 77v179q0 37 18 68.5t48.5 54t69.5 35t81 12.5q43 0 81 -12.5t66.5 -35t45.5 -54t17 -68.5v-107h-348v-69q0 -28 12.5 -49t34 -34.5t49 -20.5t57.5 -7zM273 452
q-27 0 -51.5 -8t-43.5 -21.5t-31 -33t-12 -41.5v-46h272v46q0 23 -11 42t-29 33t-42.5 21.5t-51.5 7.5zM284 571l-113 104l34 32l78 -70l77 70l34 -32z" />
    <glyph glyph-name="Gcircumflex" unicode="&#x11c;" horiz-adv-x="643" 
d="M328 358h244v-292q-21 -15 -45.5 -29t-54.5 -24.5t-66 -16.5t-80 -6q-55 0 -102.5 16t-82.5 44.5t-55 69t-20 89.5v262q0 52 20.5 92.5t56 68.5t83 43t101.5 15q75 0 131.5 -20.5t93.5 -49.5l-33 -60q-34 25 -80 41.5t-110 16.5q-37 0 -70 -10t-58 -29.5t-40 -47.5
t-15 -64v-254q0 -34 14 -62t38.5 -48t57 -31t70.5 -11q60 0 98.5 12t68.5 31v186h-165v68zM323 855l127 -87l-30 -37l-97 61l-98 -60l-28 37z" />
    <glyph glyph-name="gcircumflex" unicode="&#x11d;" horiz-adv-x="566" 
d="M289 151q-25 0 -47.5 2.5t-42.5 8.5q-15 -7 -26 -20t-11 -30q0 -25 21.5 -38t46.5 -18l283 -44v-99q0 -36 -17.5 -62t-46 -42.5t-65.5 -24.5t-75 -8h-55q-41 0 -77.5 7t-65 23t-45 40.5t-16.5 60.5q0 45 26.5 73t68.5 40q-26 13 -42 31.5t-16 49.5q0 24 16.5 48t42.5 35
q-35 21 -54 54.5t-19 78.5v33q0 42 16.5 73.5t45 53t67 32t81.5 10.5q68 0 116 -24l127 39l20 -56l-90 -25q17 -20 27 -45.5t10 -55.5v-38q0 -42 -16 -72.5t-44 -51t-65 -30t-79 -9.5zM153 310q0 -47 36.5 -72t97.5 -25q25 0 48 5t40 16.5t27.5 30t10.5 45.5v40
q-2 25 -13 44t-29 31t-41 18t-47 6t-47.5 -6t-42 -18.5t-29.5 -31t-11 -43.5v-40zM310 -159q47 0 82.5 16t40.5 59v47l-210 31q-18 -2 -35 -6.5t-30.5 -14t-22 -24t-8.5 -35.5t11.5 -35t29.5 -22.5t41 -12t47 -3.5h54zM282 695l127 -87l-30 -37l-97 61l-98 -60l-28 37z" />
    <glyph glyph-name="Gbreve" unicode="&#x11e;" horiz-adv-x="643" 
d="M328 358h244v-292q-21 -15 -45.5 -29t-54.5 -24.5t-66 -16.5t-80 -6q-55 0 -102.5 16t-82.5 44.5t-55 69t-20 89.5v262q0 52 20.5 92.5t56 68.5t83 43t101.5 15q75 0 131.5 -20.5t93.5 -49.5l-33 -60q-34 25 -80 41.5t-110 16.5q-37 0 -70 -10t-58 -29.5t-40 -47.5
t-15 -64v-254q0 -34 14 -62t38.5 -48t57 -31t70.5 -11q60 0 98.5 12t68.5 31v186h-165v68zM325 752q-45 0 -77 21.5t-46 59.5l46 14q19 -51 77 -51q28 0 48.5 14t28.5 37l47 -14q-14 -38 -47 -59.5t-77 -21.5z" />
    <glyph glyph-name="gbreve" unicode="&#x11f;" horiz-adv-x="566" 
d="M289 151q-25 0 -47.5 2.5t-42.5 8.5q-15 -7 -26 -20t-11 -30q0 -25 21.5 -38t46.5 -18l283 -44v-99q0 -36 -17.5 -62t-46 -42.5t-65.5 -24.5t-75 -8h-55q-41 0 -77.5 7t-65 23t-45 40.5t-16.5 60.5q0 45 26.5 73t68.5 40q-26 13 -42 31.5t-16 49.5q0 24 16.5 48t42.5 35
q-35 21 -54 54.5t-19 78.5v33q0 42 16.5 73.5t45 53t67 32t81.5 10.5q68 0 116 -24l127 39l20 -56l-90 -25q17 -20 27 -45.5t10 -55.5v-38q0 -42 -16 -72.5t-44 -51t-65 -30t-79 -9.5zM153 310q0 -47 36.5 -72t97.5 -25q25 0 48 5t40 16.5t27.5 30t10.5 45.5v40
q-2 25 -13 44t-29 31t-41 18t-47 6t-47.5 -6t-42 -18.5t-29.5 -31t-11 -43.5v-40zM310 -159q47 0 82.5 16t40.5 59v47l-210 31q-18 -2 -35 -6.5t-30.5 -14t-22 -24t-8.5 -35.5t11.5 -35t29.5 -22.5t41 -12t47 -3.5h54zM282 587q-45 0 -77 21.5t-46 59.5l46 14q19 -51 77 -51
q28 0 48.5 14t28.5 37l47 -14q-14 -38 -47 -59.5t-77 -21.5z" />
    <glyph glyph-name="Gdotaccent" unicode="&#x120;" horiz-adv-x="643" 
d="M328 358h244v-292q-21 -15 -45.5 -29t-54.5 -24.5t-66 -16.5t-80 -6q-55 0 -102.5 16t-82.5 44.5t-55 69t-20 89.5v262q0 52 20.5 92.5t56 68.5t83 43t101.5 15q75 0 131.5 -20.5t93.5 -49.5l-33 -60q-34 25 -80 41.5t-110 16.5q-37 0 -70 -10t-58 -29.5t-40 -47.5
t-15 -64v-254q0 -34 14 -62t38.5 -48t57 -31t70.5 -11q60 0 98.5 12t68.5 31v186h-165v68zM284 830h85v-79h-85v79z" />
    <glyph glyph-name="gdotaccent" unicode="&#x121;" horiz-adv-x="566" 
d="M289 151q-25 0 -47.5 2.5t-42.5 8.5q-15 -7 -26 -20t-11 -30q0 -25 21.5 -38t46.5 -18l283 -44v-99q0 -36 -17.5 -62t-46 -42.5t-65.5 -24.5t-75 -8h-55q-41 0 -77.5 7t-65 23t-45 40.5t-16.5 60.5q0 45 26.5 73t68.5 40q-26 13 -42 31.5t-16 49.5q0 24 16.5 48t42.5 35
q-35 21 -54 54.5t-19 78.5v33q0 42 16.5 73.5t45 53t67 32t81.5 10.5q68 0 116 -24l127 39l20 -56l-90 -25q17 -20 27 -45.5t10 -55.5v-38q0 -42 -16 -72.5t-44 -51t-65 -30t-79 -9.5zM153 310q0 -47 36.5 -72t97.5 -25q25 0 48 5t40 16.5t27.5 30t10.5 45.5v40
q-2 25 -13 44t-29 31t-41 18t-47 6t-47.5 -6t-42 -18.5t-29.5 -31t-11 -43.5v-40zM310 -159q47 0 82.5 16t40.5 59v47l-210 31q-18 -2 -35 -6.5t-30.5 -14t-22 -24t-8.5 -35.5t11.5 -35t29.5 -22.5t41 -12t47 -3.5h54zM240 673h85v-79h-85v79z" />
    <glyph glyph-name="Gcommaaccent" unicode="&#x122;" horiz-adv-x="643" 
d="M328 358h244v-292q-21 -15 -45.5 -29t-54.5 -24.5t-66 -16.5t-80 -6q-55 0 -102.5 16t-82.5 44.5t-55 69t-20 89.5v262q0 52 20.5 92.5t56 68.5t83 43t101.5 15q75 0 131.5 -20.5t93.5 -49.5l-33 -60q-34 25 -80 41.5t-110 16.5q-37 0 -70 -10t-58 -29.5t-40 -47.5
t-15 -64v-254q0 -34 14 -62t38.5 -48t57 -31t70.5 -11q60 0 98.5 12t68.5 31v186h-165v68zM363 -49v-23q0 -37 -5 -63t-13.5 -45t-19.5 -33t-23 -27l-44 24q16 23 25.5 47.5t9.5 67.5v52h70z" />
    <glyph glyph-name="gcommaaccent" unicode="&#x123;" horiz-adv-x="566" 
d="M289 151q-25 0 -47.5 2.5t-42.5 8.5q-15 -7 -26 -20t-11 -30q0 -25 21.5 -38t46.5 -18l283 -44v-99q0 -36 -17.5 -62t-46 -42.5t-65.5 -24.5t-75 -8h-55q-41 0 -77.5 7t-65 23t-45 40.5t-16.5 60.5q0 45 26.5 73t68.5 40q-26 13 -42 31.5t-16 49.5q0 24 16.5 48t42.5 35
q-35 21 -54 54.5t-19 78.5v33q0 42 16.5 73.5t45 53t67 32t81.5 10.5q68 0 116 -24l127 39l20 -56l-90 -25q17 -20 27 -45.5t10 -55.5v-38q0 -42 -16 -72.5t-44 -51t-65 -30t-79 -9.5zM153 310q0 -47 36.5 -72t97.5 -25q25 0 48 5t40 16.5t27.5 30t10.5 45.5v40
q-2 25 -13 44t-29 31t-41 18t-47 6t-47.5 -6t-42 -18.5t-29.5 -31t-11 -43.5v-40zM310 -159q47 0 82.5 16t40.5 59v47l-210 31q-18 -2 -35 -6.5t-30.5 -14t-22 -24t-8.5 -35.5t11.5 -35t29.5 -22.5t41 -12t47 -3.5h54zM247 595v23q0 37 5 63t13.5 45t19.5 33t23 27l44 -24
q-16 -23 -25.5 -47.5t-9.5 -67.5v-52h-70z" />
    <glyph glyph-name="Hcircumflex" unicode="&#x124;" horiz-adv-x="707" 
d="M537 680h79v-680h-79v294h-369v-294h-79v680h79v-315h369v315zM353 855l127 -87l-30 -37l-97 61l-98 -60l-28 37z" />
    <glyph glyph-name="hcircumflex" unicode="&#x125;" horiz-adv-x="594" 
d="M342 519q88 0 133.5 -46t45.5 -131v-342h-79v339q0 53 -32.5 81t-86.5 28q-30 0 -59.5 -10t-52.5 -27t-37.5 -40t-14.5 -49v-322h-80v690h80v-273q27 47 75 74.5t108 27.5zM298 855l127 -87l-30 -37l-97 61l-98 -60l-28 37z" />
    <glyph glyph-name="Hbar" unicode="&#x126;" horiz-adv-x="707" 
d="M616 514v-514h-79v294h-369v-294h-79v514h-63v57h63v109h79v-109h369v109h79v-109h65v-57h-65zM537 514h-369v-149h369v149z" />
    <glyph glyph-name="hbar" unicode="&#x127;" horiz-adv-x="594" 
d="M442 0v339q0 53 -32.5 81t-86.5 28q-30 0 -59.5 -10t-52.5 -27t-37.5 -40t-14.5 -49v-322h-80v575h-65v57h65v58h80v-58h182v-57h-182v-158q27 47 75 74.5t108 27.5q88 0 133.5 -46t45.5 -131v-342h-79z" />
    <glyph glyph-name="Itilde" unicode="&#x128;" horiz-adv-x="293" 
d="M106 680h79v-680h-79v680zM82 784q-19 0 -30.5 -12t-18.5 -23l-38 30q18 30 38.5 46.5t49.5 16.5q18 0 34.5 -7t33 -15.5t32.5 -16t32 -7.5q17 2 26 11t16 22l41 -27q-5 -9 -12.5 -20.5t-17.5 -21t-23 -16t-28 -6.5q-21 0 -38.5 7t-33 16t-31 16t-32.5 7z" />
    <glyph glyph-name="itilde" unicode="&#x129;" 
d="M68 628q-19 0 -30.5 -12t-18.5 -23l-38 30q18 30 38.5 46.5t49.5 16.5q18 0 34.5 -7t33 -15.5t32.5 -16t32 -7.5q17 2 26 11t16 22l41 -27q-5 -9 -12.5 -20.5t-17.5 -21t-23 -16t-28 -6.5q-21 0 -38.5 7t-33 16t-31 16t-32.5 7zM92 513h80v-513h-80v513z" />
    <glyph glyph-name="Imacron" unicode="&#x12a;" horiz-adv-x="293" 
d="M106 680h79v-680h-79v680zM326 768h-359v45h359v-45z" />
    <glyph glyph-name="imacron" unicode="&#x12b;" 
d="M312 613h-359v45h359v-45zM92 513h80v-513h-80v513z" />
    <glyph glyph-name="Ibreve" unicode="&#x12c;" horiz-adv-x="293" 
d="M106 680h79v-680h-79v680zM146 743q-45 0 -77 21.5t-46 59.5l46 14q19 -51 77 -51q28 0 48.5 14t28.5 37l47 -14q-14 -38 -47 -59.5t-77 -21.5z" />
    <glyph glyph-name="ibreve" unicode="&#x12d;" 
d="M132 589q-45 0 -77 21.5t-46 59.5l46 14q19 -51 77 -51q28 0 48.5 14t28.5 37l47 -14q-14 -38 -47 -59.5t-77 -21.5zM92 513h80v-513h-80v513z" />
    <glyph glyph-name="Iogonek" unicode="&#x12e;" horiz-adv-x="293" 
d="M120 -205q-40 0 -69 23t-29 67q0 21 8 39.5t20 33t27 25.5t29 17v680h79v-680q-17 -6 -33.5 -16.5t-30 -24t-21.5 -30t-8 -35.5q0 -21 11.5 -33.5t29.5 -12.5q14 0 27 6t29 21l30 -41q-20 -20 -44 -29.5t-55 -9.5z" />
    <glyph glyph-name="iogonek" unicode="&#x12f;" 
d="M108 -205q-40 0 -69.5 23t-29.5 67q0 21 8 39.5t20 33t27 25.5t29 17v510h80v-510q-17 -6 -33.5 -16t-30 -23.5t-22 -30.5t-8.5 -36q0 -21 12 -33.5t30 -12.5q13 0 26.5 6t28.5 21l31 -41q-21 -20 -45 -29.5t-54 -9.5zM89 690h86v-74h-86v74zM93 510h80v-510h-80v510z
M89 690h86v-74h-86v74z" />
    <glyph glyph-name="Idotaccent" unicode="&#x130;" horiz-adv-x="293" 
d="M106 680h79v-680h-79v680zM104 830h85v-79h-85v79z" />
    <glyph glyph-name="IJ" unicode="&#x132;" horiz-adv-x="842" 
d="M106 680h79v-680h-79v680zM673 680h80v-507q0 -44 -15.5 -78t-44 -57t-68 -35t-88.5 -12q-45 0 -84 11.5t-68.5 32.5t-47 51t-19.5 68l78 14q0 -23 11.5 -42.5t30.5 -34t44 -22.5t53 -8q60 0 99 28.5t39 85.5v505z" />
    <glyph glyph-name="ij" unicode="&#x133;" horiz-adv-x="546" 
d="M93 510h80v-510h-80v510zM89 690h86v-74h-86v74zM376 510h80v-467q0 -55 -12.5 -96t-39 -70.5t-67.5 -49t-98 -31.5l-21 66q43 11 73.5 25t49 35.5t27 52t8.5 75.5v460zM373 690h82v-74h-82v74z" />
    <glyph glyph-name="Jcircumflex" unicode="&#x134;" horiz-adv-x="549" 
d="M380 680h80v-507q0 -44 -15.5 -78t-44 -57t-68 -35t-88.5 -12q-45 0 -84 11.5t-68.5 32.5t-47 51t-19.5 68l78 14q0 -23 11.5 -42.5t30.5 -34t44 -22.5t53 -8q60 0 99 28.5t39 85.5v505zM420 854l127 -87l-30 -37l-97 61l-98 -60l-28 37z" />
    <glyph glyph-name="jcircumflex" unicode="&#x135;" horiz-adv-x="281" 
d="M111 510h80v-467q0 -55 -12.5 -96t-39 -70.5t-67.5 -49t-98 -31.5l-21 66q43 11 73.5 25t49 35.5t27 52t8.5 75.5v460zM150 697l127 -87l-30 -37l-97 61l-98 -60l-28 37z" />
    <glyph glyph-name="Kcommaaccent" unicode="&#x136;" horiz-adv-x="628" 
d="M576 680l-298 -320l333 -360h-105l-281 305l-57 -59v-246h-79v680h79v-340l307 340h101zM366 -49v-23q0 -37 -5 -63t-13.5 -45t-19.5 -33t-23 -27l-44 24q16 23 25.5 47.5t9.5 67.5v52h70z" />
    <glyph glyph-name="kcommaaccent" unicode="&#x137;" horiz-adv-x="501" 
d="M266 278l233 -278h-95l-200 238h-45v-238h-80v690h80v-380h38l189 200h94zM308 -49v-23q0 -37 -5 -63t-13.5 -45t-19.5 -33t-23 -27l-44 24q16 23 25.5 47.5t9.5 67.5v52h70z" />
    <glyph glyph-name="kgreenlandic" unicode="&#x138;" horiz-adv-x="508" 
d="M411 0l-207 225l-45 -47v-178h-80v510h80v-253l227 253h94l-225 -233l251 -277h-95z" />
    <glyph glyph-name="Lacute" unicode="&#x139;" horiz-adv-x="532" 
d="M168 680v-609h351v-71h-430v680h79zM230 890l55 -36l-110 -132l-46 25z" />
    <glyph glyph-name="lacute" unicode="&#x13a;" 
d="M92 690h80v-690h-80v690zM195 915l55 -36l-110 -132l-46 25z" />
    <glyph glyph-name="Lcommaaccent" unicode="&#x13b;" horiz-adv-x="532" 
d="M168 680v-609h351v-71h-430v680h79zM339 -49v-23q0 -37 -5 -63t-13.5 -45t-19.5 -33t-23 -27l-44 24q16 23 25.5 47.5t9.5 67.5v52h70z" />
    <glyph glyph-name="lcommaaccent" unicode="&#x13c;" 
d="M92 690h80v-690h-80v690zM167 -49v-23q0 -37 -5 -63t-13.5 -45t-19.5 -33t-23 -27l-44 24q16 23 25.5 47.5t9.5 67.5v52h70z" />
    <glyph glyph-name="Lcaron" unicode="&#x13d;" horiz-adv-x="532" 
d="M168 680v-609h351v-71h-430v680h79zM396 679v-26q0 -38 -5 -65.5t-14 -48t-20 -35.5t-23 -28l-44 25q16 23 25.5 49t9.5 72v57h71z" />
    <glyph glyph-name="lcaron" unicode="&#x13e;" horiz-adv-x="398" 
d="M92 690h80v-690h-80v690zM369 699v-26q0 -38 -5 -65.5t-14 -48t-20 -35.5t-23 -28l-44 25q16 23 25.5 49t9.5 72v57h71z" />
    <glyph glyph-name="Ldot" unicode="&#x13f;" horiz-adv-x="532" 
d="M168 680v-609h351v-71h-430v680h79zM352 380h85v-79h-85v79z" />
    <glyph glyph-name="ldot" unicode="&#x140;" horiz-adv-x="350" 
d="M92 690h80v-690h-80v690zM265 385h85v-79h-85v79z" />
    <glyph glyph-name="Nacute" unicode="&#x143;" horiz-adv-x="704" 
d="M534 680h75v-680h-81l-369 560v-560h-75v680h83l367 -559v559zM414 895l55 -36l-110 -132l-46 25z" />
    <glyph glyph-name="nacute" unicode="&#x144;" horiz-adv-x="595" 
d="M338 519q89 0 136.5 -45.5t47.5 -130.5v-343h-80v336q0 55 -32 84t-90 29q-28 0 -56.5 -10t-52 -27.5t-38 -40.5t-14.5 -49v-322h-80v510h68l5 -95q32 49 78.5 76.5t107.5 27.5zM360 745l55 -36l-110 -132l-46 25z" />
    <glyph glyph-name="Ncommaaccent" unicode="&#x145;" horiz-adv-x="704" 
d="M539 680h75v-680h-81l-369 560v-560h-75v680h83l367 -559v559zM387 -49v-23q0 -37 -5 -63t-13.5 -45t-19.5 -33t-23 -27l-44 24q16 23 25.5 47.5t9.5 67.5v52h70z" />
    <glyph glyph-name="ncommaaccent" unicode="&#x146;" horiz-adv-x="595" 
d="M338 519q89 0 136.5 -45.5t47.5 -130.5v-343h-80v336q0 55 -32 84t-90 29q-28 0 -56.5 -10t-52 -27.5t-38 -40.5t-14.5 -49v-322h-80v510h68l5 -95q32 49 78.5 76.5t107.5 27.5zM335 -49v-23q0 -37 -5 -63t-13.5 -45t-19.5 -33t-23 -27l-44 24q16 23 25.5 47.5t9.5 67.5
v52h70z" />
    <glyph glyph-name="Ncaron" unicode="&#x147;" horiz-adv-x="704" 
d="M534 680h75v-680h-81l-369 560v-560h-75v680h83l367 -559v559zM353 724l-113 104l34 32l78 -70l77 70l34 -32z" />
    <glyph glyph-name="ncaron" unicode="&#x148;" horiz-adv-x="595" 
d="M338 519q89 0 136.5 -45.5t47.5 -130.5v-343h-80v336q0 55 -32 84t-90 29q-28 0 -56.5 -10t-52 -27.5t-38 -40.5t-14.5 -49v-322h-80v510h68l5 -95q32 49 78.5 76.5t107.5 27.5zM298 574l-113 104l34 32l78 -70l77 70l34 -32z" />
    <glyph glyph-name="napostrophe" unicode="&#x149;" horiz-adv-x="730" 
d="M473 519q89 0 136.5 -45.5t47.5 -130.5v-343h-80v336q0 55 -32 84t-90 29q-28 0 -56.5 -10t-52 -27.5t-38 -40.5t-14.5 -49v-322h-80v510h68l5 -95q32 49 78.5 76.5t107.5 27.5zM110 709v-26q0 -38 -5 -65.5t-14 -48t-20 -35.5t-23 -28l-44 25q16 23 25.5 49t9.5 72v57
h71z" />
    <glyph glyph-name="Eng" unicode="&#x14a;" horiz-adv-x="704" 
d="M376 -138q37 10 64.5 21.5t46 27.5t29.5 38.5t15 53.5l-367 557v-560h-75v680h83l367 -559v559h75v-637q0 -55 -12.5 -96t-39 -70.5t-67.5 -49t-98 -31.5z" />
    <glyph glyph-name="eng" unicode="&#x14b;" horiz-adv-x="595" 
d="M284 -138q43 11 73.5 25t49 35.5t27 52t8.5 75.5v286q0 55 -32 84t-90 29q-28 0 -56.5 -10t-52 -27.5t-38 -40.5t-14.5 -49v-322h-80v510h68l5 -95q32 49 78.5 76.5t107.5 27.5q89 0 136.5 -45.5t47.5 -130.5v-300q0 -55 -12.5 -96t-39 -70.5t-67.5 -49t-98 -31.5z" />
    <glyph glyph-name="Omacron" unicode="&#x14c;" horiz-adv-x="662" 
d="M338 690q56 0 103 -15.5t81.5 -44t54 -69t19.5 -91.5v-261q0 -53 -19 -93.5t-53 -68.5t-81.5 -42.5t-104.5 -14.5h-16q-56 0 -102.5 14.5t-80 42t-52 68.5t-18.5 94v261q0 51 19 91.5t52.5 69t80 44t100.5 15.5h17zM517 466q0 36 -13.5 64t-37 47.5t-56.5 30t-72 10.5
h-17q-38 0 -69.5 -10.5t-54 -30t-35.5 -47.5t-13 -64v-253q0 -75 47.5 -113.5t125.5 -38.5h16q81 0 130 38.5t49 113.5v253zM510 768h-359v45h359v-45z" />
    <glyph glyph-name="omacron" unicode="&#x14d;" horiz-adv-x="555" 
d="M278 519q46 0 86 -12.5t70 -35.5t47 -56t17 -74v-170q0 -42 -18 -75t-48.5 -56t-70.5 -35.5t-83 -12.5q-44 0 -84 12.5t-71 35.5t-49 56t-18 75v170q0 41 18 74t48 56t70.5 35.5t85.5 12.5zM418 337q0 26 -12 46.5t-31.5 35t-44.5 22t-52 7.5t-52.5 -7.5t-46 -22
t-32.5 -35t-12 -46.5v-162q0 -27 12 -48t32 -35.5t45.5 -22t53.5 -7.5q27 0 52 7.5t44.5 22t31.5 35.5t12 48v162zM457 612h-359v45h359v-45z" />
    <glyph glyph-name="Obreve" unicode="&#x14e;" horiz-adv-x="662" 
d="M338 690q56 0 103 -15.5t81.5 -44t54 -69t19.5 -91.5v-261q0 -53 -19 -93.5t-53 -68.5t-81.5 -42.5t-104.5 -14.5h-16q-56 0 -102.5 14.5t-80 42t-52 68.5t-18.5 94v261q0 51 19 91.5t52.5 69t80 44t100.5 15.5h17zM517 466q0 36 -13.5 64t-37 47.5t-56.5 30t-72 10.5
h-17q-38 0 -69.5 -10.5t-54 -30t-35.5 -47.5t-13 -64v-253q0 -75 47.5 -113.5t125.5 -38.5h16q81 0 130 38.5t49 113.5v253zM330 743q-45 0 -77 21.5t-46 59.5l46 14q19 -51 77 -51q28 0 48.5 14t28.5 37l47 -14q-14 -38 -47 -59.5t-77 -21.5z" />
    <glyph glyph-name="obreve" unicode="&#x14f;" horiz-adv-x="555" 
d="M278 519q46 0 86 -12.5t70 -35.5t47 -56t17 -74v-170q0 -42 -18 -75t-48.5 -56t-70.5 -35.5t-83 -12.5q-44 0 -84 12.5t-71 35.5t-49 56t-18 75v170q0 41 18 74t48 56t70.5 35.5t85.5 12.5zM418 337q0 26 -12 46.5t-31.5 35t-44.5 22t-52 7.5t-52.5 -7.5t-46 -22
t-32.5 -35t-12 -46.5v-162q0 -27 12 -48t32 -35.5t45.5 -22t53.5 -7.5q27 0 52 7.5t44.5 22t31.5 35.5t12 48v162zM277 589q-45 0 -77 21.5t-46 59.5l46 14q19 -51 77 -51q28 0 48.5 14t28.5 37l47 -14q-14 -38 -47 -59.5t-77 -21.5z" />
    <glyph glyph-name="Ohungarumlaut" unicode="&#x150;" horiz-adv-x="662" 
d="M338 690q56 0 103 -15.5t81.5 -44t54 -69t19.5 -91.5v-261q0 -53 -19 -93.5t-53 -68.5t-81.5 -42.5t-104.5 -14.5h-16q-56 0 -102.5 14.5t-80 42t-52 68.5t-18.5 94v261q0 51 19 91.5t52.5 69t80 44t100.5 15.5h17zM517 466q0 36 -13.5 64t-37 47.5t-56.5 30t-72 10.5
h-17q-38 0 -69.5 -10.5t-54 -30t-35.5 -47.5t-13 -64v-253q0 -75 47.5 -113.5t125.5 -38.5h16q81 0 130 38.5t49 113.5v253zM439 880l-184 -140l-39 33l180 145zM602 877l-184 -140l-39 32l180 145z" />
    <glyph glyph-name="ohungarumlaut" unicode="&#x151;" horiz-adv-x="555" 
d="M278 519q46 0 86 -12.5t70 -35.5t47 -56t17 -74v-170q0 -42 -18 -75t-48.5 -56t-70.5 -35.5t-83 -12.5q-44 0 -84 12.5t-71 35.5t-49 56t-18 75v170q0 41 18 74t48 56t70.5 35.5t85.5 12.5zM418 337q0 26 -12 46.5t-31.5 35t-44.5 22t-52 7.5t-52.5 -7.5t-46 -22
t-32.5 -35t-12 -46.5v-162q0 -27 12 -48t32 -35.5t45.5 -22t53.5 -7.5q27 0 52 7.5t44.5 22t31.5 35.5t12 48v162zM383 720l-184 -140l-39 33l180 145zM546 717l-184 -140l-39 32l180 145z" />
    <glyph glyph-name="Racute" unicode="&#x154;" horiz-adv-x="606" 
d="M557 465q0 -67 -37.5 -107t-101.5 -54l158 -304h-87l-146 287h-174v-287h-79v680h264q95 0 149 -46.5t54 -130.5v-38zM169 354h187q25 1 47 8t38.5 20t26 32.5t9.5 45.5v41q0 48 -34.5 77.5t-94.5 29.5h-179v-254zM396 895l55 -36l-110 -132l-46 25z" />
    <glyph glyph-name="racute" unicode="&#x155;" horiz-adv-x="365" 
d="M293 520q32 0 59 -7l-11 -79q-11 2 -27 3.5t-30 1.5q-27 0 -49.5 -12.5t-38.5 -33t-24.5 -46.5t-8.5 -53v-294h-81v510h68l8 -93q7 20 20 38.5t30 33t38.5 23t46.5 8.5zM279 745l55 -36l-110 -132l-46 25z" />
    <glyph glyph-name="Rcommaaccent" unicode="&#x156;" horiz-adv-x="606" 
d="M557 465q0 -67 -37.5 -107t-101.5 -54l158 -304h-87l-146 287h-174v-287h-79v680h264q95 0 149 -46.5t54 -130.5v-38zM169 354h187q25 1 47 8t38.5 20t26 32.5t9.5 45.5v41q0 48 -34.5 77.5t-94.5 29.5h-179v-254zM355 -49v-23q0 -37 -5 -63t-13.5 -45t-19.5 -33t-23 -27
l-44 24q16 23 25.5 47.5t9.5 67.5v52h70z" />
    <glyph glyph-name="rcommaaccent" unicode="&#x157;" horiz-adv-x="365" 
d="M293 520q32 0 59 -7l-11 -79q-11 2 -27 3.5t-30 1.5q-27 0 -49.5 -12.5t-38.5 -33t-24.5 -46.5t-8.5 -53v-294h-81v510h68l8 -93q7 20 20 38.5t30 33t38.5 23t46.5 8.5zM157 -49v-23q0 -37 -5 -63t-13.5 -45t-19.5 -33t-23 -27l-44 24q16 23 25.5 47.5t9.5 67.5v52h70z
" />
    <glyph glyph-name="Rcaron" unicode="&#x158;" horiz-adv-x="606" 
d="M557 465q0 -67 -37.5 -107t-101.5 -54l158 -304h-87l-146 287h-174v-287h-79v680h264q95 0 149 -46.5t54 -130.5v-38zM169 354h187q25 1 47 8t38.5 20t26 32.5t9.5 45.5v41q0 48 -34.5 77.5t-94.5 29.5h-179v-254zM304 724l-113 104l34 32l78 -70l77 70l34 -32z" />
    <glyph glyph-name="rcaron" unicode="&#x159;" horiz-adv-x="365" 
d="M293 520q32 0 59 -7l-11 -79q-11 2 -27 3.5t-30 1.5q-27 0 -49.5 -12.5t-38.5 -33t-24.5 -46.5t-8.5 -53v-294h-81v510h68l8 -93q7 20 20 38.5t30 33t38.5 23t46.5 8.5zM217 574l-113 104l34 32l78 -70l77 70l34 -32z" />
    <glyph glyph-name="Sacute" unicode="&#x15a;" horiz-adv-x="583" 
d="M324 373q51 -15 88.5 -33t63 -41.5t38 -54t12.5 -70.5q0 -44 -16.5 -77.5t-46 -57t-71 -35.5t-90.5 -12q-75 0 -141.5 28t-106.5 83l46 50q35 -47 88 -69t113 -22q66 0 106.5 28t40.5 82q0 28 -8.5 48t-28 35.5t-50 28.5t-75.5 26q-49 15 -88 32.5t-66.5 41.5t-42 54.5
t-14.5 70.5q0 45 17 79t47 56.5t71 33.5t88 11q72 0 128 -23.5t98 -67.5l-43 -53q-35 35 -79.5 54t-102.5 19q-63 0 -104.5 -27t-41.5 -80q0 -28 11 -48t32.5 -36t53.5 -28.5t74 -25.5zM355 905l55 -36l-110 -132l-46 25z" />
    <glyph glyph-name="sacute" unicode="&#x15b;" horiz-adv-x="482" 
d="M265 286q48 -10 80.5 -24t52.5 -32t29.5 -41.5t9.5 -51.5q0 -38 -15 -65.5t-41 -45.5t-60.5 -27t-73.5 -9q-25 0 -52 4t-54 12t-52.5 20.5t-46.5 29.5l33 56q32 -26 79 -40.5t88 -14.5q55 0 87 18t32 60q0 34 -29 53t-100 36q-94 20 -132.5 56t-38.5 94q0 39 15.5 66.5
t41 45t59.5 25.5t70 8q50 0 97.5 -12.5t84.5 -35.5l-30 -57q-31 17 -65.5 27.5t-78.5 10.5q-24 0 -45.5 -4t-37.5 -13t-25 -24.5t-9 -37.5q0 -35 28 -54t99 -33zM299 745l55 -36l-110 -132l-46 25z" />
    <glyph glyph-name="Scircumflex" unicode="&#x15c;" horiz-adv-x="583" 
d="M324 373q51 -15 88.5 -33t63 -41.5t38 -54t12.5 -70.5q0 -44 -16.5 -77.5t-46 -57t-71 -35.5t-90.5 -12q-75 0 -141.5 28t-106.5 83l46 50q35 -47 88 -69t113 -22q66 0 106.5 28t40.5 82q0 28 -8.5 48t-28 35.5t-50 28.5t-75.5 26q-49 15 -88 32.5t-66.5 41.5t-42 54.5
t-14.5 70.5q0 45 17 79t47 56.5t71 33.5t88 11q72 0 128 -23.5t98 -67.5l-43 -53q-35 35 -79.5 54t-102.5 19q-63 0 -104.5 -27t-41.5 -80q0 -28 11 -48t32.5 -36t53.5 -28.5t74 -25.5zM297 855l127 -87l-30 -37l-97 61l-98 -60l-28 37z" />
    <glyph glyph-name="scircumflex" unicode="&#x15d;" horiz-adv-x="482" 
d="M265 286q48 -10 80.5 -24t52.5 -32t29.5 -41.5t9.5 -51.5q0 -38 -15 -65.5t-41 -45.5t-60.5 -27t-73.5 -9q-25 0 -52 4t-54 12t-52.5 20.5t-46.5 29.5l33 56q32 -26 79 -40.5t88 -14.5q55 0 87 18t32 60q0 34 -29 53t-100 36q-94 20 -132.5 56t-38.5 94q0 39 15.5 66.5
t41 45t59.5 25.5t70 8q50 0 97.5 -12.5t84.5 -35.5l-30 -57q-31 17 -65.5 27.5t-78.5 10.5q-24 0 -45.5 -4t-37.5 -13t-25 -24.5t-9 -37.5q0 -35 28 -54t99 -33zM245 697l127 -87l-30 -37l-97 61l-98 -60l-28 37z" />
    <glyph glyph-name="Scedilla" unicode="&#x15e;" horiz-adv-x="583" 
d="M324 373q51 -15 88.5 -33t63 -41.5t38 -54t12.5 -70.5q0 -41 -14.5 -73.5t-41 -55.5t-63.5 -36t-82 -16l-13 -45q3 -1 14.5 -6.5t24 -16t22.5 -28t10 -42.5q0 -39 -30.5 -65.5t-78.5 -40.5l-20 39q8 3 20 8.5t23.5 13t19.5 18t8 22.5q0 19 -9 31t-21 19.5t-24.5 11
t-18.5 5.5l18 76q-66 5 -123.5 33t-92.5 77l46 50q35 -47 88 -69t113 -22q66 0 106.5 28t40.5 82q0 28 -8.5 48t-28 35.5t-50 28.5t-75.5 26q-49 15 -88 32.5t-66.5 41.5t-42 54.5t-14.5 70.5q0 45 17 79t47 56.5t71 33.5t88 11q72 0 128 -23.5t98 -67.5l-43 -53
q-35 35 -79.5 54t-102.5 19q-63 0 -104.5 -27t-41.5 -80q0 -28 11 -48t32.5 -36t53.5 -28.5t74 -25.5z" />
    <glyph glyph-name="scedilla" unicode="&#x15f;" horiz-adv-x="482" 
d="M265 286q48 -10 80.5 -24t52.5 -32t29.5 -41.5t9.5 -51.5q0 -36 -13 -62t-36 -44t-54 -28t-67 -12l-12 -43q3 -1 14.5 -6.5t24 -16t22.5 -28t10 -42.5q0 -39 -30.5 -65.5t-78.5 -40.5l-20 39q8 3 20 8.5t23.5 13t19.5 18t8 22.5q0 19 -9 31t-21 19.5t-24.5 11t-18.5 5.5
l18 75q-45 5 -90.5 20t-80.5 44l33 56q32 -26 79 -40.5t88 -14.5q55 0 87 18t32 60q0 34 -29 53t-100 36q-94 20 -132.5 56t-38.5 94q0 39 15.5 66.5t41 45t59.5 25.5t70 8q50 0 97.5 -12.5t84.5 -35.5l-30 -57q-31 17 -65.5 27.5t-78.5 10.5q-24 0 -45.5 -4t-37.5 -13
t-25 -24.5t-9 -37.5q0 -35 28 -54t99 -33z" />
    <glyph glyph-name="Tcedilla" unicode="&#x162;" horiz-adv-x="575" 
d="M325 608v-608h-19l-15 -52q3 -1 14.5 -6.5t24 -16t22.5 -28t10 -42.5q0 -39 -30.5 -65.5t-78.5 -40.5l-20 39q8 3 20 8.5t23.5 13t19.5 18t8 22.5q0 19 -9 31t-21 19.5t-24.5 11t-18.5 5.5l20 83h-6v608h-226v72h537v-72h-231z" />
    <glyph glyph-name="tcedilla" unicode="&#x163;" horiz-adv-x="392" 
d="M182 -212q8 3 20 8.5t23.5 13t19.5 18t8 22.5q0 19 -9 31t-21 19.5t-24.5 11t-18.5 5.5l20 83q-46 9 -71.5 40t-25.5 88v322h-76v60h76v131h79v-131h150v-60h-150v-312q0 -37 20.5 -54t57.5 -17t61.5 6t37.5 11l18 -63q-18 -8 -46.5 -15.5t-76.5 -9.5l-14 -48
q3 -1 14.5 -6.5t24 -16t22.5 -28t10 -42.5q0 -39 -30.5 -65.5t-78.5 -40.5z" />
    <glyph glyph-name="Tcaron" unicode="&#x164;" horiz-adv-x="575" 
d="M19 608v72h537v-72h-231v-608h-80v608h-226zM287 721l-113 104l34 32l78 -70l77 70l34 -32z" />
    <glyph glyph-name="tcaron" unicode="&#x165;" horiz-adv-x="528" 
d="M260 67q37 0 61.5 6t37.5 11l18 -63q-19 -8 -50 -16.5t-84 -8.5q-66 0 -103 31.5t-37 100.5v322h-76v60h76v131h79v-131h150v-60h-150v-312q0 -37 20.5 -54t57.5 -17zM493 644v-26q0 -38 -5 -65.5t-14 -48t-20 -35.5t-23 -28l-44 25q16 23 25.5 49t9.5 72v57h71z" />
    <glyph glyph-name="Tbar" unicode="&#x166;" horiz-adv-x="575" 
d="M119 390h126v218h-226v72h537v-72h-231v-218h146v-67h-146v-323h-80v323h-126v67z" />
    <glyph glyph-name="tbar" unicode="&#x167;" horiz-adv-x="392" 
d="M243 -4q-66 0 -103 31.5t-37 100.5v103h-76v60h76v159h-76v60h76v131h79v-131h150v-60h-150v-159h150v-60h-150v-93q0 -37 20.5 -54t57.5 -17t61.5 6t37.5 11l18 -63q-19 -8 -50 -16.5t-84 -8.5z" />
    <glyph glyph-name="Utilde" unicode="&#x168;" horiz-adv-x="694" 
d="M527 680h80v-469q0 -55 -20 -96.5t-55.5 -69t-83 -41.5t-101.5 -14t-102 13.5t-83 41t-55.5 69t-20.5 97.5v469h79v-466q0 -39 15 -68t40 -48t58 -28t69 -9t68.5 10t57 29.5t39.5 48t15 65.5v466zM282 785q-19 0 -30.5 -12t-18.5 -23l-38 30q18 30 38.5 46.5t49.5 16.5
q18 0 34.5 -7t33 -15.5t32.5 -16t32 -7.5q17 2 26 11t16 22l41 -27q-5 -9 -12.5 -20.5t-17.5 -21t-23 -16t-28 -6.5q-21 0 -38.5 7t-33 16t-31 16t-32.5 7z" />
    <glyph glyph-name="utilde" unicode="&#x169;" horiz-adv-x="588" 
d="M436 510h79v-341q0 -43 -17 -76t-46 -56t-69.5 -35t-86.5 -12q-47 0 -87 12t-69 35t-45.5 56t-16.5 76v341h79v-337q0 -55 39.5 -83.5t99.5 -28.5t100 29t40 83v337zM229 628q-19 0 -30.5 -12t-18.5 -23l-38 30q18 30 38.5 46.5t49.5 16.5q18 0 34.5 -7t33 -15.5
t32.5 -16t32 -7.5q17 2 26 11t16 22l41 -27q-5 -9 -12.5 -20.5t-17.5 -21t-23 -16t-28 -6.5q-21 0 -38.5 7t-33 16t-31 16t-32.5 7z" />
    <glyph glyph-name="Umacron" unicode="&#x16a;" horiz-adv-x="694" 
d="M527 680h80v-469q0 -55 -20 -96.5t-55.5 -69t-83 -41.5t-101.5 -14t-102 13.5t-83 41t-55.5 69t-20.5 97.5v469h79v-466q0 -39 15 -68t40 -48t58 -28t69 -9t68.5 10t57 29.5t39.5 48t15 65.5v466zM526 768h-359v45h359v-45z" />
    <glyph glyph-name="umacron" unicode="&#x16b;" horiz-adv-x="588" 
d="M436 510h79v-341q0 -43 -17 -76t-46 -56t-69.5 -35t-86.5 -12q-47 0 -87 12t-69 35t-45.5 56t-16.5 76v341h79v-337q0 -55 39.5 -83.5t99.5 -28.5t100 29t40 83v337zM473 612h-359v45h359v-45z" />
    <glyph glyph-name="Ubreve" unicode="&#x16c;" horiz-adv-x="694" 
d="M527 680h80v-469q0 -55 -20 -96.5t-55.5 -69t-83 -41.5t-101.5 -14t-102 13.5t-83 41t-55.5 69t-20.5 97.5v469h79v-466q0 -39 15 -68t40 -48t58 -28t69 -9t68.5 10t57 29.5t39.5 48t15 65.5v466zM346 744q-45 0 -77 21.5t-46 59.5l46 14q19 -51 77 -51q28 0 48.5 14
t28.5 37l47 -14q-14 -38 -47 -59.5t-77 -21.5z" />
    <glyph glyph-name="ubreve" unicode="&#x16d;" horiz-adv-x="588" 
d="M436 510h79v-341q0 -43 -17 -76t-46 -56t-69.5 -35t-86.5 -12q-47 0 -87 12t-69 35t-45.5 56t-16.5 76v341h79v-337q0 -55 39.5 -83.5t99.5 -28.5t100 29t40 83v337zM293 587q-45 0 -77 21.5t-46 59.5l46 14q19 -51 77 -51q28 0 48.5 14t28.5 37l47 -14
q-14 -38 -47 -59.5t-77 -21.5z" />
    <glyph glyph-name="Uring" unicode="&#x16e;" horiz-adv-x="694" 
d="M527 680h80v-469q0 -55 -20 -96.5t-55.5 -69t-83 -41.5t-101.5 -14t-102 13.5t-83 41t-55.5 69t-20.5 97.5v469h79v-466q0 -39 15 -68t40 -48t58 -28t69 -9t68.5 10t57 29.5t39.5 48t15 65.5v466zM345 725q-16 0 -30 6t-24.5 16.5t-17 25t-6.5 30.5q0 33 23 55t55 22
t56 -22t24 -55q0 -32 -24 -55t-56 -23zM305 801q0 -17 12 -28.5t29 -11.5t29 11.5t12 28.5t-12 29.5t-29 12.5t-29 -12.5t-12 -29.5z" />
    <glyph glyph-name="uring" unicode="&#x16f;" horiz-adv-x="588" 
d="M436 510h79v-341q0 -43 -17 -76t-46 -56t-69.5 -35t-86.5 -12q-47 0 -87 12t-69 35t-45.5 56t-16.5 76v341h79v-337q0 -55 39.5 -83.5t99.5 -28.5t100 29t40 83v337zM292 564q-16 0 -30 6t-24.5 16.5t-17 25t-6.5 30.5q0 33 23 55t55 22t56 -22t24 -55q0 -32 -24 -55
t-56 -23zM252 640q0 -17 12 -28.5t29 -11.5t29 11.5t12 28.5t-12 29.5t-29 12.5t-29 -12.5t-12 -29.5z" />
    <glyph glyph-name="Uhungarumlaut" unicode="&#x170;" horiz-adv-x="694" 
d="M527 680h80v-469q0 -55 -20 -96.5t-55.5 -69t-83 -41.5t-101.5 -14t-102 13.5t-83 41t-55.5 69t-20.5 97.5v469h79v-466q0 -39 15 -68t40 -48t58 -28t69 -9t68.5 10t57 29.5t39.5 48t15 65.5v466zM456 870l-184 -140l-39 33l180 145zM619 867l-184 -140l-39 32l180 145z
" />
    <glyph glyph-name="uhungarumlaut" unicode="&#x171;" horiz-adv-x="588" 
d="M436 510h79v-341q0 -43 -17 -76t-46 -56t-69.5 -35t-86.5 -12q-47 0 -87 12t-69 35t-45.5 56t-16.5 76v341h79v-337q0 -55 39.5 -83.5t99.5 -28.5t100 29t40 83v337zM403 710l-184 -140l-39 33l180 145zM566 707l-184 -140l-39 32l180 145z" />
    <glyph glyph-name="Uogonek" unicode="&#x172;" horiz-adv-x="694" 
d="M348 -205q-40 0 -69 23t-29 65q0 38 23 65.5t50 42.5q-50 3 -93 17.5t-75 42t-50.5 67.5t-18.5 93v469h79v-466q0 -39 15 -68t40 -48t58 -28t69 -9t68.5 10t57 29.5t39.5 48t15 65.5v466h80v-469q0 -47 -14.5 -83.5t-40 -63t-59 -43t-71.5 -24.5q-19 -4 -37.5 -13.5
t-33 -23t-23.5 -30.5t-9 -36q0 -21 12 -33.5t30 -12.5q14 0 27 6t29 21l30 -41q-41 -39 -99 -39z" />
    <glyph glyph-name="uogonek" unicode="&#x173;" horiz-adv-x="588" 
d="M300 -205q-40 0 -69.5 23t-29.5 65q0 38 23 65.5t50 42.5q-42 3 -78 16t-62.5 35.5t-41 54t-14.5 72.5v341h79v-337q0 -55 39.5 -83.5t99.5 -28.5t100 29t40 83l1 337h78v-341q0 -36 -11 -64t-30.5 -49t-45.5 -35.5t-56 -21.5q-17 -5 -35 -14.5t-32.5 -23t-24 -31
t-9.5 -36.5q0 -21 12 -33.5t30 -12.5q13 0 26.5 6t28.5 21l31 -41q-21 -20 -45 -29.5t-54 -9.5z" />
    <glyph glyph-name="Wcircumflex" unicode="&#x174;" horiz-adv-x="892" 
d="M482 680l162 -576l121 576h83l-154 -680h-92l-157 560l-159 -560h-92l-151 680h83l121 -575l162 575h73zM445 853l127 -87l-30 -37l-97 61l-98 -60l-28 37z" />
    <glyph glyph-name="wcircumflex" unicode="&#x175;" horiz-adv-x="740" 
d="M533 96l97 414h79l-137 -510h-76l-125 401l-125 -401h-78l-138 510h80l100 -415l126 415h66zM369 695l127 -87l-30 -37l-97 61l-98 -60l-28 37z" />
    <glyph glyph-name="Ycircumflex" unicode="&#x176;" horiz-adv-x="591" 
d="M253 266l-217 414h92l166 -333l167 333h93l-221 -414v-266h-80v266zM295 853l127 -87l-30 -37l-97 61l-98 -60l-28 37z" />
    <glyph glyph-name="ycircumflex" unicode="&#x177;" horiz-adv-x="505" 
d="M209 -17l-186 527h85l142 -427l142 427h85l-201 -566q-28 -78 -77.5 -118t-127.5 -40l-7 64q45 0 80.5 25t52.5 76zM250 698l127 -87l-30 -37l-97 61l-98 -60l-28 37z" />
    <glyph glyph-name="Zacute" unicode="&#x179;" horiz-adv-x="577" 
d="M516 680v-50l-361 -559h369v-71h-472v49l363 559h-351v72h452zM349 895l55 -36l-110 -132l-46 25z" />
    <glyph glyph-name="zacute" unicode="&#x17a;" horiz-adv-x="490" 
d="M423 510v-43l-279 -400h297v-67h-393v49l280 397h-274v64h369zM305 735l55 -36l-110 -132l-46 25z" />
    <glyph glyph-name="Zdotaccent" unicode="&#x17b;" horiz-adv-x="577" 
d="M516 680v-50l-361 -559h369v-71h-472v49l363 559h-351v72h452zM242 803h85v-79h-85v79z" />
    <glyph glyph-name="zdotaccent" unicode="&#x17c;" horiz-adv-x="490" 
d="M423 510v-43l-279 -400h297v-67h-393v49l280 397h-274v64h369zM198 644h85v-79h-85v79z" />
    <glyph glyph-name="longs" unicode="&#x17f;" horiz-adv-x="315" 
d="M94 572q0 35 13 61.5t35.5 44.5t52 27t63.5 9q27 0 58 -5t54 -14l-14 -61q-20 5 -40.5 8t-45.5 3q-43 0 -70 -19.5t-27 -59.5v-566h-79v451h-67v59h67v62z" />
    <glyph glyph-name="uni01CD" unicode="&#x1cd;" horiz-adv-x="634" 
d="M362 688l241 -688h-86l-69 205h-260l-71 -205h-87l247 688h85zM429 273l-110 315l-112 -315h222zM319 723l-113 104l34 32l78 -70l77 70l34 -32z" />
    <glyph glyph-name="uni01CE" unicode="&#x1ce;" horiz-adv-x="522" 
d="M274 520q95 0 138.5 -43.5t43.5 -117.5v-359h-66l-7 76q-9 -14 -24 -28.5t-37.5 -26.5t-52 -20t-65.5 -8q-75 0 -116 35t-41 99v19q0 33 16 57t42.5 40.5t60.5 27.5t70.5 17t73 8.5t67.5 3.5v56q0 47 -24.5 71t-87.5 24q-20 0 -43.5 -3.5t-46.5 -9t-42.5 -12.5t-30.5 -13
l-22 59q15 10 38 18.5t49.5 15t54 10.5t52.5 4zM377 245q-42 -2 -86.5 -6t-80.5 -14.5t-59.5 -29.5t-23.5 -49v-11q0 -77 97 -77q32 0 60 8t48.5 21.5t32.5 31t12 35.5v91zM272 566l-113 104l34 32l78 -70l77 70l34 -32z" />
    <glyph glyph-name="uni01CF" unicode="&#x1cf;" horiz-adv-x="293" 
d="M106 680h79v-680h-79v680zM148 723l-113 104l34 32l78 -70l77 70l34 -32z" />
    <glyph glyph-name="uni01D0" unicode="&#x1d0;" 
d="M134 566l-113 104l34 32l78 -70l77 70l34 -32zM92 513h80v-513h-80v513z" />
    <glyph glyph-name="uni01D1" unicode="&#x1d1;" horiz-adv-x="662" 
d="M338 690q56 0 103 -15.5t81.5 -44t54 -69t19.5 -91.5v-261q0 -53 -19 -93.5t-53 -68.5t-81.5 -42.5t-104.5 -14.5h-16q-56 0 -102.5 14.5t-80 42t-52 68.5t-18.5 94v261q0 51 19 91.5t52.5 69t80 44t100.5 15.5h17zM517 466q0 36 -13.5 64t-37 47.5t-56.5 30t-72 10.5
h-17q-38 0 -69.5 -10.5t-54 -30t-35.5 -47.5t-13 -64v-253q0 -75 47.5 -113.5t125.5 -38.5h16q81 0 130 38.5t49 113.5v253zM332 723l-113 104l34 32l78 -70l77 70l34 -32z" />
    <glyph glyph-name="uni01D2" unicode="&#x1d2;" horiz-adv-x="555" 
d="M278 519q46 0 86 -12.5t70 -35.5t47 -56t17 -74v-170q0 -42 -18 -75t-48.5 -56t-70.5 -35.5t-83 -12.5q-44 0 -84 12.5t-71 35.5t-49 56t-18 75v170q0 41 18 74t48 56t70.5 35.5t85.5 12.5zM418 337q0 26 -12 46.5t-31.5 35t-44.5 22t-52 7.5t-52.5 -7.5t-46 -22
t-32.5 -35t-12 -46.5v-162q0 -27 12 -48t32 -35.5t45.5 -22t53.5 -7.5q27 0 52 7.5t44.5 22t31.5 35.5t12 48v162zM279 566l-113 104l34 32l78 -70l77 70l34 -32z" />
    <glyph glyph-name="uni01D3" unicode="&#x1d3;" horiz-adv-x="694" 
d="M527 680h80v-469q0 -55 -20 -96.5t-55.5 -69t-83 -41.5t-101.5 -14t-102 13.5t-83 41t-55.5 69t-20.5 97.5v469h79v-466q0 -39 15 -68t40 -48t58 -28t69 -9t68.5 10t57 29.5t39.5 48t15 65.5v466zM348 713l-113 104l34 32l78 -70l77 70l34 -32z" />
    <glyph glyph-name="uni01D4" unicode="&#x1d4;" horiz-adv-x="588" 
d="M436 510h79v-341q0 -43 -17 -76t-46 -56t-69.5 -35t-86.5 -12q-47 0 -87 12t-69 35t-45.5 56t-16.5 76v341h79v-337q0 -55 39.5 -83.5t99.5 -28.5t100 29t40 83v337zM295 556l-113 104l34 32l78 -70l77 70l34 -32z" />
    <glyph glyph-name="AEacute" unicode="&#x1fc;" horiz-adv-x="876" 
d="M545 317v-246h288v-71h-368v186h-243l-115 -186h-93l420 680h375v-72h-264v-223h219v-68h-219zM465 254v345l-208 -345h208zM583 909l55 -36l-110 -132l-46 25z" />
    <glyph glyph-name="aeacute" unicode="&#x1fd;" horiz-adv-x="859" 
d="M623 63q28 0 52.5 4.5t45 11.5t35.5 14.5t24 13.5l32 -52q-38 -32 -89.5 -47t-102.5 -15q-70 0 -125.5 22t-83.5 70q-15 -26 -35.5 -44t-45 -28.5t-51 -15t-51.5 -4.5q-39 0 -72 10.5t-57 30t-38 47.5t-14 63v102l332 40v67q0 51 -30.5 77t-87.5 26q-22 0 -46.5 -4.5
t-47.5 -11.5t-42 -14t-31 -13l-21 58q15 10 37 19.5t47.5 17t53.5 12.5t55 5q60 0 99 -21t58 -57q26 35 73 57t108 22q44 0 81 -11.5t64 -33t42.5 -53.5t15.5 -73v-81l-343 -35v-68q0 -27 12.5 -47.5t34 -34t50.5 -20t62 -6.5zM603 459q-29 0 -54 -8t-44 -22.5t-30 -33.5
t-11 -40v-61l269 26v40q0 25 -10 43.5t-27.5 31t-41 18.5t-51.5 6zM380 232l-256 -30v-57q0 -21 9.5 -37t25.5 -27.5t38 -17t46 -5.5q25 0 49.5 5.5t44 16.5t31.5 28.5t12 41.5v82zM482 747l55 -36l-110 -132l-46 25z" />
    <glyph glyph-name="Oslashacute" unicode="&#x1fe;" horiz-adv-x="662" 
d="M384 910l55 -36l-110 -132l-46 25zM338 690q31 0 58.5 -5t53.5 -14l40 90h55l-50 -111q47 -29 74 -74.5t27 -105.5v-261q0 -53 -19 -93.5t-53 -68.5t-81.5 -42.5t-104.5 -14.5h-16q-62 0 -113 17l-36 -81h-58l47 104q-45 27 -69 72t-24 107v261q0 51 19 91.5t52.5 69
t80 44t100.5 15.5h17zM517 466q0 36 -14 64.5t-39 48.5l-225 -504q37 -14 83 -14h16q81 0 130 38.5t49 113.5v253zM149 213q0 -72 45 -112l225 503q-37 14 -81 14h-17q-38 0 -69.5 -10.5t-54 -30t-35.5 -47.5t-13 -64v-253z" />
    <glyph glyph-name="oslashacute" unicode="&#x1ff;" horiz-adv-x="555" 
d="M330 747l55 -36l-110 -132l-46 25zM278 519q60 0 108 -21l41 69h51l-53 -90q33 -23 53 -57.5t20 -78.5v-170q0 -42 -18 -75t-48.5 -56t-70.5 -35.5t-83 -12.5q-70 0 -123 28l-46 -78h-53l61 102q-29 23 -45 55t-16 72v170q0 41 18 74t48 56t70.5 35.5t85.5 12.5zM418 337
q0 23 -9 41t-24 32l-193 -327q19 -10 41 -15.5t45 -5.5q27 0 52 7.5t44.5 22t31.5 35.5t12 48v162zM135 175q0 -36 22 -63l191 322q-33 14 -70 14q-27 0 -52.5 -7.5t-46 -22t-32.5 -35t-12 -46.5v-162z" />
    <glyph glyph-name="uni0218" unicode="&#x218;" horiz-adv-x="583" 
d="M324 373q51 -15 88.5 -33t63 -41.5t38 -54t12.5 -70.5q0 -44 -16.5 -77.5t-46 -57t-71 -35.5t-90.5 -12q-75 0 -141.5 28t-106.5 83l46 50q35 -47 88 -69t113 -22q66 0 106.5 28t40.5 82q0 28 -8.5 48t-28 35.5t-50 28.5t-75.5 26q-49 15 -88 32.5t-66.5 41.5t-42 54.5
t-14.5 70.5q0 45 17 79t47 56.5t71 33.5t88 11q72 0 128 -23.5t98 -67.5l-43 -53q-35 35 -79.5 54t-102.5 19q-63 0 -104.5 -27t-41.5 -80q0 -28 11 -48t32.5 -36t53.5 -28.5t74 -25.5zM344 -49v-23q0 -37 -5 -63t-13.5 -45t-19.5 -33t-23 -27l-44 24q16 23 25.5 47.5
t9.5 67.5v52h70z" />
    <glyph glyph-name="uni0219" unicode="&#x219;" horiz-adv-x="482" 
d="M265 286q48 -10 80.5 -24t52.5 -32t29.5 -41.5t9.5 -51.5q0 -38 -15 -65.5t-41 -45.5t-60.5 -27t-73.5 -9q-25 0 -52 4t-54 12t-52.5 20.5t-46.5 29.5l33 56q32 -26 79 -40.5t88 -14.5q55 0 87 18t32 60q0 34 -29 53t-100 36q-94 20 -132.5 56t-38.5 94q0 39 15.5 66.5
t41 45t59.5 25.5t70 8q50 0 97.5 -12.5t84.5 -35.5l-30 -57q-31 17 -65.5 27.5t-78.5 10.5q-24 0 -45.5 -4t-37.5 -13t-25 -24.5t-9 -37.5q0 -35 28 -54t99 -33zM289 -49v-23q0 -37 -5 -63t-13.5 -45t-19.5 -33t-23 -27l-44 24q16 23 25.5 47.5t9.5 67.5v52h70z" />
    <glyph glyph-name="uni021A" unicode="&#x21a;" horiz-adv-x="575" 
d="M19 608v72h537v-72h-231v-608h-80v608h-226zM320 -49v-23q0 -37 -5 -63t-13.5 -45t-19.5 -33t-23 -27l-44 24q16 23 25.5 47.5t9.5 67.5v52h70z" />
    <glyph glyph-name="uni021B" unicode="&#x21b;" horiz-adv-x="392" 
d="M260 67q37 0 61.5 6t37.5 11l18 -63q-19 -8 -50 -16.5t-84 -8.5q-66 0 -103 31.5t-37 100.5v322h-76v60h76v131h79v-131h150v-60h-150v-312q0 -37 20.5 -54t57.5 -17zM268 -49v-23q0 -37 -5 -63t-13.5 -45t-19.5 -33t-23 -27l-44 24q16 23 25.5 47.5t9.5 67.5v52h70z" />
    <glyph glyph-name="dotlessj" unicode="&#x237;" horiz-adv-x="281" 
d="M111 510h80v-467q0 -55 -12.5 -96t-39 -70.5t-67.5 -49t-98 -31.5l-21 66q43 11 73.5 25t49 35.5t27 52t8.5 75.5v460z" />
    <glyph glyph-name="Wgrave" unicode="&#x1e80;" horiz-adv-x="892" 
d="M482 680l162 -576l121 576h83l-154 -680h-92l-157 560l-159 -560h-92l-151 680h83l121 -575l162 575h73zM397 914l97 -147l-44 -29l-112 137z" />
    <glyph glyph-name="wgrave" unicode="&#x1e81;" horiz-adv-x="740" 
d="M533 96l97 414h79l-137 -510h-76l-125 401l-125 -401h-78l-138 510h80l100 -415l126 415h66zM321 752l97 -147l-44 -29l-112 137z" />
    <glyph glyph-name="Wacute" unicode="&#x1e82;" horiz-adv-x="892" 
d="M482 680l162 -576l121 576h83l-154 -680h-92l-157 560l-159 -560h-92l-151 680h83l121 -575l162 575h73zM499 909l55 -36l-110 -132l-46 25z" />
    <glyph glyph-name="wacute" unicode="&#x1e83;" horiz-adv-x="740" 
d="M533 96l97 414h79l-137 -510h-76l-125 401l-125 -401h-78l-138 510h80l100 -415l126 415h66zM423 747l55 -36l-110 -132l-46 25z" />
    <glyph glyph-name="Wdieresis" unicode="&#x1e84;" horiz-adv-x="892" 
d="M482 680l162 -576l121 576h83l-154 -680h-92l-157 560l-159 -560h-92l-151 680h83l121 -575l162 575h73zM395 751h-74v78h74v-78zM570 751h-74v78h74v-78z" />
    <glyph glyph-name="wdieresis" unicode="&#x1e85;" horiz-adv-x="740" 
d="M533 96l97 414h79l-137 -510h-76l-125 401l-125 -401h-78l-138 510h80l100 -415l126 415h66zM319 595h-74v78h74v-78zM494 595h-74v78h74v-78z" />
    <glyph glyph-name="Ygrave" unicode="&#x1ef2;" horiz-adv-x="591" 
d="M253 266l-217 414h92l166 -333l167 333h93l-221 -414v-266h-80v266zM246 904l97 -147l-44 -29l-112 137z" />
    <glyph glyph-name="ygrave" unicode="&#x1ef3;" horiz-adv-x="505" 
d="M209 -17l-186 527h85l142 -427l142 427h85l-201 -566q-28 -78 -77.5 -118t-127.5 -40l-7 64q45 0 80.5 25t52.5 76zM203 752l97 -147l-44 -29l-112 137z" />
    <glyph glyph-name="onethird" unicode="&#x2153;" horiz-adv-x="716" 
d="M152 620h-65v60h130v-343h-65v283zM57 0l423 680h75l-421 -680h-77zM661 262q0 -18 -6.5 -31.5t-17 -23t-22.5 -15.5t-24 -9q12 -3 25 -9t24 -15t18 -22t7 -31v-16q0 -27 -12 -45.5t-31.5 -30t-44.5 -16.5t-52 -5t-52.5 6t-45.5 17.5t-34 27t-18 35.5l43 20
q5 -25 34.5 -38.5t66.5 -13.5q34 0 58.5 10t24.5 35v14q0 13 -7.5 22.5t-19.5 16.5t-27.5 10.5t-30.5 3.5h-67v49h62q15 0 30 2t27.5 7.5t20 15.5t7.5 26v8q0 14 -7 23t-18.5 14t-26 7t-29.5 2q-36 0 -64 -13.5t-33 -38.5l-39 23q4 18 17.5 33.5t32.5 26.5t43 17t49 6
q27 0 52 -5t44.5 -16t31 -29.5t11.5 -46.5v-8z" />
    <glyph glyph-name="twothirds" unicode="&#x2154;" horiz-adv-x="786" 
d="M151 0l423 680h75l-421 -680h-77zM739 264q0 -18 -6.5 -31.5t-17 -23t-22.5 -15.5t-24 -9q12 -3 25 -9t24 -15t18 -22t7 -31v-16q0 -27 -12 -45.5t-31.5 -30t-44.5 -16.5t-52 -5t-52.5 6t-45.5 17.5t-34 27t-18 35.5l43 20q5 -25 34.5 -38.5t66.5 -13.5q34 0 58.5 10
t24.5 35v14q0 13 -7.5 22.5t-19.5 16.5t-27.5 10.5t-30.5 3.5h-67v49h62q15 0 30 2t27.5 7.5t20 15.5t7.5 26v8q0 14 -7 23t-18.5 14t-26 7t-29.5 2q-36 0 -64 -13.5t-33 -38.5l-39 23q4 18 17.5 33.5t32.5 26.5t43 17t49 6q27 0 52 -5t44.5 -16t31 -29.5t11.5 -46.5v-8z
M202 692q68 0 100 -27t32 -73q0 -21 -9 -37.5t-23 -30t-32.5 -24t-37.5 -19.5q-20 -9 -38 -18t-32.5 -19.5t-24 -23.5t-10.5 -30h213v-55h-282v41q0 27 9.5 48t25.5 37t37.5 28.5t46.5 23.5q16 6 32.5 13.5t30 16t22.5 19.5t9 25q0 23 -18 36.5t-60 13.5q-35 0 -61 -12
t-48 -33l-29 41q23 26 61 42.5t86 16.5z" />
    <glyph glyph-name="asteriskmath" unicode="&#x2217;" horiz-adv-x="512" 
d="M403 432l15 -46l-126 -41l77 -106l-39 -29l-78 107l-81 -108l-40 29l80 107l-126 41l15 46l127 -41v131h50v-131z" />
    <glyph glyph-name="e.alt1" unicode="&#xe000;" horiz-adv-x="500" 
d="M284 61q56 0 98.5 13.5t61.5 24.5l28 -55q-19 -14 -42.5 -24t-48.5 -16t-51 -9t-51 -3q-44 0 -85 10.5t-72.5 32t-50 54t-18.5 77.5v184q0 37 17 68t46 53t67.5 34t81.5 12q44 0 82 -11t65.5 -32t43.5 -51t16 -67v-85l-339 -45v-55q0 -29 12 -49.5t32.5 -34t48 -20
t58.5 -6.5zM265 449q-27 0 -51 -7.5t-42 -20.5t-28.5 -32t-10.5 -41v-65l263 35v34q0 22 -10.5 39.5t-28.5 30.5t-41.5 20t-50.5 7z" />
    <glyph glyph-name="seven.alt01" unicode="&#xe001;" horiz-adv-x="470" 
d="M331 297l-103 -297h-88l107 297h-69v60h90l89 248h-273v-48h-74v123h437v-50l-95 -273h75v-60h-96z" />
    <glyph glyph-name="Q.alt02" unicode="&#xe002;" horiz-adv-x="662" 
d="M322 -10q-56 0 -102.5 14.5t-80 42.5t-52 68.5t-18.5 93.5v261q0 51 19 91.5t52.5 69t80 44t101.5 15.5h16q56 0 103 -15.5t81.5 -44t54 -69.5t19.5 -91v-261q0 -48 -16.5 -86.5t-45.5 -66.5l-51 59q16 18 25 42.5t9 55.5v252q0 36 -13.5 64.5t-37.5 48t-56.5 30
t-71.5 10.5h-16q-38 0 -69.5 -10.5t-54.5 -30t-36 -48t-13 -64.5v-252q0 -75 47.5 -113.5t125.5 -38.5h16q28 0 52.5 5.5t44.5 13.5l51 -58q-61 -32 -148 -32h-16zM487 21q14 7 25.5 15.5t22.5 18.5l71 -80l-46 -37zM412 193l70 -77q-22 -22 -48 -35l-65 75z" />
    <glyph glyph-name="f.alt01" unicode="&#xe003;" horiz-adv-x="315" 
d="M327 452l-154 -42v-410h-79v389l-94 -25v63l94 25v120q0 35 13 61.5t35.5 44.5t52 27t63.5 9q27 0 58 -5t54 -14l-14 -61q-20 5 -40.5 8t-45.5 3q-43 0 -70 -19.5t-27 -59.5v-93l154 42v-63z" />
    <glyph glyph-name="W.alt01" unicode="&#xe004;" horiz-adv-x="892" 
d="M617 0h-82l-92 271l-92 -271h-81l-227 680h87l181 -574l92 286l-71 212h87l25 -82l27 82h86l-72 -211l91 -287l186 574h86z" />
    <glyph glyph-name="t.alt01" unicode="&#xe005;" horiz-adv-x="392" 
d="M243 -4q-66 0 -103 31.5t-37 100.5v260l-103 -28v63l103 28v190h79v-168l153 42v-63l-153 -42v-272q0 -37 20.5 -54t57.5 -17q36 0 61 6t38 11l18 -63q-20 -8 -50.5 -16.5t-83.5 -8.5z" />
    <glyph glyph-name="x.alt01" unicode="&#xe006;" horiz-adv-x="507" 
d="M298 209l150 -209h-94l-104 151l-99 -151h-93l145 209l-163 241h91l120 -184l159 244h97z" />
    <glyph glyph-name="A.alt01" unicode="&#xe007;" horiz-adv-x="634" 
d="M413 306l-212 -59l-84 -247h-87l79 222l-64 -18v68l91 25l140 391h85l242 -688h-86zM227 322l165 46l-74 220z" />
    <glyph glyph-name="R.alt01" unicode="&#xe008;" horiz-adv-x="606" 
d="M485 -67l-181 354h-135v-287h-79v680h225q95 0 149 -46.5t54 -130.5v-38q0 -67 -37.5 -107t-101.5 -54l193 -371h-87zM169 354h143q26 0 49 7t40 20.5t27 33t10 45.5v41q0 48 -34.5 77.5t-94.5 29.5h-140v-254z" />
    <glyph glyph-name="U.alt01" unicode="&#xe009;" horiz-adv-x="694" 
d="M592 -19l-59 66q-35 -29 -83 -43t-103 -14q-54 0 -102 13.5t-83 41t-55.5 69t-20.5 97.5v469h79v-466q0 -39 15 -68t40 -48t58 -28t69 -9t68.5 10t57 29.5t39.5 48t15 65.5v466h80v-469q0 -64 -28 -111l64 -76z" />
    <glyph glyph-name="V.alt01" unicode="&#xe00a;" horiz-adv-x="592" 
d="M334 0h-82l-226 680h87l180 -574l157 487h86z" />
    <glyph glyph-name="Z.alt01" unicode="&#xe00b;" horiz-adv-x="577" 
d="M52 0v49l162 250h-81v63h122l160 246h-351v72h452v-50l-173 -268h81v-63h-122l-147 -228h369v-71h-472z" />
    <glyph glyph-name="X.alt01" unicode="&#xe00c;" horiz-adv-x="579" 
d="M246 341l46 -77l-163 -264h-94zM543 0h-93l-157 264l46 77zM339 342l-45 75l161 263h93zM136 680l157 -263l-47 -75l-202 338h92z" />
    <glyph glyph-name="X.alt02" unicode="&#xe00d;" horiz-adv-x="579" 
d="M284 354l147 239h91l-190 -302l178 -291h-92l-134 227l-129 -227h-94l173 291l-221 389h91z" />
    <glyph glyph-name="R.alt02" unicode="&#xe00e;" horiz-adv-x="606" 
d="M487 0q-18 53 -40 99t-51.5 83t-67 63.5t-86.5 41.5h-73v-287h-79v680h225q95 0 149 -46.5t54 -130.5v-38q0 -66 -38 -110.5t-106 -56.5q67 -44 119 -120.5t80 -177.5h-86zM169 354h143q26 0 49 7t40 20.5t27 33t10 45.5v41q0 48 -34.5 77.5t-94.5 29.5h-140v-254z" />
    <glyph glyph-name="m.alt01" unicode="&#xe00f;" horiz-adv-x="905" 
d="M746 0v438h-89q-29 0 -58 -11.5t-52.5 -30t-38.5 -42t-15 -46.5v-308h-81v438h-89q-29 0 -58 -11.5t-52.5 -30t-38.5 -42t-15 -46.5v-308h-80v510h75l5 -104q29 46 74 75t99 29h161v-104q29 45 74 74.5t99 29.5h160v-510h-80z" />
    <glyph glyph-name="Q.alt" unicode="&#xe010;" horiz-adv-x="655" 
d="M338 690q56 0 103 -15.5t81.5 -44t54 -69t19.5 -91.5v-261q0 -49 -16.5 -88t-46.5 -66.5t-72 -43.5t-93 -20v-50l234 -45l-10 -66l-299 56v105q-50 3 -91.5 19t-71 44t-45.5 66.5t-16 88.5v261q0 51 19 91.5t52.5 69t80 44t100.5 15.5h17zM517 466q0 36 -13.5 64
t-37 47.5t-56.5 30t-72 10.5h-17q-38 0 -69.5 -10.5t-54 -30t-35.5 -47.5t-13 -64v-253q0 -75 47.5 -113.5t125.5 -38.5h16q81 0 130 38.5t49 113.5v253z" />
    <glyph glyph-name="k.alt" unicode="&#xe011;" horiz-adv-x="531" 
d="M151 706v-405l232 223l75 -19l-236 -231q47 -14 89.5 -42.5t77.5 -66t59.5 -80.5t35.5 -85h-86q-6 15 -14.5 33.5t-21 39t-30.5 43t-44 46.5q-17 15 -36.5 26.5t-38.5 19.5t-35.5 14t-26.5 9v-231h-77v706h77z" />
    <glyph glyph-name="g.alt" unicode="&#xe012;" horiz-adv-x="557" 
d="M141 -52q-3 -9 -5 -18t-2 -18q0 -20 11 -34t29 -23t40.5 -13.5t45.5 -4.5h29q22 0 44.5 3.5t40 11.5t28.5 20.5t12 30.5v45l-258 65q-72 17 -72 84q0 29 16 50.5t38 32.5q-33 21 -51 53t-18 75v51q0 37 15 67t42 51t64.5 32.5t83.5 11.5q73 0 125 -29l112 41l20 -59
l-82 -25q30 -38 30 -88v-57q0 -37 -15 -66t-41.5 -49.5t-63 -31.5t-79.5 -11q-49 0 -86 10q-13 -5 -23 -17t-10 -31q0 -23 15.5 -32.5t35.5 -14.5l281 -66v-95q0 -35 -17 -60t-44.5 -40.5t-64 -23t-75.5 -7.5h-33q-39 0 -75.5 7.5t-65 24t-45.5 42t-17 60.5q0 14 2.5 26
t7.5 23zM149 302q0 -42 37 -67.5t92 -25.5q51 0 86 23t35 65v60q-1 22 -11.5 39.5t-27 29.5t-39 18.5t-47.5 6.5t-47.5 -7t-40 -19.5t-27.5 -30t-10 -37.5v-55z" />
    <glyph glyph-name="germandbls.alt" unicode="&#xe013;" horiz-adv-x="677" 
d="M191 0h-77v438h-72v71h71v43q0 43 15 76t43 56t66.5 35t85.5 12q50 0 92 -12t72 -34.5t47 -55.5t17 -76l-108 -147q10 -3 36 -15t53 -34.5t47.5 -56.5t20.5 -80v-70q0 -38 -14 -67t-38 -49.5t-57.5 -31t-72.5 -10.5q-58 0 -102 17.5t-70 46.5l32 57q16 -18 47 -35t84 -17
q46 0 79 24.5t33 71.5v64q0 42 -25 70.5t-57 46t-62 25t-39 7.5l128 187q0 45 -39 74t-102 29q-61 0 -97.5 -29.5t-36.5 -80.5v-550z" />
    <glyph glyph-name="germandbls.alt2" unicode="&#xe014;" horiz-adv-x="657" 
d="M43 510h58v81q0 33 14 60.5t37.5 47t55 30.5t66.5 11q26 0 54.5 -5.5t51.5 -13.5l-19 -62q-19 5 -39.5 8t-36.5 3q-51 0 -79.5 -23t-28.5 -69v-68h400v-61l-143 -150h30q40 0 67 -11.5t43.5 -28.5t23 -38.5t6.5 -40.5v-66q0 -25 -11.5 -47t-32.5 -38.5t-50 -26t-64 -9.5
q-55 0 -96 18t-61 50l42 42q13 -21 41.5 -34t63.5 -13q39 0 65 16.5t26 45.5v57q0 29 -20.5 47t-62.5 18h-98v57l142 148h-309v-445h-78v446h-58v64z" />
    <glyph glyph-name="h.alt" unicode="&#xe015;" horiz-adv-x="583" 
d="M490 510v-510h-79v437h-92q-29 0 -58.5 -12t-53.5 -30.5t-39 -42t-15 -46.5v-306h-79v710h79v-302q27 45 75 74t103 29z" />
    <glyph glyph-name="G.alt01" unicode="&#xe016;" horiz-adv-x="643" 
d="M572 66q-21 -15 -45.5 -29t-54.5 -24.5t-66 -16.5t-80 -6q-55 0 -102.5 16t-82.5 44.5t-55 69t-20 89.5v262q0 52 20.5 92.5t56 68.5t83 43t101.5 15q75 0 131.5 -20.5t93.5 -49.5l-33 -60q-34 25 -80 41.5t-110 16.5q-37 0 -70 -10t-58 -29.5t-40 -47.5t-15 -64v-254
q0 -34 14 -62t38.5 -48t57 -31t70.5 -11q60 0 98.5 12t68.5 31v166l-196 -57v69l275 80v-296z" />
    <glyph glyph-name="Y.alt01" unicode="&#xe017;" horiz-adv-x="506" 
d="M237 0h-81l92 276l-212 404h92l153 -305l102 305h86z" />
    <glyph glyph-name="n.alt" unicode="&#xe018;" horiz-adv-x="581" 
d="M488 511v-511h-80v439h-90q-29 0 -58 -11.5t-52.5 -30.5t-38.5 -42t-15 -46v-309h-80v510h75l5 -103q29 46 74 74.5t99 29.5h161z" />
    <glyph glyph-name="E.alt" unicode="&#xe019;" horiz-adv-x="574" 
d="M162 490q0 -23 10 -41.5t27.5 -32t41 -21t51.5 -7.5h94v-66h-95q-29 -1 -55 -9t-46.5 -22t-32.5 -33t-12 -42v-49q0 -23 13.5 -42.5t35 -33.5t49.5 -22t57 -8h40q28 0 53.5 7t46 17.5t35.5 22.5t23 22l49 -45q-29 -42 -80.5 -68.5t-126.5 -26.5h-39q-49 0 -92 13
t-75 36.5t-50.5 55t-18.5 69.5v52q0 22 9.5 43t25.5 39t37 32.5t44 23.5q-21 8 -39 22.5t-31 32.5t-20.5 38.5t-7.5 41.5v39q0 37 17 67t46.5 51t70 32.5t87.5 11.5h28q26 -1 52.5 -7t51.5 -15.5t46 -21.5t36 -26l-42 -55q-11 9 -28 18t-36.5 17t-40 13t-39.5 5h-28
q-29 0 -54.5 -7t-45 -20t-31 -30.5t-11.5 -39.5v-31z" />
    <glyph glyph-name="a.alt" unicode="&#xe01a;" horiz-adv-x="539" 
d="M281 519q88 0 138.5 -41.5t50.5 -121.5v-356h-70l-5 58q-29 -36 -68.5 -49.5t-90.5 -13.5q-85 0 -132.5 36t-47.5 104v113l334 51v56q0 47 -29.5 69.5t-86.5 22.5q-24 0 -49 -4t-47.5 -10.5t-41.5 -13.5t-31 -13l-25 60q16 9 39.5 18.5t50.5 17t55.5 12.5t55.5 5z
M389 242l-253 -40v-62q0 -42 31 -61.5t84 -19.5q25 0 50 6t44.5 18t31.5 28.5t12 37.5v93z" />
    <glyph glyph-name="s.alt" unicode="&#xe01b;" horiz-adv-x="483" 
d="M432 218v-81q0 -39 -15 -66.5t-41 -45t-61.5 -25.5t-76.5 -8q-56 0 -109 17.5t-91 49.5l33 54q14 -12 33 -22t40 -18t43.5 -12.5t43.5 -4.5q26 0 48.5 4t39.5 13.5t26.5 25t9.5 38.5v44l-293 117v82q0 36 15 62t41 43t61.5 25.5t76.5 8.5q45 0 93 -15t80 -37l-30 -59
q-28 17 -67.5 29.5t-75.5 12.5q-51 0 -84 -17t-33 -59v-40z" />
    <glyph glyph-name="S.alt" unicode="&#xe01c;" horiz-adv-x="583" 
d="M530 290v-122q0 -46 -18 -79t-49 -54.5t-73.5 -32t-91.5 -10.5q-75 0 -139.5 24t-105.5 74l45 51q33 -39 86.5 -59t110.5 -20q32 0 60 6.5t48.5 20t32.5 34t12 48.5v73l-368 145v132q0 45 17.5 77t48 52.5t72.5 30t91 9.5q72 0 126.5 -22t92.5 -56l-39 -60q-28 26 -75 46
t-103 20q-30 0 -57 -5.5t-47.5 -17.5t-32 -31t-11.5 -46v-85z" />
    <glyph glyph-name="ft" unicode="&#xe01d;" horiz-adv-x="700" 
d="M568 65q37 0 61.5 6t37.5 11l18 -63q-19 -8 -50 -16.5t-84 -8.5q-66 0 -103 31.5t-37 100.5v325h-238v-451h-79v451h-67v59h67v65q0 34 15 60.5t40.5 43.5t59 26t71.5 9q51 0 106.5 -11t103.5 -33v-160h150v-59h-150v-315q0 -37 20.5 -54t57.5 -17zM411 510v125
q-56 12 -120 12q-57 0 -87.5 -19.5t-30.5 -61.5v-56h238z" />
    <glyph glyph-name="f.liga" unicode="&#xe01f;" horiz-adv-x="315" 
d="M94 573q0 37 16 65t43 46.5t64 27.5t79 9q48 0 99.5 -8t93.5 -20l-14 -59q-44 8 -82 13t-86 5q-64 0 -99 -22t-35 -68v-52h123v-59h-123v-451h-79v451h-67v59h67v63z" />
    <glyph glyph-name="commaaccent" unicode="&#xf6c3;" horiz-adv-x="241" 
d="M173 -49v-23q0 -37 -5 -63t-13.5 -45t-19.5 -33t-23 -27l-44 24q16 23 25.5 47.5t9.5 67.5v52h70z" />
    <glyph glyph-name="dollar.alt" unicode="&#xf70d;" horiz-adv-x="582" 
d="M331 -71v64q-11 -1 -17.5 -1h-11.5h-15.5t-16.5 1v-64h-56v73q-49 12 -90.5 37.5t-69.5 63.5l46 50q21 -29 50.5 -48t63.5 -30v260q-66 28 -102.5 68.5t-36.5 105.5q0 70 38.5 111.5t100.5 58.5v65h56v-56q10 1 16 1h12q8 0 16.5 -0.5t16.5 -1.5v57h56v-66
q41 -11 74.5 -31t62.5 -49l-43 -53q-20 20 -43.5 35t-50.5 24v-253q69 -28 104 -69t35 -108t-38 -110.5t-101 -60.5v-74h-56zM270 315v-251q8 -1 15.5 -1.5t15.5 -0.5t15 0.5t15 1.5v232zM270 391q14 -5 30 -10t31 -10v245q-8 1 -16 1.5t-16 0.5h-12t-17 -2v-225zM448 172
q0 35 -14.5 58.5t-46.5 41.5v-193q29 14 45 37t16 56zM153 511q0 -33 15 -56t46 -40v187q-29 -14 -45 -36.5t-16 -54.5z" />
    <glyph glyph-name="zerooldstyle" unicode="&#xf730;" horiz-adv-x="593" 
d="M296 521q54 0 99.5 -15.5t78.5 -43.5t51.5 -66t18.5 -83v-118q0 -45 -18.5 -82.5t-51.5 -64.5t-78.5 -42.5t-99.5 -15.5t-99.5 15.5t-78.5 42.5t-51.5 64.5t-18.5 82.5v118q0 45 18.5 82.5t51.5 65.5t78.5 43.5t99.5 16.5zM465 309q0 30 -12.5 56t-34.5 45t-53.5 29.5
t-68.5 10.5q-38 0 -69 -11t-53 -29.5t-34.5 -44.5t-12.5 -56v-110q0 -30 12.5 -55.5t35 -44t53.5 -29t68 -10.5t68.5 10.5t53.5 29t34.5 44t12.5 55.5v110z" />
    <glyph glyph-name="oneoldstyle" unicode="&#xf731;" horiz-adv-x="435" 
d="M71 65h125v382h-118v65l198 5v-452h113v-65h-318v65z" />
    <glyph glyph-name="twooldstyle" unicode="&#xf732;" horiz-adv-x="572" 
d="M340 201q-46 -21 -79 -36t-54 -29t-31 -29.5t-10 -37.5h349v-69h-433v35q0 36 9 63.5t31.5 52t60.5 47t96 47.5q31 13 57.5 26t45.5 26.5t29.5 30t10.5 37.5q0 39 -31.5 61.5t-98.5 22.5q-23 0 -48.5 -5t-49 -14t-43.5 -20.5t-32 -23.5l-39 52q16 16 40.5 31t54 26.5
t62 18t64.5 6.5q100 0 150.5 -41t50.5 -108q0 -27 -8 -49.5t-27 -42.5t-50 -39t-77 -39z" />
    <glyph glyph-name="threeoldstyle" unicode="&#xf733;" horiz-adv-x="521" 
d="M434 335q0 -45 -27.5 -80.5t-72.5 -55.5q55 -11 87.5 -44.5t32.5 -90.5v-28q0 -61 -35.5 -103.5t-93.5 -69.5t-130.5 -39.5t-146.5 -12.5l-6 69q57 0 116 8.5t107.5 27.5t79 48.5t30.5 70.5v28q0 25 -12 43t-32.5 30t-46.5 18.5t-53 7.5h-77l-3 70h69q27 0 51.5 7.5
t43 20t29.5 30.5t11 39v33q0 42 -37.5 64t-93.5 22q-45 0 -88 -16.5t-66 -38.5l-31 57q32 30 84.5 50t109.5 20q44 0 81 -10.5t63.5 -30t41.5 -47.5t15 -63v-34z" />
    <glyph glyph-name="fouroldstyle" unicode="&#xf734;" horiz-adv-x="591" 
d="M465 66h113v-66h-113v-211h-76v211h-344v58l316 452h104v-444zM389 417h-14l-236 -351h250v351z" />
    <glyph glyph-name="fiveoldstyle" unicode="&#xf735;" horiz-adv-x="547" 
d="M264 290q108 0 164 -47.5t56 -135.5v-33q0 -51 -18.5 -90.5t-49.5 -68.5t-71.5 -49t-84.5 -32t-88.5 -17.5t-83.5 -5.5l-7 66q22 0 55 2.5t69 10t71.5 21t64 35.5t46.5 53.5t18 74.5v27q0 54 -37 86t-118 32h-179l41 291h328v-73h-258l-24 -147h106v0z" />
    <glyph glyph-name="sixoldstyle" unicode="&#xf736;" horiz-adv-x="599" 
d="M320 433q42 0 80.5 -10.5t67.5 -32.5t46.5 -54.5t17.5 -75.5v-87q0 -46 -19.5 -80t-52 -57t-74 -34.5t-84.5 -11.5q-44 0 -85 11.5t-72.5 35t-51 58t-19.5 81.5v329q0 42 17.5 76t48.5 58.5t73.5 37.5t92.5 13q59 0 107 -16.5t84 -46.5l-36 -58q-30 24 -70 37t-82 13
q-34 0 -62.5 -8t-49.5 -22.5t-32.5 -35.5t-11.5 -48v-144q29 35 73.5 53.5t93.5 18.5zM453 255q0 30 -13 51.5t-34 35.5t-48 20.5t-55 6.5q-29 0 -56 -7.5t-48 -22.5t-33.5 -36t-12.5 -48v-76q0 -32 13 -54.5t34 -36.5t48 -21t54 -7t54 7t48.5 21t35 36.5t13.5 54.5v76z" />
    <glyph glyph-name="sevenoldstyle" unicode="&#xf737;" horiz-adv-x="513" 
d="M20 509h446v-49l-224 -637h-89l220 611h-353v75z" />
    <glyph glyph-name="eightoldstyle" unicode="&#xf738;" horiz-adv-x="609" 
d="M522 490q0 -23 -9 -44t-23.5 -39t-34 -32t-40.5 -22q22 -9 44 -22t39 -30.5t27.5 -40t10.5 -50.5v-50q0 -44 -20 -76t-52.5 -53t-74 -31t-85.5 -10q-45 0 -87 10t-74.5 31t-52 53t-19.5 76v50q0 27 10 49t26.5 40t38.5 31.5t46 22.5q-47 17 -77 54.5t-30 85.5v32
q0 41 18.5 72t49 51.5t70 31t81.5 10.5t81 -10.5t69.5 -31t49 -51.5t18.5 -72v-35zM456 217q0 24 -13 43.5t-33.5 32.5t-46 20t-50.5 7h-18q-26 -1 -51.5 -8t-46 -19.5t-33.5 -31.5t-13 -44v-53q0 -29 13.5 -48.5t35 -31.5t49 -17.5t55.5 -5.5q27 0 54 5t48.5 17t35.5 31.5
t14 48.5v54zM164 484q0 -23 11.5 -41t30 -31t42 -20t47.5 -8h18q24 1 47.5 8t42 19.5t29.5 30.5t11 42v34q0 27 -12 46t-32 31t-45 18t-50 6q-26 0 -51 -6t-45 -18.5t-32 -31.5t-12 -45v-34z" />
    <glyph glyph-name="nineoldstyle" unicode="&#xf739;" horiz-adv-x="598" 
d="M295 519q46 0 87.5 -13.5t72.5 -37t49.5 -56t18.5 -71.5v-248q0 -72 -30 -126t-80.5 -89t-115 -52.5t-133.5 -17.5l-5 66q43 0 93 9.5t93 33.5t71 65.5t28 104.5v37q-28 -32 -71 -49.5t-94 -17.5q-46 0 -85 13t-67.5 36t-45 55.5t-16.5 70.5v109q0 39 18.5 71.5t50 56
t73 37t88.5 13.5zM444 337q0 24 -12 44t-32.5 35t-47.5 23.5t-57 8.5q-31 0 -58 -8.5t-47.5 -23t-32.5 -35t-12 -44.5v-100q0 -23 11.5 -43t31 -34.5t46.5 -23t57 -8.5q31 0 58.5 8.5t48.5 23.5t33.5 35t12.5 43v99z" />
    <glyph glyph-name="ff" unicode="&#xfb00;" horiz-adv-x="632" 
d="M94 573q0 37 16 65t43 46.5t64 27.5t79 9q47 0 96.5 -7.5t91.5 -19.5q40 20 91 20q27 0 58 -5t54 -14l-14 -61q-20 5 -40.5 8t-45.5 3q-43 0 -70 -19.5t-27 -59.5v-56h123v-59h-123v-451h-79v451h-238v-451h-79v451h-67v59h67v63zM411 572q0 39 17 70q-29 5 -57.5 7.5
t-63.5 2.5q-64 0 -99 -22t-35 -68v-52h238v62z" />
    <glyph glyph-name="ffi" unicode="&#xfb03;" horiz-adv-x="898" 
d="M94 573q0 37 16 65t43 46.5t64 27.5t79 9q48 0 98 -8t92 -19q26 14 58.5 20.5t68.5 6.5q48 0 99.5 -8t93.5 -20l-14 -59q-44 8 -82 13t-86 5q-64 0 -99 -22t-35 -68v-52h123v-59h-123v-451h-79v451h-238v-451h-79v451h-67v59h67v63zM728 510h80v-510h-80v510zM173 510
h238v63q0 39 18 69q-29 5 -58 7.5t-64 2.5q-64 0 -99 -22t-35 -68v-52z" />
    <glyph glyph-name="ffl" unicode="&#xfb04;" horiz-adv-x="901" 
d="M728 644q-25 4 -50 6t-54 2q-64 0 -99 -22t-35 -68v-52h123v-59h-123v-451h-79v451h-238v-451h-79v451h-67v59h67v63q0 37 16 65t43 46.5t64 27.5t79 9q48 0 98 -8t92 -19q26 14 58.5 20.5t68.5 6.5q48 0 100.5 -8t94.5 -21v-692h-80v644zM173 510h238v63q0 39 18 69
q-29 5 -58 7.5t-64 2.5q-64 0 -99 -22t-35 -68v-52z" />
    <glyph glyph-name="Eth" unicode="&#xd0;" horiz-adv-x="655" 
d="M316 680q54 0 102 -14.5t84 -43t56.5 -71.5t20.5 -99v-227q0 -57 -21.5 -99.5t-58 -70.5t-85 -41.5t-102.5 -13.5h-223v311h-69v65h69v304h227zM168 311v-240h144q38 0 72 9t60 28.5t41 49.5t15 72v218q0 39 -15.5 69t-41 50.5t-58.5 30.5t-69 10h-148v-232h157v-65h-157
z" />
    </font>
</defs>
</svg>
